<svg width="20" height="20" viewBox="0 0 20 20" fill="none" xmlns="http://www.w3.org/2000/svg">
<path d="M0 3.63636C0 1.62806 1.62806 0 3.63636 0H16.3636C18.3719 0 20 1.62806 20 3.63636V16.3636C20 18.3719 18.3719 20 16.3636 20H3.63636C1.62806 20 0 18.3719 0 16.3636V3.63636Z" fill="#F1F1F1"/>
<path d="M9.89891 3.33334L9.81006 3.6277V12.1685L9.89891 12.2549L13.9635 9.91152L9.89891 3.33334Z" fill="#343434"/>
<path d="M9.89818 3.33334L5.8335 9.91152L9.89818 12.2549V8.10948V3.33334Z" fill="#8C8C8C"/>
<path d="M9.8992 13.0055L9.84912 13.0651V16.1074L9.8992 16.25L13.9663 10.6633L9.8992 13.0055Z" fill="#3C3C3B"/>
<path d="M9.89818 16.25V13.0055L5.8335 10.6633L9.89818 16.25Z" fill="#8C8C8C"/>
<path d="M9.89746 12.2548L13.962 9.91138L9.89746 8.10934V12.2548Z" fill="#141414"/>
<path d="M5.8335 9.91138L9.89818 12.2548V8.10934L5.8335 9.91138Z" fill="#393939"/>
</svg>
