<svg width="20" height="20" viewBox="0 0 20 20" fill="none" xmlns="http://www.w3.org/2000/svg">
<path d="M0 3.63636C0 1.62806 1.62806 0 3.63636 0H16.3636C18.3719 0 20 1.62806 20 3.63636V16.3636C20 18.3719 18.3719 20 16.3636 20H3.63636C1.62806 20 0 18.3719 0 16.3636V3.63636Z" fill="#F1F1F1"/>
<path d="M10.0007 16.6666C13.6951 16.6666 16.6673 13.6944 16.6673 9.99992C16.6673 6.30545 13.6951 3.33325 10.0007 3.33325C6.30618 3.33325 3.33398 6.30545 3.33398 9.99992C3.33398 13.6944 6.30618 16.6666 10.0007 16.6666Z" fill="#2775CA"/>
<path d="M11.8335 11.0555C11.8335 10.0833 11.2502 9.74997 10.0835 9.6111C9.2502 9.49997 9.08353 9.27777 9.08353 8.88883C9.08353 8.4999 9.36133 8.24997 9.91686 8.24997C10.4169 8.24997 10.6947 8.41663 10.8335 8.8333C10.8613 8.91663 10.9447 8.97217 11.028 8.97217H11.4724C11.5835 8.97217 11.6669 8.88883 11.6669 8.77777V8.74997C11.5557 8.13883 11.0557 7.66663 10.4169 7.6111V6.94443C10.4169 6.8333 10.3335 6.74997 10.1947 6.72217H9.77799C9.66686 6.72217 9.58353 6.8055 9.55573 6.94443V7.5833C8.7224 7.69443 8.19466 8.24997 8.19466 8.94443C8.19466 9.8611 8.75019 10.2222 9.91686 10.3611C10.6947 10.5 10.9447 10.6666 10.9447 11.1111C10.9447 11.5556 10.5557 11.8611 10.028 11.8611C9.30573 11.8611 9.05573 11.5555 8.9724 11.1388C8.94466 11.0278 8.86133 10.9722 8.77799 10.9722H8.30573C8.19466 10.9722 8.11133 11.0555 8.11133 11.1666V11.1944C8.22239 11.8888 8.66686 12.3888 9.58353 12.5278V13.1944C9.58353 13.3055 9.66686 13.3888 9.80573 13.4166H10.2224C10.3335 13.4166 10.4169 13.3333 10.4447 13.1944V12.5278C11.278 12.3888 11.8335 11.8055 11.8335 11.0555Z" fill="white"/>
<path d="M8.58322 13.9722C6.41656 13.1945 5.30542 10.7778 6.11102 8.6389C6.52769 7.47223 7.44436 6.58337 8.58322 6.1667C8.69436 6.11117 8.74989 6.02783 8.74989 5.8889V5.50003C8.74989 5.3889 8.69436 5.30557 8.58322 5.27783C8.55542 5.27783 8.49989 5.27783 8.47209 5.30557C5.83322 6.1389 4.38876 8.9445 5.22209 11.5834C5.72209 13.1389 6.91656 14.3334 8.47209 14.8334C8.58322 14.8889 8.69436 14.8334 8.72209 14.7222C8.74989 14.6945 8.74989 14.6667 8.74989 14.6112V14.2222C8.74989 14.1389 8.66656 14.0278 8.58322 13.9722ZM11.5277 5.30557C11.4166 5.25003 11.3054 5.30557 11.2777 5.4167C11.2499 5.4445 11.2499 5.47223 11.2499 5.52783V5.9167C11.2499 6.02783 11.3332 6.1389 11.4166 6.1945C13.5832 6.97223 14.6944 9.3889 13.8888 11.5278C13.4721 12.6945 12.5554 13.5834 11.4166 14C11.3054 14.0556 11.2499 14.1389 11.2499 14.2778V14.6667C11.2499 14.7778 11.3054 14.8612 11.4166 14.8889C11.4444 14.8889 11.4999 14.8889 11.5277 14.8612C14.1666 14.0278 15.611 11.2222 14.7777 8.58337C14.2777 7.00003 13.0554 5.80557 11.5277 5.30557Z" fill="white"/>
</svg>
