<svg width="20" height="20" viewBox="0 0 20 20" fill="none" xmlns="http://www.w3.org/2000/svg">
<path d="M0 3.63636C0 1.62806 1.62806 0 3.63636 0H16.3636C18.3719 0 20 1.62806 20 3.63636V16.3636C20 18.3719 18.3719 20 16.3636 20H3.63636C1.62806 20 0 18.3719 0 16.3636V3.63636Z" fill="#F1F1F1"/>
<path fill-rule="evenodd" clip-rule="evenodd" d="M5.85513 4.57194L3.4649 9.59262C3.45581 9.61129 3.45293 9.63239 3.45668 9.65282C3.46043 9.67325 3.47062 9.69194 3.48576 9.70616L9.9412 15.892C9.95953 15.9096 9.98396 15.9194 10.0094 15.9194C10.0348 15.9194 10.0592 15.9096 10.0775 15.892L16.533 9.70655C16.5481 9.69232 16.5583 9.67363 16.562 9.6532C16.5658 9.63277 16.5629 9.61168 16.5538 9.593L14.1636 4.57232C14.1559 4.55546 14.1435 4.54118 14.1279 4.53118C14.1122 4.52118 14.0941 4.51589 14.0755 4.51594H5.94396C5.92533 4.51571 5.90703 4.52087 5.89127 4.53081C5.87551 4.54074 5.86296 4.55503 5.85513 4.57194Z" fill="#50AF95"/>
<path fill-rule="evenodd" clip-rule="evenodd" d="M10.8381 10.1084C10.7917 10.1118 10.5523 10.1261 10.0182 10.1261C9.59334 10.1261 9.29171 10.1134 9.18589 10.1084C7.54413 10.0361 6.3187 9.75034 6.3187 9.40816C6.3187 9.06598 7.54413 8.78057 9.18589 8.70719V9.82372C9.29325 9.83144 9.60067 9.84959 10.0255 9.84959C10.5353 9.84959 10.7906 9.82835 10.8365 9.8241V8.70797C12.4748 8.78096 13.6975 9.06675 13.6975 9.40816C13.6975 9.74956 12.4752 10.0354 10.8365 10.108L10.8381 10.1084ZM10.8381 8.59249V7.59338H13.1244V6.06979H6.89955V7.59338H9.1855V8.59211C7.32747 8.67746 5.93018 9.04551 5.93018 9.48656C5.93018 9.92761 7.32747 10.2953 9.1855 10.381V13.5827H10.8377V10.3799C12.6915 10.2945 14.0865 9.92683 14.0865 9.48617C14.0865 9.04551 12.6926 8.67784 10.8377 8.59211L10.8381 8.59249Z" fill="white"/>
</svg>
