<svg width="198" height="83" viewBox="0 0 198 83" fill="none" xmlns="http://www.w3.org/2000/svg">
<g clip-path="url(#clip0_1380_22259)">
<path d="M44.0314 35.3197C44.6237 35.3197 45.2358 35.3197 45.8282 35.3197C45.8282 35.6751 45.8282 35.912 45.8282 36.1687C43.6562 36.1687 41.504 36.1687 39.332 36.1687C39.332 35.9318 39.332 35.5764 39.332 35.3197C39.9244 35.3197 40.5365 35.3197 41.1288 35.3197C41.1288 35.0827 41.1288 34.9643 41.1288 34.8458C41.1288 31.2324 41.1288 27.7573 41.1288 24.1439C41.1288 23.7885 41.0104 23.6701 40.655 23.6701C40.1811 23.6701 39.8059 23.6701 39.332 23.6701C39.332 23.3147 39.332 23.0777 39.332 22.7026C39.4505 22.7026 39.569 22.7026 39.6874 22.7026C41.8594 22.7026 44.0116 22.7026 46.302 22.7026C47.1511 22.7026 47.9804 22.821 48.7109 23.058C50.2708 23.6503 51.2383 25.0917 51.1198 26.7898C51.0014 28.4681 49.9154 29.6726 48.2371 30.028C47.0326 30.2649 45.8282 30.2649 44.7619 30.2649C44.1696 30.2649 43.9129 30.3834 43.9129 30.8573C43.9129 32.1802 43.9129 33.3846 43.9129 34.7076C44.0314 34.8458 44.0314 35.0827 44.0314 35.3197ZM43.9129 23.5516C43.9129 25.5853 43.9129 27.5204 43.9129 29.3172C44.7619 29.3172 45.5912 29.4356 46.4403 29.3172C47.5262 29.1987 47.8817 28.7248 48.0001 27.6388C48.0001 26.7898 48.0001 26.079 48.0001 25.2299C47.8817 24.3809 47.4078 23.907 46.5587 23.7885C45.7097 23.6701 44.8804 23.6701 43.9129 23.5516ZM65.7904 47.0877C66.0274 46.8508 66.3828 46.4954 66.8764 46.1202C66.9949 46.0018 67.2318 45.8833 67.3503 46.0018C67.4688 46.0018 67.5873 46.3572 67.5873 46.4756C67.5873 47.917 67.5873 49.3584 67.5873 50.7998C67.5873 51.0368 67.5872 51.2737 67.1134 51.2737C66.758 51.2737 66.521 51.2737 66.3828 50.7998C66.2643 50.2075 66.1459 49.4769 65.7904 48.8845C65.1981 47.5616 64.2306 46.7126 62.6707 46.8508C61.1109 46.8508 59.7879 47.4431 58.9389 49.0228C58.702 49.3782 58.5835 49.8718 58.465 50.3457C58.2281 52.2609 58.1096 54.196 58.5835 56.1112C59.0574 58.145 60.8739 59.3494 63.0261 59.1125C64.8229 58.8756 66.2643 57.4342 66.3828 55.3807C66.3828 55.0253 66.6197 54.9068 66.9752 54.9068C67.3306 54.9068 67.3306 55.1437 67.3306 55.4991C67.2121 57.5329 65.6522 59.3494 63.5987 59.9418C61.4268 60.4157 58.0701 59.8233 56.3918 57.059C55.3058 55.2622 55.0689 53.3272 55.5427 51.2934C56.3918 46.9693 60.716 45.5279 63.4803 46.2387C64.3491 46.3572 65.0599 46.7323 65.7904 47.0877ZM112.764 23.058C112.764 23.2949 112.764 23.5318 112.764 23.907C112.29 23.907 111.915 23.907 111.441 23.907C111.086 23.907 110.967 24.0255 110.967 24.3809C110.967 25.7038 110.967 27.1452 110.967 28.4681C110.967 28.7051 110.967 28.942 111.323 28.942C112.764 28.942 114.205 28.942 115.647 28.942C115.647 27.2637 115.647 25.7038 115.647 23.8873C115.054 23.8873 114.442 23.8873 113.85 23.8873C113.85 23.5319 113.85 23.2949 113.85 23.0382C115.884 23.0382 118.056 23.0382 120.089 23.0382C120.089 23.2752 120.089 23.5121 120.089 23.8873C119.616 23.8873 119.24 23.8873 118.767 23.8873C118.411 23.8873 118.293 24.0057 118.293 24.3611C118.293 27.8363 118.293 31.4496 118.293 34.9445C118.293 35.2999 118.411 35.4184 118.767 35.2999C119.122 35.2999 119.497 35.2999 119.734 35.2999C120.089 35.2999 120.089 35.5369 120.089 35.7738C120.089 36.1292 119.971 36.1292 119.734 36.1292C117.819 36.1292 115.884 36.1292 113.968 36.1292H113.85C113.613 35.2802 113.732 35.2802 114.442 35.2802C114.679 35.2802 115.035 35.2802 115.291 35.2802H115.41C115.41 35.1617 115.41 35.0432 115.41 34.9248C115.41 33.3649 115.41 31.9235 115.41 30.3637C115.41 30.0082 115.291 29.7713 114.817 29.8898C113.613 29.8898 112.409 29.8898 111.086 29.8898C110.73 29.8898 110.612 30.0082 110.612 30.3637C110.612 31.9235 110.612 33.3649 110.612 34.9248C110.612 35.2802 110.73 35.3986 111.086 35.3986C111.323 35.3986 111.56 35.3986 111.678 35.3986C112.409 35.3986 112.409 35.3986 112.409 36.2477C110.375 36.2477 108.203 36.2477 106.169 36.2477C106.169 36.0107 106.169 35.7738 106.169 35.3986C106.525 35.3986 107.018 35.3986 107.492 35.3986C107.847 35.3986 107.966 35.2802 107.966 34.9248C107.966 31.4496 107.966 27.9548 107.966 24.3414C107.966 23.986 107.847 23.8675 107.492 23.8675C107.137 23.8675 106.643 23.8675 106.169 23.8675C106.169 23.6306 106.169 23.3936 106.169 23.0185C108.558 23.058 110.592 23.058 112.764 23.058ZM53.5287 29.5541C53.6472 27.3821 54.1211 25.5853 55.8192 24.0255C58.3465 21.735 64.1121 21.9917 65.5535 26.9083C66.1459 28.942 66.1459 30.9955 65.1981 32.9108C64.1121 35.3197 61.5847 36.6426 58.8204 36.2674C56.1746 35.912 54.2593 34.0955 53.7657 31.4694C53.6472 30.877 53.5287 30.2649 53.5287 29.5541ZM56.53 29.4356C56.53 30.1662 56.53 30.877 56.6485 31.6076C56.7669 32.9305 57.1224 34.0165 58.0899 34.9643C59.0574 35.9318 60.6172 35.9318 61.4465 34.9643C61.9204 34.3719 62.414 33.6413 62.651 32.9305C63.1249 31.2522 63.1249 29.5738 62.8879 27.8758C62.7694 27.0267 62.651 26.1974 62.2956 25.4669C61.8217 24.3809 60.9726 23.6701 59.6497 23.6701C58.4453 23.6701 57.616 24.4006 57.1224 25.4669C56.4115 26.5528 56.53 27.9942 56.53 29.4356ZM144.001 23.907C144.001 23.5516 144.001 23.4331 144.001 23.058C144.238 23.058 144.475 23.058 144.85 23.058C145.817 23.058 146.884 23.058 147.851 23.058C148.325 23.058 148.7 23.1764 148.937 23.6503C150.852 26.2962 152.787 28.942 154.703 31.5878C154.703 31.4694 154.703 31.5878 154.94 31.7063C154.94 31.4694 155.058 31.3509 155.058 31.2324C155.058 29.0605 155.058 26.7898 155.058 24.6178C155.058 24.1439 154.94 23.8873 154.466 23.8873C154.11 23.8873 153.755 23.8873 153.261 23.7688C153.261 23.5318 153.261 23.2949 153.261 22.9198C154.821 22.9198 156.262 22.9198 157.822 22.9198C157.822 23.1567 157.822 23.3936 157.822 23.7688C157.348 23.7688 157.111 23.8873 156.736 23.8873C156.262 23.8873 156.006 24.1242 156.006 24.7363C156.006 28.3497 156.006 31.9433 156.006 35.5566C156.006 35.7935 155.887 36.149 155.65 36.149C155.413 36.149 155.176 36.0305 154.92 35.912C154.801 35.912 154.801 35.7935 154.801 35.6751C152.629 32.6738 150.477 29.6726 148.187 26.6713C147.831 26.079 147.338 25.5853 146.864 24.8745C146.864 25.1115 146.864 25.3484 146.864 25.4669C146.864 28.4681 146.864 31.4694 146.864 34.4706C146.864 35.063 146.982 35.3197 147.575 35.3197C147.693 35.3197 147.812 35.3197 147.93 35.3197C148.641 35.3197 148.641 35.3197 148.641 36.1687C147.081 36.1687 145.64 36.1687 144.08 36.1687C143.843 35.4381 143.843 35.3197 144.672 35.3197C145.758 35.2012 145.758 35.2012 145.758 34.1152C145.758 30.877 145.758 27.6191 145.758 24.4994C145.758 24.0255 145.64 23.7688 145.166 23.907C144.731 23.907 144.356 23.907 144.001 23.907ZM88.9712 58.8558C89.5635 58.8558 89.9387 58.8558 90.4126 58.8558C90.768 58.8558 90.768 59.0927 90.768 59.3297C90.768 59.5666 90.768 59.8036 90.4126 59.8036C88.4973 59.8036 86.6807 59.8036 84.7655 59.8036C84.4101 59.8036 84.4101 59.6851 84.4101 59.3297C84.4101 59.0927 84.4101 58.8558 84.7655 58.8558C85.2394 58.8558 85.6145 58.8558 86.2069 58.8558C86.2069 58.6189 86.2069 58.3819 86.2069 58.2635C86.2069 54.9068 86.2069 51.5304 86.2069 48.1737C86.2069 47.6998 86.0884 47.4432 85.6145 47.4432C85.3776 47.4432 85.1406 47.4432 84.8839 47.4432C84.5285 47.4432 84.4101 47.3247 84.4101 46.9693C84.4101 46.6139 84.5285 46.4954 84.8839 46.4954C87.1744 46.4954 89.4451 46.4954 91.7355 46.4954C93.1769 46.4954 94.6183 46.9693 95.3488 48.2922C96.6718 50.4641 95.4673 53.0902 92.9399 53.5839C91.854 53.8208 90.6495 53.8208 89.5833 53.8208C89.1094 53.8208 88.9909 53.9393 88.9909 54.4132C88.9712 55.973 88.9712 57.2959 88.9712 58.8558ZM88.8527 50.2075C88.8527 51.0565 88.8527 51.7673 88.8527 52.6164C88.8527 52.8533 88.8527 53.0902 89.2081 53.0902C89.9387 53.0902 90.6495 53.0902 91.3801 52.9718C92.3476 52.8533 92.8215 52.3794 92.8215 51.4119C92.8215 50.5629 92.8215 49.7336 92.8215 48.8845C92.703 47.917 92.3476 47.4431 91.3801 47.3247C90.6495 47.2062 90.0572 47.3247 89.3463 47.2062C88.9909 47.2062 88.8725 47.3247 88.8725 47.6801C88.8527 48.6476 88.8527 49.4966 88.8527 50.2075ZM110 47.5616C109.269 47.6801 108.44 47.6801 107.828 47.917C107.235 48.0355 106.86 48.5094 106.742 49.1215C106.623 49.5954 106.505 50.2075 106.505 50.6813C106.386 51.4119 106.386 51.4119 105.537 51.2737C105.537 50.9183 105.537 50.6813 105.537 50.3062C105.656 49.2202 105.774 48.1342 105.774 47.068C105.774 46.8311 105.774 46.5941 106.13 46.5941C109.743 46.5941 113.218 46.5941 116.831 46.5941C116.831 46.5941 116.95 46.5941 117.068 46.7126C117.187 48.154 117.305 49.7138 117.424 51.1552C116.575 51.3922 116.575 51.3922 116.456 50.5629C116.338 50.2075 116.219 49.8323 116.219 49.3584C115.982 48.2724 115.252 47.6801 114.186 47.6801C113.712 47.6801 113.337 47.6801 112.863 47.6801C112.863 51.4119 112.863 55.124 112.863 58.8558C113.712 58.8558 114.541 58.8558 115.39 58.8558C115.39 59.2112 115.39 59.4482 115.39 59.7048C112.744 59.7048 110.217 59.7048 107.571 59.7048C107.571 59.4679 107.571 59.231 107.571 58.8558C108.42 58.8558 109.249 58.8558 110.098 58.8558C110 55.1437 110 51.4119 110 47.5616ZM134.76 36.1687C132.726 36.1687 130.791 36.1687 128.876 36.1687C128.639 35.3197 128.758 35.3197 129.468 35.3197C129.705 35.3197 129.942 35.3197 130.317 35.3197C129.962 34.4706 129.725 33.6413 129.468 32.9108C129.468 32.7923 129.231 32.7923 129.113 32.7923C127.908 32.7923 126.704 32.7923 125.5 32.7923C125.381 32.7923 125.144 32.9108 125.144 33.0292C124.907 33.7598 124.67 34.4706 124.414 35.2012C124.769 35.2012 125.006 35.3197 125.263 35.3197C125.993 35.3197 125.993 35.5566 125.855 36.1687C124.414 36.1687 123.091 36.1687 121.649 36.1687C121.531 35.3197 121.531 35.3197 122.242 35.3197C122.972 35.3197 123.328 35.0827 123.565 34.3522C124.769 30.7388 126.092 27.1452 127.415 23.4134C127.533 23.058 127.652 22.6828 128.145 22.6828C128.619 22.6828 128.876 22.9198 128.994 23.4134C129.962 26.2962 131.028 29.1789 131.996 32.0617C132.351 33.0292 132.726 33.977 132.963 34.9445C133.082 35.2999 133.319 35.4184 133.694 35.4184C133.812 35.4184 133.931 35.4184 134.049 35.4184C134.879 35.3197 134.879 35.3197 134.76 36.1687ZM129.231 31.7063C128.639 30.028 128.027 28.4681 127.553 26.77H127.435C126.842 28.3299 126.349 30.0082 125.756 31.5681C126.823 31.7063 127.908 31.7063 129.231 31.7063ZM76.9662 58.8558C77.5585 58.8558 78.0521 58.8558 78.526 58.8558C78.1706 58.0068 77.9337 57.1775 77.677 56.4469C77.677 56.3284 77.44 56.21 77.3216 56.21C76.1171 56.21 74.9127 56.21 73.7082 56.21C73.5898 56.21 73.3528 56.3284 73.2343 56.4469C72.9974 57.1775 72.7605 57.7698 72.5038 58.6189C72.9777 58.7373 73.4713 58.7373 73.9452 58.8558C73.9452 59.0927 73.9452 59.3297 73.9452 59.7048C72.5038 59.7048 71.1809 59.7048 69.7395 59.7048C69.5025 58.8558 69.5025 58.8558 70.3318 58.8558C71.2993 58.8558 71.2993 58.8558 71.6547 57.8883C72.9777 54.2749 74.1821 50.6813 75.505 46.9495C75.6235 46.5941 75.742 46.219 76.3541 46.219C76.9464 46.219 77.0846 46.5744 77.2031 46.9495C78.526 50.6813 79.8489 54.5119 81.1719 58.2437C81.2903 58.7176 81.5273 58.8361 82.0209 58.8361C82.2578 58.8361 82.3763 58.8361 82.6133 58.8361C82.9687 58.8361 82.9687 59.073 82.9687 59.3099C82.9687 59.5469 82.8502 59.7838 82.6133 59.7838C80.9349 59.7838 79.1381 59.7838 77.44 59.7838C76.7095 59.7048 77.0846 59.231 76.9662 58.8558ZM73.7082 55.2622C74.9127 55.2622 76.1171 55.2622 77.3216 55.2622C76.7292 53.5839 76.1171 52.024 75.6432 50.3259H75.5248C74.9127 52.024 74.3203 53.5839 73.7082 55.2622ZM124.414 59.7048C124.414 59.4679 124.414 59.231 124.414 58.8558C124.887 58.8558 125.381 58.8558 125.973 58.8558C125.618 58.0068 125.381 57.2959 125.124 56.4469C125.124 56.3284 124.887 56.21 124.651 56.21C123.446 56.21 122.36 56.21 121.175 56.21C121.057 56.21 120.82 56.3284 120.702 56.5654C120.465 57.1577 120.228 57.8883 119.971 58.7373C120.445 58.8558 120.938 58.8558 121.412 58.9743C121.412 59.2112 121.412 59.4482 121.412 59.8233C119.971 59.8233 118.53 59.8233 117.207 59.8233C116.97 59.0927 116.97 58.9743 117.799 58.9743C118.767 58.9743 118.767 58.9743 119.122 58.0068C120.445 54.3934 121.649 50.7998 122.972 47.1865C123.091 46.831 123.209 46.4559 123.821 46.4559C124.414 46.4559 124.552 46.8113 124.67 47.1865C125.993 50.9183 127.316 54.7488 128.639 58.4807C128.758 58.8361 128.994 59.073 129.37 58.9545C129.488 58.9545 129.725 58.9545 129.844 58.9545C130.199 58.9545 130.436 58.9545 130.436 59.4284C130.436 59.9023 130.199 59.9023 129.844 59.9023C128.165 59.9023 126.487 59.9023 124.907 59.9023C124.789 59.7048 124.67 59.7048 124.414 59.7048ZM123.11 50.4444H122.992C122.4 52.0043 121.906 53.6826 121.314 55.2425C122.518 55.2425 123.723 55.2425 124.927 55.2425C124.177 53.5839 123.584 52.024 123.11 50.4444ZM85.3578 29.5541C86.4438 27.6388 87.3916 25.9408 88.4776 24.0255C88.0037 23.907 87.6285 23.907 87.1546 23.7885C87.1546 23.5516 87.1546 23.3147 87.1546 22.9395C88.596 22.9395 89.9189 22.9395 91.3603 22.9395C91.3603 23.1764 91.3603 23.4134 91.3603 23.6701L91.2419 23.7885C90.0374 23.6701 89.4451 24.2624 88.9514 25.2299C88.1024 27.0267 87.0362 28.7051 86.0687 30.4031C85.9502 30.6401 85.8317 30.877 85.8317 31.1337C85.8317 32.3382 85.8317 33.5426 85.8317 34.7471C85.8317 35.1025 85.9502 35.2209 86.3056 35.2209C86.5425 35.2209 86.7795 35.2209 86.8979 35.2209C87.6285 35.2209 87.6285 35.2209 87.4903 36.07C85.4566 36.07 83.4031 36.07 81.3693 36.07C81.3693 35.833 81.3693 35.5961 81.3693 35.2209C81.8432 35.2209 82.3368 35.2209 82.6922 35.2209C82.9292 35.2209 83.1661 35.1025 83.1661 34.8655C83.1661 33.6611 83.1661 32.3382 83.1661 31.1337C83.1661 30.8968 83.0477 30.7783 82.9292 30.5414C81.7247 28.3694 80.5203 26.3357 79.3158 24.3019C79.0789 24.065 78.7235 23.9465 78.4668 23.9465C78.1114 23.828 77.7362 23.9465 77.3808 23.9465C77.3808 23.7096 77.3808 23.4726 77.3808 23.0975C79.4146 23.0975 81.3496 23.0975 83.3833 23.0975C83.3833 23.3344 83.3833 23.5713 83.3833 23.9465C82.9094 23.9465 82.5343 23.9465 81.9419 24.065C83.2056 25.8223 84.1731 27.6388 85.3578 29.5541ZM104.59 25.3484C104.59 26.079 104.59 26.7898 104.59 27.3821C104.59 27.7376 104.59 27.9745 104.116 27.9745C103.76 27.9745 103.523 27.856 103.523 27.5006C103.405 26.2962 102.931 25.0917 101.845 24.3809C100.048 22.9395 97.0469 23.907 96.1979 26.1777C95.9609 27.1452 95.8425 28.2114 95.8425 29.1789C95.8425 30.3834 95.9609 31.7063 96.3164 32.9108C96.7902 34.7076 98.6068 35.6751 100.522 35.5566C102.319 35.3197 103.642 33.8783 103.76 32.0815C103.76 31.7261 103.879 31.4891 104.353 31.4891C104.826 31.4891 104.708 31.8445 104.708 32.0815C104.59 33.9967 103.148 35.6948 101.095 36.2872C98.3303 37.0177 95.0922 35.6948 93.6508 33.1674C92.2094 30.5216 92.2094 25.6051 96.1781 23.5516C98.2119 22.4656 100.502 22.2287 102.556 23.6701C102.674 23.7885 102.911 23.6701 103.03 23.6701C103.267 23.4331 103.504 23.1962 103.879 22.9395C103.997 22.9395 104.234 22.7026 104.353 22.821C104.471 22.821 104.59 23.1764 104.59 23.2949C104.59 24.0255 104.59 24.6178 104.59 25.3484ZM141.967 54.5316C141.73 56.21 141.612 57.7698 141.375 59.4679C141.375 59.5864 141.019 59.7048 140.782 59.7048C138.373 59.7048 135.984 59.7048 133.575 59.7048C133.22 59.7048 132.845 59.7048 132.489 59.7048C131.759 59.7048 131.759 59.7048 131.897 58.8558C132.489 58.8558 132.983 58.8558 133.575 58.8558C133.575 58.6189 133.575 58.3819 133.575 58.2635C133.575 54.9068 133.575 51.4119 133.575 48.0552C133.575 47.5814 133.457 47.3247 132.983 47.4629C132.865 47.4629 132.628 47.4629 132.509 47.4629C131.66 47.4629 131.66 47.4629 131.917 46.6139C134.089 46.6139 136.359 46.6139 138.531 46.6139C138.768 47.4629 138.65 47.4629 137.939 47.4629C137.465 47.4629 136.971 47.4629 136.379 47.4629C136.379 51.3132 136.379 55.0253 136.379 58.7571C138.551 59.231 140.229 58.2832 140.703 56.2297C140.822 55.8743 140.822 55.4991 140.94 55.1437C141.118 54.4132 141.118 54.2947 141.967 54.5316ZM77.7955 30.9955C77.5585 32.6738 77.44 34.4706 77.2031 36.1687C73.9649 36.1687 70.8254 36.1687 67.7057 36.1687C67.7057 35.9318 67.7057 35.6948 67.7057 35.3197C68.1796 35.3197 68.5548 35.3197 69.0286 35.3197C69.3841 35.3197 69.5025 35.2012 69.5025 34.8458C69.5025 31.2324 69.5025 27.6388 69.5025 24.1439C69.5025 24.0255 69.5025 24.0255 69.5025 23.907C68.9102 23.907 68.4165 23.907 67.8242 23.907C67.8242 23.5516 67.8242 23.3147 67.8242 23.058C70.1146 23.058 72.3853 23.058 74.6757 23.058C74.6757 23.2949 74.6757 23.5318 74.6757 23.907C73.9452 23.907 73.2343 23.907 72.3853 23.907C72.3853 24.1439 72.3853 24.3809 72.3853 24.4994C72.3853 27.856 72.3853 31.3509 72.3853 34.7076C72.3853 35.1815 72.5038 35.2999 72.9777 35.2999C75.3866 35.2999 76.4528 34.3324 76.9464 31.9433C76.9464 31.8248 77.0649 31.7063 77.0649 31.5878C76.8279 30.877 77.2031 30.877 77.7955 30.9955ZM97.5011 47.4432C97.5011 47.0877 97.5011 46.8508 97.5011 46.5941C99.673 46.5941 101.825 46.5941 103.997 46.5941C103.997 46.831 103.997 47.068 103.997 47.4432C103.523 47.4432 103.03 47.4432 102.556 47.4432C102.319 47.4432 102.082 47.5616 102.082 47.7986C102.082 51.4119 102.082 55.0055 102.082 58.6189C102.082 58.7373 102.082 58.7373 102.2 58.8558C102.793 58.8558 103.405 58.8558 103.997 58.8558C103.997 59.2112 103.997 59.4482 103.997 59.7048C101.825 59.7048 99.673 59.7048 97.5011 59.7048C97.5011 59.4679 97.5011 59.231 97.5011 58.8558C97.9749 58.8558 98.4686 58.8558 98.9424 58.8558C99.2979 58.8558 99.2979 58.7373 99.2979 58.5004C99.2979 55.0253 99.2979 51.4119 99.2979 47.917C99.2979 47.5616 99.1794 47.4432 98.824 47.4432C98.4686 47.4432 97.9947 47.4432 97.5011 47.4432ZM136.201 23.907C136.201 23.5516 136.201 23.3147 136.201 23.058C136.438 23.058 136.675 23.058 136.794 23.058C138.472 23.058 140.269 23.058 141.967 23.058C142.678 22.9395 142.678 22.9395 142.678 23.907C142.441 23.907 142.085 23.907 141.71 23.907C141.473 23.907 141.118 23.907 140.743 23.907C140.743 24.1439 140.743 24.3809 140.743 24.4994C140.743 27.856 140.743 31.2324 140.743 34.7076C140.743 35.2999 140.861 35.4381 141.473 35.2999C141.592 35.2999 141.829 35.2999 141.947 35.2999C142.658 35.2999 142.658 35.2999 142.658 36.149C140.486 36.149 138.334 36.149 136.162 36.149C136.043 35.2999 136.043 35.2999 136.892 35.2999C138.097 35.2999 138.097 35.2999 138.097 34.0955C138.097 30.8573 138.097 27.5993 138.097 24.4796C138.097 24.0057 137.978 23.749 137.505 23.8873C137.031 23.907 136.557 23.907 136.201 23.907Z" fill="#F1F1F1"/>
</g>
<defs>
<clipPath id="clip0_1380_22259">
<rect width="118.668" height="37.7131" fill="white" transform="translate(39.332 22.4458)"/>
</clipPath>
</defs>
</svg>
