<svg width="128" height="41" viewBox="0 0 128 41" fill="none" xmlns="http://www.w3.org/2000/svg">
<path d="M17.7535 32.2004C17.4769 32.3448 17.1394 32.235 17.0011 31.9584L15.4638 28.9876C15.3194 28.711 15.4292 28.3734 15.7058 28.2372L18.3188 26.885C18.6217 26.7264 18.7193 26.3339 18.5119 26.0574L15.5614 22.0454C15.354 21.7688 14.9554 21.7424 14.7135 21.9824L12.6455 24.0788C12.4319 24.2984 12.0741 24.2984 11.8524 24.0788L9.47329 21.7282C9.25369 21.5147 9.25369 21.1568 9.47329 20.9351L11.824 18.556C12.0375 18.3364 12.3953 18.3364 12.617 18.556L14.7135 20.624C14.9554 20.866 15.3621 20.8314 15.5614 20.5549L18.4713 16.5022C18.6705 16.2257 18.575 15.8332 18.272 15.6746L15.6387 14.3509C15.3621 14.2126 15.2523 13.875 15.3906 13.5985L16.8933 10.6073C17.0316 10.3307 17.3691 10.2209 17.6457 10.3592L20.6369 11.8619C20.9134 12.0002 21.0232 12.3378 20.885 12.6143L19.5612 15.2476C19.4087 15.5587 19.5612 15.9227 19.8926 16.0325L24.6428 17.5413C24.9661 17.645 25.3118 17.4315 25.3667 17.094L25.8079 14.1841C25.8567 13.8811 26.1394 13.6676 26.4423 13.7144L29.7507 14.2166C30.0537 14.2655 30.2672 14.5481 30.2205 14.8511L29.7182 18.1595C29.6694 18.4625 29.3868 18.676 29.0838 18.6292L26.1739 18.188C25.8364 18.1331 25.5253 18.4015 25.5334 18.7472L25.5619 23.7311C25.5619 24.0768 25.873 24.3371 26.2105 24.2761L29.1122 23.8002C29.4152 23.7514 29.706 23.9589 29.7528 24.2618L30.2977 27.5641C30.3465 27.8671 30.1391 28.1579 29.8362 28.2047L26.5339 28.7496C26.2309 28.7984 25.9401 28.591 25.8933 28.288L25.4175 25.3863C25.3626 25.0488 25.0169 24.8414 24.6936 24.9451L19.9638 26.5108C19.6405 26.6206 19.488 26.9927 19.6405 27.2957L20.9907 29.9087C21.1351 30.1852 21.0253 30.5228 20.7487 30.6611L17.7575 32.1982L17.7535 32.2004Z" fill="#F1F1F1"/>
<path d="M31.4358 32.0761L33.5994 32.129C33.9084 32.1371 34.1626 31.8931 34.1708 31.584L34.2236 29.4205C34.2318 29.1114 33.9877 28.8552 33.6787 28.8491L31.5151 28.7962C31.206 28.7881 30.9518 29.0321 30.9437 29.3412L30.8908 31.5047C30.8827 31.8138 31.1267 32.068 31.4358 32.0761Z" fill="#F1F1F1"/>
<path d="M34.2614 33.9609L33.8486 35.2338C33.7774 35.4555 33.8974 35.6913 34.1191 35.7645L35.39 36.1794C35.6116 36.2505 35.8475 36.1306 35.9207 35.9089L36.3335 34.638C36.4046 34.4164 36.2847 34.1805 36.063 34.1073L34.7921 33.6925C34.5705 33.6213 34.3346 33.7413 34.2614 33.9629V33.9609Z" fill="#F1F1F1"/>
<path d="M13.8199 34.703L14.4381 36.7771C14.5255 37.0719 14.8367 37.2407 15.1335 37.1533L17.2076 36.5351C17.5025 36.4477 17.6713 36.1366 17.5838 35.8397L16.9657 33.7656C16.8782 33.4707 16.5671 33.3019 16.2702 33.3894L14.1961 34.0076C13.9013 34.095 13.7325 34.4061 13.8199 34.703Z" fill="#F1F1F1"/>
<path d="M12.923 37.9366H11.585C11.3532 37.9366 11.1641 38.1257 11.1641 38.3575V39.6956C11.1641 39.9274 11.3532 40.1165 11.585 40.1165H12.923C13.1548 40.1165 13.3439 39.9274 13.3439 39.6956V38.3575C13.3439 38.1257 13.1548 37.9366 12.923 37.9366Z" fill="#F1F1F1"/>
<path d="M5.88578 18.7591L4.10449 19.9894C3.85031 20.1642 3.78727 20.5119 3.96215 20.7661L5.19238 22.5474C5.36725 22.8016 5.71497 22.8646 5.96915 22.6898L7.75045 21.4595C8.00463 21.2847 8.06766 20.9369 7.89279 20.6828L6.66256 18.9015C6.48768 18.6473 6.13996 18.5842 5.88578 18.7591Z" fill="#F1F1F1"/>
<path d="M2.50349 18.8933L2.0907 17.6204C2.01953 17.3987 1.78162 17.2788 1.55997 17.3499L0.287037 17.7627C0.0653869 17.8339 -0.0545821 18.0718 0.0165869 18.2935L0.429377 19.5664C0.500547 19.788 0.738457 19.908 0.960107 19.8368L2.23304 19.424C2.45468 19.3529 2.57466 19.115 2.50349 18.8933Z" fill="#F1F1F1"/>
<path d="M18.5955 6.28609L16.8752 4.97249C16.6292 4.78542 16.2794 4.83219 16.0924 5.0762L14.7788 6.79649C14.5917 7.04253 14.6385 7.39229 14.8825 7.57936L16.6028 8.89296C16.8488 9.08004 17.1986 9.03327 17.3856 8.78926L18.6992 7.06897C18.8863 6.82292 18.8395 6.47317 18.5935 6.28609H18.5955Z" fill="#F1F1F1"/>
<path d="M17.4172 3.11587L18.499 2.33097C18.6861 2.19473 18.7288 1.93241 18.5926 1.7433L17.8076 0.661515C17.6714 0.474439 17.4091 0.431735 17.22 0.567976L16.1382 1.35288C15.9511 1.48912 15.9084 1.75144 16.0447 1.94055L16.8296 3.02234C16.9658 3.20941 17.2281 3.25211 17.4172 3.11587Z" fill="#F1F1F1"/>
<path d="M34.3881 14.5173L35.1059 12.4758C35.2076 12.185 35.0551 11.8657 34.7643 11.7641L32.7227 11.0462C32.4319 10.9446 32.1127 11.0971 32.011 11.3879L31.2932 13.4294C31.1915 13.7202 31.344 14.0395 31.6348 14.1411L33.6764 14.8589C33.9672 14.9606 34.2864 14.8081 34.3881 14.5173Z" fill="#F1F1F1"/>
<path d="M37.0489 12.4148L38.1307 13.2017C38.3178 13.338 38.5821 13.2973 38.7184 13.1082L39.5053 12.0264C39.6416 11.8393 39.6009 11.575 39.4118 11.4387L38.33 10.6518C38.1429 10.5155 37.8786 10.5562 37.7423 10.7453L36.9554 11.8271C36.8192 12.0142 36.8598 12.2785 37.0489 12.4148Z" fill="#F1F1F1"/>
<path d="M53.9336 30.8275H64.0358C67.2178 30.8275 69.6275 28.1398 69.6275 24.6179C69.6275 21.0034 66.878 19.675 65.2406 19.5823V19.397C66.8162 19.2116 68.886 18.0377 68.886 14.8247C68.886 11.4574 66.6617 9.26392 63.109 9.26392H53.9336V30.8275ZM56.9303 21.0343H63.1398C65.1788 21.0343 66.4146 22.0847 66.4146 24.0928V25.174C66.4146 27.1821 65.1788 28.2325 63.1398 28.2325H56.9303V21.0343ZM56.9303 11.859H62.6456C64.5301 11.859 65.6731 12.8785 65.6731 14.6703V15.6898C65.6731 17.4816 64.5301 18.5011 62.6456 18.5011H56.9303V11.859Z" fill="#F1F1F1"/>
<path d="M81.4367 31.1983C85.0821 31.1983 87.7081 29.3138 89.0983 26.2244L86.6886 24.7724C85.8853 26.9967 84.0935 28.5105 81.4367 28.5105C77.9148 28.5105 75.7832 25.8846 75.7832 21.6831V18.4084C75.7832 14.2069 77.9148 11.5809 81.4367 11.5809C84.0317 11.5809 85.7 12.9711 86.5032 15.1028L88.9747 13.6817C87.5845 10.5923 85.0821 8.89319 81.4367 8.89319C75.9376 8.89319 72.5703 12.8475 72.5703 20.0457C72.5703 27.2439 75.9376 31.1983 81.4367 31.1983Z" fill="#F1F1F1"/>
<path d="M109.519 30.8275L102.073 9.26392H98.3043L90.8281 30.8275H93.8557L95.9255 24.7415H104.329L106.368 30.8275H109.519ZM103.587 22.0847H96.6361L100.034 12.0134H100.189L103.587 22.0847Z" fill="#F1F1F1"/>
<path d="M115.987 30.8275V21.9302H121.888C125.78 21.9302 128.005 19.4278 128.005 15.5971C128.005 11.7663 125.78 9.26392 121.888 9.26392H112.99V30.8275H115.987ZM115.987 11.9208H121.764C123.679 11.9208 124.822 12.9711 124.822 14.8247V16.3694C124.822 18.223 123.679 19.2734 121.764 19.2734H115.987V11.9208Z" fill="#F1F1F1"/>
</svg>
