<svg width="198" height="83" viewBox="0 0 198 83" fill="none" xmlns="http://www.w3.org/2000/svg">
<g clip-path="url(#clip0_1380_22288)">
<path d="M56.2904 26.8182C58.1655 26.8182 59.748 27.4891 61.0382 28.7965C62.3283 30.121 62.982 31.8068 62.982 33.8367C62.982 35.8665 62.3283 37.5523 61.0382 38.8769C59.748 40.2014 58.1655 40.8551 56.2904 40.8551C54.5874 40.8551 53.2285 40.2358 52.1791 38.9973V40.4595H48.6699V21.9156H52.1791V28.6761C53.2113 27.4375 54.5874 26.8182 56.2904 26.8182ZM53.1425 36.6062C53.8993 37.2771 54.7766 37.6211 55.7916 37.6211C56.8065 37.6211 57.6666 37.2943 58.3891 36.6234C59.1116 35.9525 59.4728 35.0408 59.4728 33.8367C59.4728 32.6497 59.1116 31.7208 58.3719 31.0499C57.6494 30.3791 56.7721 30.0522 55.7572 30.0522C54.7422 30.0522 53.8649 30.3791 53.1253 31.0499C52.3856 31.7036 52.0243 32.6325 52.0243 33.8023C52.0071 35.0064 52.3856 35.9353 53.1425 36.6062Z" fill="#F1F1F1"/>
<path d="M69.278 27.2139H65.7344V40.4594H69.278V27.2139Z" fill="#F1F1F1"/>
<path d="M81.2698 36.6234L83.4545 38.9457C82.2332 40.2187 80.8226 40.8723 79.1884 40.8723C77.3994 40.8723 76.006 40.3735 75.0083 39.3758C74.0106 38.378 73.5117 37.0363 73.5117 35.3333V30.7747L74.4234 28.8137L73.5117 27.2311V23.6703H77.0553V35.3333C77.0553 36.7954 77.8122 37.5179 79.3088 37.5179C80.0313 37.5179 80.685 37.2255 81.2698 36.6234Z" fill="#F1F1F1"/>
<path d="M90.1781 40.8895C87.8902 40.8895 86.0324 40.0466 84.6562 38.378L87.0129 36.5202C88.2343 37.5351 89.3696 38.0512 90.4533 38.0512C91.0898 38.0512 91.5887 37.9307 91.9327 37.6727C92.2768 37.4147 92.4488 37.105 92.4488 36.7266C92.4488 36.4342 92.3112 36.1933 92.0359 35.9869C91.7607 35.7805 91.4855 35.6257 91.2102 35.5569C90.935 35.4708 90.4877 35.3332 89.8857 35.1612C89.2148 34.9548 88.6643 34.8 88.2687 34.6796C87.8558 34.5591 87.3914 34.3527 86.8581 34.0431C86.3248 33.7506 85.9292 33.355 85.6884 32.8733C85.4303 32.3917 85.3099 31.7896 85.3099 31.0843C85.3099 29.7598 85.7744 28.7104 86.7205 27.9364C87.6666 27.1623 88.8363 26.7838 90.2813 26.7838C92.5176 26.7838 94.2378 27.5923 95.4763 29.2265L93.1541 31.1187C92.3456 30.1554 91.3995 29.6566 90.3329 29.6566C89.7825 29.6566 89.3524 29.777 89.0428 30.035C88.7331 30.293 88.5783 30.6027 88.5783 30.9467C88.5783 31.2391 88.7159 31.48 88.974 31.7036C89.232 31.91 89.5072 32.0648 89.7825 32.1336C90.0577 32.2025 90.5049 32.3229 91.107 32.4949C91.6403 32.6497 92.0531 32.7529 92.3456 32.8389C92.638 32.9249 93.0164 33.0626 93.5153 33.269C93.997 33.4754 94.3754 33.7162 94.6162 33.9571C94.8571 34.2151 95.0807 34.5419 95.2871 34.972C95.4935 35.402 95.5796 35.8837 95.5796 36.4342C95.5796 37.7587 95.0979 38.8424 94.1174 39.6681C93.1197 40.4766 91.8123 40.8895 90.1781 40.8895Z" fill="#F1F1F1"/>
<path d="M108.086 31.5831C107.123 30.5854 106.005 30.0865 104.783 30.0865C103.768 30.0865 102.908 30.4305 102.203 31.1358C101.498 31.8239 101.137 32.77 101.137 33.9398C101.137 35.0235 101.498 35.9008 102.237 36.5545C102.96 37.2253 103.854 37.5522 104.887 37.5522C106.16 37.5522 107.295 37.0705 108.258 36.1244L110.477 38.2059C108.946 39.9777 107.054 40.855 104.783 40.855C102.702 40.855 100.999 40.2013 99.6572 38.8767C98.3154 37.5694 97.6445 35.8836 97.6445 33.8537C97.6445 31.8239 98.3154 30.1381 99.6744 28.7963C101.033 27.4546 102.754 26.8009 104.818 26.8009C107.054 26.8009 108.895 27.661 110.34 29.3812L108.086 31.5831Z" fill="#F1F1F1"/>
<path d="M122.365 27.2139H125.875V40.4595H122.365V38.9973C121.333 40.2358 119.957 40.8551 118.254 40.8551C116.379 40.8551 114.796 40.2014 113.506 38.8769C112.216 37.5523 111.562 35.8837 111.562 33.8367C111.562 31.8068 112.216 30.121 113.506 28.7965C114.796 27.4719 116.379 26.8182 118.254 26.8182C119.957 26.8182 121.316 27.4375 122.365 28.6761V27.2139ZM116.155 36.6234C116.878 37.2943 117.738 37.6211 118.753 37.6211C119.768 37.6211 120.645 37.2771 121.402 36.6062C122.159 35.9353 122.52 35.0064 122.52 33.8367C122.52 32.6497 122.142 31.7208 121.419 31.0499C120.68 30.3963 119.802 30.0522 118.787 30.0522C117.772 30.0522 116.895 30.3791 116.173 31.0499C115.45 31.7208 115.072 32.6325 115.072 33.8367C115.072 35.0408 115.433 35.9525 116.155 36.6234Z" fill="#F1F1F1"/>
<path d="M133.083 21.9156H129.539V40.4595H133.083V21.9156Z" fill="#F1F1F1"/>
<path d="M149.338 33.3377C149.338 33.9053 149.286 34.4558 149.2 34.9891L139.292 35.0235C139.532 35.9352 139.997 36.6577 140.668 37.2253C141.339 37.793 142.182 38.0682 143.196 38.0682C144.366 38.0682 145.605 37.5866 146.912 36.6405L148.804 38.6875C147.325 40.1153 145.416 40.8378 143.076 40.8378C140.926 40.8378 139.188 40.1841 137.847 38.8595C136.505 37.535 135.834 35.832 135.834 33.7677C135.834 31.7207 136.488 30.0349 137.812 28.7447C139.12 27.4546 140.805 26.8009 142.87 26.8009C144.831 26.8009 146.413 27.3858 147.583 28.5727C148.736 29.7769 149.338 31.3594 149.338 33.3377ZM142.852 29.6048C142.01 29.6048 141.27 29.8457 140.633 30.3101C139.997 30.7918 139.567 31.4283 139.343 32.254H146.069C145.897 31.4111 145.519 30.7574 144.951 30.2929C144.349 29.8285 143.661 29.6048 142.852 29.6048Z" fill="#F1F1F1"/>
<path d="M81.4919 27.2139H73.5273V30.7575H81.4919V27.2139Z" fill="#F1F1F1"/>
<path d="M81.4919 27.2139H73.5273V30.7575H81.4919V27.2139Z" fill="url(#paint0_linear_1380_22288)"/>
<path d="M97.6289 52.9138C97.6289 50.4711 99.4695 48.6821 101.826 48.6821C103.667 48.6821 105.215 49.8003 105.731 51.5549H104.905C104.475 50.2819 103.288 49.4218 101.843 49.4218C99.9168 49.4218 98.4374 50.9012 98.4374 52.9138C98.4374 54.9265 99.9168 56.4058 101.826 56.4058C103.288 56.4058 104.475 55.5285 104.905 54.2728H105.731C105.232 56.0446 103.65 57.1455 101.826 57.1455C99.4695 57.1455 97.6289 55.3565 97.6289 52.9138Z" fill="#F1F1F1"/>
<path d="M115.294 48.8369V56.9907H114.503V55.0469C113.867 56.3026 112.628 57.1455 111.097 57.1455C108.809 57.1455 107.227 55.3565 107.227 52.9138C107.227 50.4711 108.826 48.6821 111.08 48.6821C112.628 48.6821 113.867 49.525 114.503 50.798V48.8369H115.294ZM114.52 52.9138C114.52 50.9012 113.075 49.4218 111.2 49.4218C109.325 49.4218 108.018 50.884 108.018 52.9138C108.018 54.9265 109.325 56.3886 111.2 56.3886C113.092 56.3886 114.52 54.9437 114.52 52.9138Z" fill="#F1F1F1"/>
<path d="M125.874 52.9137C125.874 55.3564 124.292 57.1454 122.021 57.1454C120.473 57.1454 119.234 56.3025 118.598 55.0296V60.689H117.807V48.8368H118.598V50.7979C119.234 49.5249 120.473 48.682 122.021 48.682C124.275 48.6648 125.874 50.471 125.874 52.9137ZM125.083 52.9137C125.083 50.9011 123.793 49.4217 121.901 49.4217C120.026 49.4217 118.581 50.8839 118.581 52.9137C118.581 54.9435 120.026 56.3885 121.901 56.3885C123.776 56.3885 125.083 54.9263 125.083 52.9137Z" fill="#F1F1F1"/>
<path d="M128.711 48.8368H127.92V56.9906H128.711V48.8368Z" fill="#F1F1F1"/>
<path d="M136.899 56.681C136.486 56.8874 135.661 57.1626 134.818 57.1626C133.012 57.1626 131.962 55.9585 131.962 53.8942V49.5765H130.328V48.8368H131.962V46.7898H132.754V48.8368H136.744V49.5765H132.754V53.8598C132.754 55.4596 133.459 56.4057 134.955 56.4057C135.575 56.4057 136.194 56.2509 136.762 56.0101L136.899 56.681Z" fill="#F1F1F1"/>
<path d="M146.035 48.8369V56.9907H145.243V55.0469C144.607 56.3026 143.368 57.1455 141.837 57.1455C139.549 57.1455 137.967 55.3565 137.967 52.9138C137.967 50.4711 139.567 48.6821 141.82 48.6821C143.368 48.6821 144.607 49.525 145.243 50.798V48.8369H146.035ZM145.278 52.9138C145.278 50.9012 143.833 49.4218 141.958 49.4218C140.083 49.4218 138.775 50.884 138.775 52.9138C138.775 54.9265 140.083 56.3886 141.958 56.3886C143.833 56.3886 145.278 54.9437 145.278 52.9138Z" fill="#F1F1F1"/>
<path d="M149.338 45.5686H148.529V56.9736H149.338V45.5686Z" fill="#F1F1F1"/>
<path d="M81.4753 27.2139H77.9316V30.7575H81.4753V27.2139Z" fill="#8A8A8A"/>
</g>
<defs>
<linearGradient id="paint0_linear_1380_22288" x1="73.559" y1="28.994" x2="80.5211" y2="28.994" gradientUnits="userSpaceOnUse">
<stop stop-color="#F1F1F1"/>
<stop offset="1" stop-color="#A3A3A3"/>
</linearGradient>
<clipPath id="clip0_1380_22288">
<rect width="100.666" height="38.7734" fill="white" transform="translate(48.6699 21.9156)"/>
</clipPath>
</defs>
</svg>
