<svg width="198" height="84" viewBox="0 0 198 84" fill="none" xmlns="http://www.w3.org/2000/svg">
<path d="M125.513 38.6939L125.491 41.4219C125.491 43.5779 125.447 45.1619 123.907 46.8119C122.675 48.0879 121.025 48.3079 119.309 48.3079C118.869 48.3079 118.429 48.2639 117.989 48.2199C114.359 47.5599 113.523 45.2719 113.523 41.7739C113.523 40.1899 113.611 38.7159 113.545 37.1319C113.501 36.3619 113.633 35.6359 113.567 34.8879C113.567 34.7559 113.567 34.6239 113.611 34.4699C113.655 34.1839 113.809 34.0519 114.073 34.0519C114.667 34.0519 115.261 34.0079 115.833 34.0959C116.141 34.1399 116.317 34.2719 116.361 34.5359C116.427 34.7119 116.405 34.9319 116.405 35.1079C116.449 37.2199 116.493 39.2219 116.449 41.3339C116.427 42.0379 116.449 42.7419 116.493 43.4459C116.669 45.1399 117.967 45.7339 119.485 45.7339C120.211 45.7339 121.487 45.4919 121.883 44.9199C122.213 44.5019 122.455 44.0179 122.499 43.4459L122.587 41.6859C122.587 40.4099 122.565 39.1339 122.521 37.9019C122.477 36.1199 122.565 35.8119 122.565 34.9759C122.565 34.5579 122.609 34.1179 123.093 34.0519C123.687 34.0519 124.281 33.9639 124.875 34.0739C125.337 34.1399 125.447 34.2719 125.447 34.7339C125.513 36.0539 125.535 37.3739 125.513 38.6939Z" fill="white"/>
<path d="M106.647 47.9779C105.415 48.0439 104.359 47.8239 103.347 47.4059C101.807 46.8339 100.927 45.7339 100.465 44.1939C100.377 43.8419 100.377 43.4679 100.377 43.1159C100.377 42.8079 100.575 42.6319 100.905 42.5659C101.345 42.5219 101.807 42.4999 102.247 42.4119C102.291 42.4119 102.335 42.3899 102.401 42.3899C102.753 42.3899 103.017 42.6539 103.149 43.0059C103.149 43.0719 103.171 43.1379 103.171 43.1819C103.523 44.9419 105.239 45.4039 106.801 45.4039C107.549 45.4039 108.033 45.2279 108.737 44.9859C109.309 44.7659 109.463 44.2819 109.595 43.7099C109.595 43.6219 109.573 43.4899 109.507 43.3139C109.177 42.6759 108.561 42.4559 107.923 42.2799C107.065 42.0599 106.229 41.9059 105.393 41.6639C103.325 41.1579 101.851 40.7179 100.993 38.5619C100.839 38.2539 100.817 37.9019 100.861 37.5719C101.037 34.5579 103.699 33.5239 106.383 33.5239C108.627 33.5239 110.827 34.2499 111.773 36.4719C111.949 36.8899 111.927 37.3299 111.993 37.7259C112.037 38.0779 111.773 38.3859 111.421 38.4299C110.849 38.4959 110.343 38.5399 109.815 38.5399C109.551 38.5839 109.287 38.4519 109.243 38.1439C109.177 38.0119 109.155 37.8139 109.111 37.6599C108.759 36.4719 107.483 36.0759 106.383 36.0759C105.591 36.0759 104.821 36.1859 104.161 36.6259C103.567 37.0659 103.545 37.8359 104.139 38.2759C104.271 38.4299 104.491 38.5179 104.667 38.5619C105.767 38.8919 106.889 39.1119 108.011 39.3759C109.089 39.6179 110.145 39.9919 111.069 40.7399C112.477 41.8839 112.807 43.7979 111.927 45.4479C111.179 46.8339 110.123 47.3839 108.671 47.7579C107.989 47.9339 107.285 48.0439 106.647 47.9779Z" fill="white"/>
<path d="M92.949 37.902C92.377 38.474 92.333 39.156 92.069 39.772C91.805 40.344 91.541 40.894 91.431 41.466C91.563 41.62 91.717 41.598 91.871 41.598C92.399 41.576 92.927 41.576 93.455 41.576C93.653 41.576 93.829 41.554 94.049 41.51C94.291 41.488 94.379 41.356 94.291 41.114C93.851 40.036 93.411 39.002 92.949 37.902ZM98.361 47.956L98.339 47.978C98.141 47.978 97.965 47.956 97.745 47.978C97.349 48.044 97.085 47.868 96.909 47.538C96.689 47.098 96.535 46.658 96.315 46.218C96.095 45.646 95.831 45.008 95.589 44.414C95.501 44.172 95.347 44.04 95.083 44.04C94.423 44.018 93.763 44.018 93.081 44.018C92.377 44.018 91.651 44.084 90.969 44.04C90.551 44.018 90.265 44.194 90.133 44.59C89.825 45.448 89.495 46.35 89.143 47.186C88.923 47.78 88.527 48.044 87.911 48C87.515 47.956 87.075 48 86.635 47.956C86.107 47.89 85.931 47.626 86.107 47.164C86.349 46.46 86.635 45.8 86.921 45.118L88.175 42.082C88.505 41.334 88.791 40.586 89.099 39.816C89.253 39.442 89.429 39.112 89.561 38.716C89.957 37.704 90.353 36.714 90.837 35.702C90.925 35.504 90.991 35.284 91.035 35.064C91.101 34.8 91.233 34.602 91.343 34.36C91.475 34.096 91.673 33.942 91.981 33.92C92.575 33.898 93.125 33.876 93.675 33.876C93.983 33.876 94.203 34.03 94.357 34.316C94.511 34.558 94.599 34.822 94.709 35.086C95.325 36.494 95.941 37.88 96.513 39.288C96.931 40.234 97.327 41.158 97.723 42.06C98.427 43.556 98.977 45.052 99.703 46.548C99.813 46.768 99.901 47.01 99.967 47.252C100.033 47.692 99.857 47.912 99.439 47.956C99.065 48 98.735 47.956 98.361 47.956Z" fill="white"/>
<path d="M81.6897 41.8399L79.1597 41.8619C78.3237 41.7739 77.4217 41.8399 76.4977 41.8839C76.3217 41.9059 76.1457 41.9499 76.1677 42.1479C76.2557 43.2479 76.1237 44.2819 76.1457 45.3599C76.1897 45.8439 76.1897 46.3059 76.1897 46.7899C76.1897 46.8779 76.2117 46.9879 76.2117 47.0319C76.1897 47.7359 76.0357 47.9339 75.2877 47.9559C74.8477 47.9999 74.3857 48.0219 73.9457 47.9779C73.5497 47.9779 73.3297 47.7579 73.3297 47.3399C73.2857 46.5039 73.3077 45.6459 73.2637 44.7879V39.0899V35.6359C73.3077 35.2399 73.2857 34.7999 73.3077 34.3819C73.3077 34.1619 73.5057 33.9639 73.7257 33.9199C74.0337 33.8759 74.3417 33.8539 74.6497 33.8539C74.9797 33.8539 75.3537 33.8979 75.6617 33.9419C75.9477 33.9859 76.1017 34.1619 76.1457 34.4699C76.1897 34.7999 76.2557 35.0859 76.2117 35.3939C76.1237 36.4499 76.2117 37.5059 76.1457 38.5839V38.7379C76.1677 39.0459 76.3217 39.2219 76.6297 39.2219C77.0477 39.2659 77.4877 39.2659 77.8837 39.2659C78.3017 39.2659 78.7417 39.2659 79.1377 39.2219C79.3137 39.1999 79.4677 39.1779 79.6437 39.2219C80.3917 39.3759 81.0957 39.2439 81.8217 39.2659C82.2397 39.2659 82.3277 39.1119 82.3497 38.6719C82.3497 38.0119 82.3277 37.3299 82.3277 36.6479C82.3277 35.9219 82.3277 35.2179 82.3497 34.4699C82.3497 34.1619 82.4377 34.0519 82.7237 33.9859C83.0317 33.8979 83.3397 33.8539 83.6477 33.8539C83.9777 33.8539 84.2637 33.8979 84.5497 33.9419C85.0777 34.0079 85.2757 34.2939 85.2317 34.8219C85.1877 36.3179 85.2537 37.7039 85.2977 39.1999C85.2977 39.9039 85.2757 40.6299 85.2317 41.2899V45.0959C85.2097 45.8659 85.2097 46.6139 85.1437 47.3619C85.1437 47.7359 84.9677 47.9339 84.6597 47.9339C84.2857 47.9779 83.9117 47.9999 83.5157 47.9999C83.3177 47.9999 83.1197 47.9999 82.9217 47.9559C82.4817 47.8899 82.2617 47.6699 82.3057 47.2739C82.3277 46.7459 82.1957 46.1959 82.3497 45.6679C82.3937 45.4039 82.3497 45.1399 82.3497 44.8319V42.4779C82.3497 41.9939 82.2177 41.8399 81.6897 41.8399Z" fill="white"/>
</svg>
