<svg width="198" height="84" viewBox="0 0 198 84" fill="none" xmlns="http://www.w3.org/2000/svg">
<path d="M126.39 47.2117H126.369C126.238 47.19 126.26 47.4726 126.217 47.5813C126.173 47.8856 126.238 48.1465 126.195 48.3638C126.173 49.3638 126.238 50.2985 126.238 51.2767C126.282 51.9506 126.217 52.6245 126.173 53.2766C126.151 53.7984 126.173 54.3201 126.217 54.8635C126.282 55.2548 126.238 55.5809 125.825 55.7983C125.782 55.8417 125.695 55.907 125.608 55.907C125.064 55.82 124.521 55.9939 123.956 55.8417C123.586 55.7548 123.499 55.6461 123.434 55.2983C123.412 54.994 123.412 54.6244 123.412 54.2983C123.391 52.2115 123.391 50.2116 123.391 48.1247V42.8641C123.391 42.2337 123.586 42.0598 124.151 42.0163H125.564C125.912 42.0163 126.151 42.1685 126.325 42.4293C127.086 43.4728 127.847 44.4945 128.586 45.5379C129.608 46.9726 130.586 48.4073 131.586 49.8203C131.76 50.0594 131.955 50.2768 132.151 50.4942C132.477 50.8202 132.455 50.5594 132.455 50.4507C132.499 50.0377 132.434 49.6464 132.434 49.2334C132.412 48.2551 132.39 47.3204 132.434 46.3422C132.499 45.2118 132.455 44.0597 132.39 42.9293C132.39 42.625 132.499 42.4511 132.629 42.2337C132.716 42.0815 132.912 41.9946 133.042 41.9946C134.412 41.9946 134.238 41.8859 134.76 42.0815C135.02 42.1685 135.151 42.3207 135.194 42.538C135.26 42.8206 135.325 43.038 135.303 43.2771C135.216 43.9728 135.216 44.6684 135.26 45.364C135.303 46.6683 135.194 47.8421 135.26 49.1029C135.303 50.0811 135.26 51.0376 135.26 52.0158C135.26 53.0593 135.238 54.1244 135.281 55.1679C135.281 55.5157 134.977 55.82 134.673 55.8417C134.173 55.8852 133.651 55.8635 133.173 55.8635C132.781 55.8635 132.455 55.7113 132.216 55.3635C131.368 54.0592 130.477 52.8854 129.608 51.668C128.651 50.2768 127.716 48.9942 126.76 47.6465C126.673 47.5161 126.477 47.2117 126.39 47.2117Z" fill="#F1F1F1"/>
<path d="M118.899 54.994L118.877 52.0376C118.921 50.6464 118.921 49.6029 118.877 48.4943C118.855 46.6466 118.921 44.8206 118.855 42.9728C118.855 42.8207 118.855 42.625 118.899 42.4729C119.051 42.1903 119.225 41.9946 119.529 42.0163C120.029 42.0163 120.486 41.9729 120.986 41.9946C121.529 42.0598 121.681 42.212 121.747 42.7989C121.79 43.2554 121.812 43.6684 121.768 44.1249C121.703 45.0597 121.747 46.0162 121.747 46.9509C121.747 48.603 121.79 50.2116 121.747 51.8637C121.703 52.755 121.768 53.6245 121.768 54.5157C121.768 54.7549 121.66 54.994 121.703 55.2548C121.725 55.6679 121.486 55.8852 121.116 55.907C120.529 55.907 119.986 55.9287 119.442 55.8635C119.095 55.8418 118.942 55.6679 118.899 55.32V54.994Z" fill="#F1F1F1"/>
<path d="M108.314 44.777L108.292 44.7988C108.336 45.5813 108.314 46.3422 108.314 47.1682C108.314 47.2552 108.358 47.3421 108.423 47.3856C108.51 47.4291 108.597 47.4073 108.662 47.3421C108.901 47.103 109.184 46.9074 109.401 46.69C110.879 45.2118 112.466 44.0162 113.857 42.4511C114.162 42.1032 114.509 41.9511 114.901 41.9946C115.314 42.0163 115.683 41.9728 116.075 42.0598C116.401 42.1467 116.77 42.038 117.118 42.0815C117.466 42.125 117.64 42.4511 117.466 42.7771C117.335 42.9945 117.227 43.2771 116.922 43.364C116.792 43.4075 116.727 43.538 116.596 43.6249C115.727 44.4075 114.879 45.19 114.009 45.9726L112.27 47.5378C112.14 47.6682 112.118 47.7986 112.205 47.9725C112.249 48.0377 112.292 48.1247 112.379 48.2551C113.64 49.842 114.857 51.4071 116.096 52.9723C116.596 53.5375 117.031 54.1679 117.488 54.7548C117.553 54.7983 117.596 54.8852 117.64 54.9504C117.966 55.4287 117.77 55.7982 117.183 55.8852C117.053 55.9069 116.922 55.9287 116.77 55.9287H115.357C114.901 55.9287 114.596 55.7982 114.292 55.4069C113.249 53.9722 112.205 52.6027 111.118 51.2115C111.01 51.0376 110.901 50.8419 110.814 50.7115C110.64 50.4072 110.401 50.1681 110.162 49.9507C110.01 49.8203 109.857 49.7985 109.705 49.9072C109.249 50.2768 108.836 50.668 108.423 51.1028C108.314 51.2332 108.227 51.3419 108.292 51.5593C108.423 52.2114 108.314 52.8853 108.358 53.5592C108.401 54.0374 108.379 54.5592 108.379 55.0591C108.379 55.6026 108.118 55.8852 107.597 55.9287C107.097 55.9287 106.64 55.9287 106.14 55.9069C105.706 55.8417 105.575 55.7113 105.51 55.2765C105.423 54.7548 105.466 54.2113 105.51 53.6896C105.553 53.4505 105.575 53.1679 105.532 52.9505C105.423 51.7332 105.445 50.5159 105.51 49.2985C105.532 48.7986 105.488 48.3638 105.488 47.8856C105.488 46.7552 105.379 45.6248 105.51 44.4944C105.532 44.3423 105.51 44.2118 105.488 44.0814C105.401 43.5597 105.445 43.038 105.51 42.4945C105.553 42.0815 105.923 42.0163 106.271 42.0163H107.597C108.162 42.038 108.249 42.125 108.292 42.6684C108.336 43.3641 108.358 44.0597 108.314 44.777Z" fill="#F1F1F1"/>
<path d="M96.6198 44.3857L96.5981 44.4075C96.0329 44.4292 95.2068 44.4509 94.3591 44.4727C94.1851 44.4944 94.0765 44.5814 94.0765 44.7335C94.0765 45.5596 94.0982 46.3856 94.1199 47.2334C94.1199 47.5377 94.2069 47.6464 94.5112 47.6464C94.7503 47.6464 95.0329 47.6247 95.2503 47.6247C95.6416 47.5812 95.9894 47.5812 96.3372 47.5812C96.5763 47.5812 96.772 47.5595 97.0111 47.6247C97.6415 47.7116 98.2284 47.5595 98.8371 47.5377C99.011 47.5377 99.1632 47.4508 99.3153 47.4073C99.8588 47.103 100.25 46.7334 100.315 46.0813C100.337 45.3857 99.9457 44.864 99.2501 44.6466C99.0762 44.5814 98.8806 44.5596 98.6849 44.5161C98.0763 44.364 97.4459 44.4509 96.6198 44.3857ZM94.0982 52.1245V54.5374C94.0982 54.8417 94.1199 55.1243 93.9895 55.4287C93.8808 55.6678 93.7504 55.7982 93.4895 55.7982C92.9243 55.7982 92.4026 55.8417 91.8157 55.7982C91.4461 55.7982 91.2505 55.6243 91.2505 55.233C91.2505 54.8635 91.3375 54.4939 91.2722 54.1461C91.1853 53.1896 91.1853 52.2114 91.2722 51.255C91.3375 50.6245 91.2505 48.7768 91.2505 48.4507V42.951C91.2505 42.4945 91.2722 42.0815 91.8374 41.9945C92.0548 41.9728 92.2287 41.9293 92.4026 41.9511C92.7287 42.0163 93.0548 41.9945 93.3591 41.9945C94.1417 41.9945 94.9242 41.9293 95.7068 41.9293C96.0329 41.9293 96.359 41.9293 96.6633 41.9728C97.0763 42.038 97.5111 41.9293 97.9024 41.9293C98.7284 41.9728 99.511 42.0163 100.294 42.2119C102.054 42.6249 103.38 44.3205 103.206 46.3204C103.033 48.1464 102.163 48.8638 100.641 49.6029C100.467 49.7115 100.446 49.842 100.576 49.9941C101.924 51.4723 102.902 53.081 103.989 54.6461C104.228 54.9722 104.424 55.2548 104.293 55.646C104.25 55.8199 104.163 55.9069 104.011 55.9069C103.641 55.9504 103.315 55.7982 102.924 55.8417C102.554 55.8852 102.185 55.8634 101.793 55.8634C101.489 55.8634 101.272 55.7765 101.098 55.5591C100.707 55.0156 100.359 54.4722 99.9675 53.907C99.2719 52.9505 98.6632 51.994 97.9024 51.0593C97.4676 50.5159 96.8589 50.1246 96.0981 50.2115H95.9894C95.6851 50.2115 95.446 50.1028 95.1416 50.1028C94.946 50.1028 94.7286 50.1028 94.5112 50.1246C94.2069 50.168 94.1199 50.255 94.0765 50.6028C94.0765 51.1028 94.0982 51.6245 94.0982 52.1245Z" fill="#F1F1F1"/>
<path d="M89.7691 46.7117L89.7474 49.4072C89.7474 51.5376 89.7039 53.1027 88.1822 54.733C86.9649 55.9939 85.3346 56.2112 83.639 56.2112C83.2042 56.2112 82.7695 56.1678 82.3347 56.1243C78.7479 55.4721 77.9219 53.2114 77.9219 49.755C77.9219 48.1899 78.0088 46.7334 77.9436 45.1683C77.9001 44.4075 78.0306 43.6901 77.9654 42.951C77.9654 42.8206 77.9654 42.6902 78.0088 42.538C78.0523 42.2554 78.2045 42.125 78.4653 42.125C79.0523 42.125 79.6392 42.0815 80.2044 42.1684C80.5087 42.2119 80.6826 42.3424 80.7261 42.6032C80.7913 42.7771 80.7696 42.9945 80.7696 43.1684C80.813 45.2553 80.8565 47.2334 80.813 49.3203C80.7913 50.0159 80.813 50.7115 80.8565 51.4071C81.0304 53.081 82.313 53.6679 83.8129 53.6679C84.5302 53.6679 85.7911 53.4288 86.1823 52.8636C86.5084 52.4506 86.7475 51.9723 86.791 51.4071L86.878 49.6681C86.878 48.4073 86.8562 47.1465 86.8127 45.9291C86.7693 44.1683 86.8562 43.864 86.8562 43.038C86.8562 42.6249 86.8997 42.1902 87.3779 42.125C87.9649 42.125 88.5518 42.038 89.1387 42.1467C89.5952 42.2119 89.7039 42.3424 89.7039 42.7988C89.7691 44.1031 89.7909 45.4074 89.7691 46.7117Z" fill="#F1F1F1"/>
<path d="M73.8687 50.9072H73.847C72.9557 50.9072 72.1297 50.9507 71.2819 50.9072C71.021 50.9072 70.7602 50.9289 70.4558 50.8637C70.1298 50.8202 69.9559 50.6463 69.9341 50.3203C69.9124 49.842 69.9124 49.3855 69.9341 48.9073C69.9993 48.516 70.1732 48.4291 70.5645 48.3638C70.7167 48.3638 70.8471 48.3421 70.9993 48.3421C72.6731 48.3421 74.3035 48.3204 75.9773 48.3204C76.4773 48.3204 76.6512 48.4291 76.7164 48.9073C76.7599 49.2986 76.7816 49.6899 76.7816 50.0811C76.7816 51.1028 76.7381 52.168 76.7816 53.1679C76.7816 53.7331 76.5425 54.1462 76.086 54.407C74.0209 55.6461 72.7166 56.1461 70.3471 56.1461C69.0429 56.1461 67.8907 55.8417 66.6734 55.2548C65.2822 54.6027 64.2822 53.5592 63.6736 52.1245C62.9127 50.3855 62.8693 48.6464 63.3258 46.8204C63.6301 45.6466 64.6083 43.9075 65.6952 43.1902C67.1734 42.1902 68.7385 41.8207 70.4993 41.8207C72.8688 41.8207 75.1947 42.6467 76.1077 44.951C76.1947 45.2118 76.4338 45.3857 76.4773 45.6901C76.5642 46.2118 76.4773 46.5378 75.9773 46.6683C75.5425 46.8204 75.1295 46.9291 74.6948 47.0378C74.3035 47.1248 73.9991 46.9726 73.8252 46.5596C73.6948 46.2987 73.5861 46.0379 73.4557 45.7335C73.0644 44.7118 71.2601 44.2988 70.2602 44.2988C68.6951 44.2988 67.2386 44.9944 66.543 46.3857C65.9778 47.603 65.8474 48.7334 66.0213 50.0377C66.3908 52.3854 68.2168 53.5592 70.4341 53.5592C71.2819 53.5592 72.0862 53.4071 72.847 53.081C73.0861 52.994 73.2818 52.8636 73.5209 52.7332C73.7818 52.6028 73.9339 52.3854 73.9339 52.0593C73.9339 51.6898 73.9991 51.342 73.8687 50.9072Z" fill="#F1F1F1"/>
<path d="M132.282 30.4508L132.26 30.4725C132.478 30.2334 132.651 30.016 132.782 29.7986C133.26 29.1248 133.738 28.4944 134.195 27.8422C134.695 27.0814 135.217 26.364 135.673 25.6032C135.912 25.2119 136.26 25.038 136.695 24.9945C137.216 24.9728 137.76 24.951 138.282 24.951C138.455 24.951 138.629 25.0163 138.76 25.1032C139.021 25.2989 139.064 25.538 138.89 25.8206C138.738 26.1249 138.542 26.4292 138.282 26.7118C137.39 27.8422 136.564 28.9726 135.716 30.1899C135.151 31.0377 134.477 31.7985 133.89 32.6681C133.673 33.0376 133.543 33.4289 133.543 33.8419C133.586 35.2332 133.564 36.5374 133.564 37.9287C133.564 38.7112 133.391 38.8852 132.651 38.8852C132.282 38.9069 131.912 38.9286 131.565 38.9286C130.912 38.9286 130.695 38.7112 130.695 38.0808C130.673 36.6896 130.652 35.3636 130.695 33.9723C130.717 33.3419 130.521 32.7768 130.13 32.2768C129.412 31.3203 128.76 30.3421 128.065 29.3421C127.456 28.4726 126.804 27.6248 126.195 26.777C125.978 26.4727 125.695 26.1901 125.543 25.7988C125.413 25.4945 125.5 25.2771 125.804 25.125C125.956 25.0815 126.065 24.9945 126.195 24.9945C126.782 24.9945 127.369 24.9728 127.956 25.0163C128.347 25.038 128.673 25.2336 128.934 25.6032C129.739 26.8205 130.521 27.9726 131.304 29.1248C131.608 29.5595 131.934 29.9943 132.282 30.4508Z" fill="#F1F1F1"/>
<path d="M114.514 34.668L114.492 32.0159V26.5162C114.492 26.2119 114.514 25.9075 114.557 25.6032C114.644 25.125 114.753 25.038 115.275 24.9728C115.427 24.9728 115.557 24.9511 115.688 24.9511C117.166 25.0163 118.557 24.9945 120.035 24.9511C121.601 24.9293 123.057 24.9511 124.622 24.9511C124.948 24.9511 125.426 25.1032 125.426 25.4945C125.492 25.9945 125.513 26.5162 125.426 27.0162C125.383 27.3423 125.209 27.5162 124.883 27.5379C123.97 27.5596 123.079 27.6031 122.144 27.5379C121.579 27.4944 120.97 27.5379 120.383 27.5379C119.579 27.5814 118.796 27.4944 117.97 27.5379C117.362 27.5814 117.318 27.6248 117.318 28.2335C117.362 28.7987 117.34 29.3204 117.34 29.8856C117.383 30.2334 117.557 30.4073 117.862 30.4073C118.427 30.4508 118.97 30.4073 119.535 30.4073H123.427C123.774 30.4073 124.122 30.4508 124.426 30.4725C124.774 30.516 124.97 30.7117 124.97 31.016C125.013 31.4507 125.035 31.9072 124.992 32.342C124.992 32.6681 124.644 32.9724 124.318 32.9724C122.47 33.0376 120.666 33.0159 118.796 33.0159C118.449 33.0159 118.101 32.9724 117.709 32.9724C117.492 32.9724 117.383 33.1028 117.383 33.342C117.34 33.8637 117.296 34.4071 117.383 34.9288C117.449 35.2332 117.383 35.4723 117.34 35.7549C117.318 36.1679 117.427 36.2983 117.862 36.3418C118.014 36.3418 118.144 36.3636 118.275 36.3636C120.188 36.3418 122.122 36.3636 124.035 36.3418C124.426 36.3418 124.774 36.3201 125.122 36.3636C125.6 36.407 125.839 36.6461 125.796 37.1244C125.774 37.4939 125.753 37.82 125.774 38.1896C125.818 38.6243 125.6 38.8417 125.122 38.8852C124.926 38.9286 124.753 38.9069 124.557 38.9069C123.6 38.9069 122.622 38.8852 121.644 38.8852H116.883H115.47C115.057 38.8852 114.536 38.7547 114.536 38.2548C114.536 37.0374 114.514 35.8853 114.514 34.668Z" fill="#F1F1F1"/>
<path d="M110.289 33.9072H110.267C109.376 33.9072 108.55 33.9507 107.702 33.9072C107.441 33.9072 107.18 33.9289 106.876 33.8637C106.55 33.8202 106.376 33.6463 106.354 33.3203C106.332 32.842 106.332 32.3855 106.354 31.9073C106.419 31.516 106.593 31.4291 106.984 31.3638C107.137 31.3638 107.267 31.3421 107.419 31.3421C109.093 31.3421 110.723 31.3204 112.397 31.3204C112.897 31.3204 113.071 31.4291 113.136 31.9073C113.18 32.2986 113.202 32.6899 113.202 33.0811C113.202 34.1028 113.158 35.168 113.202 36.1679C113.202 36.7331 112.962 37.1462 112.506 37.407C110.441 38.6461 109.137 39.1461 106.767 39.1461C105.463 39.1461 104.311 38.8417 103.093 38.2548C101.702 37.6027 100.702 36.5592 100.093 35.1245C99.3326 33.3855 99.2892 31.6464 99.7457 29.8204C100.05 28.6466 101.028 26.9075 102.115 26.1902C103.593 25.1902 105.158 24.8207 106.919 24.8207C109.289 24.8207 111.615 25.6467 112.528 27.951C112.615 28.2118 112.854 28.3857 112.897 28.6901C112.984 29.2118 112.897 29.5378 112.397 29.6683C111.962 29.8204 111.549 29.9291 111.115 30.0378C110.723 30.1248 110.419 29.9726 110.245 29.5596C110.115 29.2987 110.006 29.0379 109.876 28.7335C109.484 27.7118 107.68 27.2988 106.68 27.2988C105.115 27.2988 103.659 27.9944 102.963 29.3857C102.398 30.603 102.267 31.7334 102.441 33.0377C102.811 35.3854 104.637 36.5592 106.854 36.5592C107.702 36.5592 108.506 36.4071 109.267 36.081C109.506 35.994 109.702 35.8636 109.941 35.7332C110.202 35.6028 110.354 35.3854 110.354 35.0593C110.354 34.6898 110.419 34.342 110.289 33.9072Z" fill="#F1F1F1"/>
<path d="M90.9401 27.3857L90.9184 27.4075C90.3532 27.4292 89.5271 27.4509 88.6794 27.4727C88.5055 27.4944 88.3968 27.5814 88.3968 27.7335C88.3968 28.5596 88.4185 29.3856 88.4402 30.2334C88.4402 30.5377 88.5272 30.6464 88.8315 30.6464C89.0706 30.6464 89.3532 30.6247 89.5706 30.6247C89.9619 30.5812 90.3097 30.5812 90.6575 30.5812C90.8966 30.5812 91.0923 30.5595 91.3314 30.6247C91.9618 30.7116 92.5487 30.5595 93.1574 30.5377C93.3313 30.5377 93.4835 30.4508 93.6356 30.4073C94.1791 30.103 94.5704 29.7334 94.6356 29.0813C94.6573 28.3857 94.266 27.864 93.5704 27.6466C93.3965 27.5814 93.2009 27.5596 93.0052 27.5162C92.3966 27.364 91.7662 27.4509 90.9401 27.3857ZM88.4185 35.1245V37.5374C88.4185 37.8417 88.4402 38.1243 88.3098 38.4287C88.2011 38.6678 88.0707 38.7982 87.8098 38.7982C87.2447 38.7982 86.7229 38.8417 86.136 38.7982C85.7665 38.7982 85.5708 38.6243 85.5708 38.233C85.5708 37.8635 85.6578 37.4939 85.5926 37.1461C85.5056 36.1896 85.5056 35.2114 85.5926 34.255C85.6578 33.6245 85.5708 31.7768 85.5708 31.4507V25.951C85.5708 25.4945 85.5926 25.0815 86.1577 24.9945C86.3751 24.9728 86.549 24.9293 86.7229 24.9511C87.049 25.0163 87.3751 24.9945 87.6794 24.9945C88.462 24.9945 89.2446 24.9293 90.0271 24.9293C90.3532 24.9293 90.6793 24.9293 90.9836 24.9728C91.3966 25.038 91.8314 24.9293 92.2227 24.9293C93.0487 24.9728 93.8313 25.0163 94.6139 25.2119C96.3746 25.6249 97.7007 27.3205 97.5268 29.3204C97.3529 31.1464 96.4833 31.8638 94.9617 32.6029C94.7878 32.7115 94.766 32.842 94.8965 32.9941C96.2442 34.4723 97.2224 36.0809 98.3093 37.6461C98.5484 37.9722 98.7441 38.2548 98.6137 38.646C98.5702 38.8199 98.4832 38.9069 98.3311 38.9069C97.9615 38.9504 97.6354 38.7982 97.2442 38.8417C96.8746 38.8852 96.5051 38.8634 96.1138 38.8634C95.8095 38.8634 95.5921 38.7765 95.4182 38.5591C95.0269 38.0156 94.6791 37.4722 94.2878 36.907C93.5922 35.9505 92.9835 34.994 92.2227 34.0593C91.7879 33.5159 91.1792 33.1246 90.4184 33.2115H90.3097C90.0054 33.2115 89.7663 33.1028 89.4619 33.1028C89.2663 33.1028 89.0489 33.1028 88.8315 33.1246C88.5272 33.168 88.4402 33.255 88.3968 33.6028C88.3968 34.1028 88.4185 34.6245 88.4185 35.1245Z" fill="#F1F1F1"/>
<path d="M73.5198 34.668L73.498 32.0159V26.5162C73.498 26.2119 73.5198 25.9075 73.5633 25.6032C73.6502 25.125 73.7589 25.038 74.2806 24.9728C74.4328 24.9728 74.5632 24.9511 74.6936 24.9511C76.1718 25.0163 77.5631 24.9945 79.0413 24.9511C80.6064 24.9293 82.0628 24.9511 83.628 24.9511C83.9541 24.9511 84.4323 25.1032 84.4323 25.4945C84.4975 25.9945 84.5192 26.5162 84.4323 27.0162C84.3888 27.3423 84.2149 27.5162 83.8888 27.5379C82.9758 27.5596 82.0846 27.6031 81.1498 27.5379C80.5847 27.4944 79.976 27.5379 79.3891 27.5379C78.5848 27.5814 77.8022 27.4944 76.9761 27.5379C76.3675 27.5814 76.324 27.6248 76.324 28.2335C76.3675 28.7987 76.3457 29.3204 76.3457 29.8856C76.3892 30.2334 76.5631 30.4073 76.8674 30.4073C77.4326 30.4508 77.9761 30.4073 78.5413 30.4073H82.4324C82.7802 30.4073 83.128 30.4508 83.4323 30.4725C83.7802 30.516 83.9758 30.7117 83.9758 31.016C84.0193 31.4507 84.041 31.9072 83.9975 32.342C83.9975 32.6681 83.6497 32.9724 83.3237 32.9724C81.4759 33.0376 79.6717 33.0159 77.8022 33.0159C77.4544 33.0159 77.1066 32.9724 76.7153 32.9724C76.4979 32.9724 76.3892 33.1028 76.3892 33.342C76.3457 33.8637 76.3023 34.4071 76.3892 34.9288C76.4544 35.2332 76.3892 35.4723 76.3457 35.7549C76.324 36.1679 76.4327 36.2983 76.8674 36.3418C77.0196 36.3418 77.15 36.3636 77.2805 36.3636C79.1934 36.3418 81.1281 36.3636 83.0411 36.3418C83.4323 36.3418 83.7802 36.3201 84.128 36.3636C84.6062 36.407 84.8453 36.6461 84.8018 37.1244C84.7801 37.4939 84.7584 37.82 84.7801 38.1896C84.8236 38.6243 84.6062 38.8417 84.128 38.8852C83.9323 38.9286 83.7584 38.9069 83.5628 38.9069C82.6063 38.9069 81.6281 38.8852 80.6499 38.8852H75.8892H74.4763C74.0632 38.8852 73.5415 38.7547 73.5415 38.2548C73.5415 37.0374 73.5198 35.8853 73.5198 34.668Z" fill="#F1F1F1"/>
<path d="M66.5528 38.8852C65.3354 38.9504 64.292 38.733 63.2921 38.32C61.7704 37.7548 60.9009 36.6679 60.4444 35.1462C60.3574 34.7984 60.3574 34.4289 60.3574 34.0811C60.3574 33.7767 60.5531 33.6028 60.8791 33.5376C61.3139 33.4941 61.7704 33.4724 62.2052 33.3855C62.2486 33.3855 62.2921 33.3637 62.3573 33.3637C62.7051 33.3637 62.966 33.6246 63.0964 33.9724C63.0964 34.0376 63.1182 34.1028 63.1182 34.1463C63.466 35.8853 65.1615 36.3418 66.7049 36.3418C67.444 36.3418 67.9223 36.1679 68.6179 35.9288C69.1831 35.7114 69.3352 35.2332 69.4657 34.668C69.4657 34.581 69.4439 34.4506 69.3787 34.2767C69.0526 33.6463 68.444 33.4289 67.8136 33.255C66.9658 33.0376 66.1397 32.8855 65.3137 32.6464C63.2703 32.1464 61.8139 31.7116 60.9661 29.5813C60.8139 29.277 60.7922 28.9291 60.8357 28.6031C61.0096 25.625 63.6399 24.6033 66.2919 24.6033C68.5092 24.6033 70.683 25.3206 71.6177 27.5162C71.7916 27.9292 71.7699 28.364 71.8351 28.7552C71.8786 29.1031 71.6177 29.4074 71.2699 29.4509C70.7047 29.5161 70.2048 29.5596 69.6831 29.5596C69.4222 29.603 69.1613 29.4726 69.1179 29.1683C69.0526 29.0378 69.0309 28.8422 68.9874 28.69C68.6396 27.5162 67.3788 27.1249 66.2919 27.1249C65.5093 27.1249 64.7485 27.2336 64.0964 27.6683C63.5094 28.1031 63.4877 28.8639 64.0746 29.2987C64.2051 29.4509 64.4224 29.5378 64.5963 29.5813C65.6832 29.9074 66.7919 30.1247 67.9005 30.3856C68.9657 30.6247 70.0091 30.9943 70.9221 31.7334C72.3134 32.8637 72.6394 34.7549 71.7699 36.3853C71.0308 37.7548 69.9874 38.2983 68.5527 38.6678C67.8788 38.8417 67.1832 38.9504 66.5528 38.8852Z" fill="#F1F1F1"/>
</svg>
