<svg width="198" height="84" viewBox="0 0 198 84" fill="none" xmlns="http://www.w3.org/2000/svg">
<path d="M126.432 55.8851C125.214 55.9503 124.171 55.7329 123.171 55.3199C121.649 54.7547 120.78 53.6678 120.323 52.1461C120.236 51.7983 120.236 51.4288 120.236 51.0809C120.236 50.7766 120.432 50.6027 120.758 50.5375C121.193 50.494 121.649 50.4723 122.084 50.3853C122.128 50.3853 122.171 50.3636 122.236 50.3636C122.584 50.3636 122.845 50.6244 122.975 50.9723C122.975 51.0375 122.997 51.1027 122.997 51.1462C123.345 52.8852 125.04 53.3417 126.584 53.3417C127.323 53.3417 127.801 53.1678 128.497 52.9287C129.062 52.7113 129.214 52.2331 129.345 51.6679C129.345 51.5809 129.323 51.4505 129.258 51.2766C128.932 50.6462 128.323 50.4288 127.692 50.2549C126.845 50.0375 126.019 49.8854 125.193 49.6462C123.149 49.1463 121.693 48.7115 120.845 46.5812C120.693 46.2768 120.671 45.929 120.715 45.603C120.888 42.6248 123.519 41.6031 126.171 41.6031C128.388 41.6031 130.562 42.3205 131.497 44.5161C131.671 44.9291 131.649 45.3638 131.714 45.7551C131.758 46.1029 131.497 46.4073 131.149 46.4507C130.584 46.516 130.084 46.5594 129.562 46.5594C129.301 46.6029 129.04 46.4725 128.997 46.1681C128.932 46.0377 128.91 45.8421 128.866 45.6899C128.519 44.5161 127.258 44.1248 126.171 44.1248C125.388 44.1248 124.627 44.2335 123.975 44.6682C123.388 45.103 123.367 45.8638 123.954 46.2986C124.084 46.4507 124.301 46.5377 124.475 46.5812C125.562 46.9072 126.671 47.1246 127.779 47.3855C128.845 47.6246 129.888 47.9941 130.801 48.7332C132.192 49.8636 132.518 51.7548 131.649 53.3852C130.91 54.7547 129.866 55.2981 128.432 55.6677C127.758 55.8416 127.062 55.9503 126.432 55.8851Z" fill="#F1F1F1"/>
<path d="M111.758 44.3856L111.737 44.4073C111.172 44.4291 110.346 44.4508 109.498 44.4726C109.324 44.4943 109.215 44.5812 109.215 44.7334C109.215 45.5595 109.237 46.3855 109.259 47.2333C109.259 47.5376 109.346 47.6463 109.65 47.6463C109.889 47.6463 110.172 47.6246 110.389 47.6246C110.78 47.5811 111.128 47.5811 111.476 47.5811C111.715 47.5811 111.911 47.5594 112.15 47.6246C112.78 47.7115 113.367 47.5594 113.976 47.5376C114.15 47.5376 114.302 47.4507 114.454 47.4072C114.997 47.1029 115.389 46.7333 115.454 46.0812C115.476 45.3856 115.084 44.8638 114.389 44.6465C114.215 44.5812 114.019 44.5595 113.824 44.516C113.215 44.3639 112.585 44.4508 111.758 44.3856ZM109.237 52.1244V54.5373C109.237 54.8416 109.259 55.1242 109.128 55.4285C109.019 55.6677 108.889 55.7981 108.628 55.7981C108.063 55.7981 107.541 55.8416 106.954 55.7981C106.585 55.7981 106.389 55.6242 106.389 55.2329C106.389 54.8633 106.476 54.4938 106.411 54.146C106.324 53.1895 106.324 52.2113 106.411 51.2548C106.476 50.6244 106.389 48.7767 106.389 48.4506V42.9509C106.389 42.4944 106.411 42.0814 106.976 41.9944C107.193 41.9727 107.367 41.9292 107.541 41.9509C107.867 42.0162 108.193 41.9944 108.498 41.9944C109.28 41.9944 110.063 41.9292 110.845 41.9292C111.172 41.9292 111.498 41.9292 111.802 41.9727C112.215 42.0379 112.65 41.9292 113.041 41.9292C113.867 41.9727 114.65 42.0161 115.432 42.2118C117.193 42.6248 118.519 44.3204 118.345 46.3203C118.171 48.1463 117.302 48.8636 115.78 49.6027C115.606 49.7114 115.584 49.8419 115.715 49.994C117.063 51.4722 118.041 53.0808 119.128 54.646C119.367 54.972 119.562 55.2546 119.432 55.6459C119.389 55.8198 119.302 55.9068 119.149 55.9068C118.78 55.9503 118.454 55.7981 118.063 55.8416C117.693 55.885 117.323 55.8633 116.932 55.8633C116.628 55.8633 116.41 55.7763 116.237 55.559C115.845 55.0155 115.497 54.4721 115.106 53.9069C114.411 52.9504 113.802 51.9939 113.041 51.0592C112.606 50.5157 111.998 50.1245 111.237 50.2114H111.128C110.824 50.2114 110.585 50.1027 110.28 50.1027C110.085 50.1027 109.867 50.1027 109.65 50.1245C109.346 50.1679 109.259 50.2549 109.215 50.6027C109.215 51.1027 109.237 51.6244 109.237 52.1244Z" fill="#F1F1F1"/>
<path d="M94.3381 51.6679L94.3164 49.0158V43.5161C94.3164 43.2118 94.3381 42.9074 94.3816 42.6031C94.4686 42.1249 94.5773 42.0379 95.099 41.9727C95.2511 41.9727 95.3816 41.9509 95.512 41.9509C96.9902 42.0162 98.3814 41.9944 99.8596 41.9509C101.425 41.9292 102.881 41.9509 104.446 41.9509C104.772 41.9509 105.251 42.1031 105.251 42.4944C105.316 42.9944 105.338 43.5161 105.251 44.0161C105.207 44.3421 105.033 44.516 104.707 44.5378C103.794 44.5595 102.903 44.603 101.968 44.5378C101.403 44.4943 100.794 44.5378 100.207 44.5378C99.4031 44.5813 98.6205 44.4943 97.7945 44.5378C97.1858 44.5813 97.1424 44.6247 97.1424 45.2334C97.1858 45.7986 97.1641 46.3203 97.1641 46.8855C97.2076 47.2333 97.3815 47.4072 97.6858 47.4072C98.251 47.4507 98.7944 47.4072 99.3596 47.4072H103.251C103.599 47.4072 103.946 47.4507 104.251 47.4724C104.599 47.5159 104.794 47.7115 104.794 48.0159C104.838 48.4506 104.859 48.9071 104.816 49.3419C104.816 49.668 104.468 49.9723 104.142 49.9723C102.294 50.0375 100.49 50.0158 98.6205 50.0158C98.2727 50.0158 97.9249 49.9723 97.5336 49.9723C97.3163 49.9723 97.2076 50.1027 97.2076 50.3418C97.1641 50.8636 97.1206 51.407 97.2076 51.9287C97.2728 52.2331 97.2076 52.4722 97.1641 52.7548C97.1424 53.1678 97.251 53.2982 97.6858 53.3417C97.838 53.3417 97.9684 53.3634 98.0988 53.3634C100.012 53.3417 101.946 53.3634 103.859 53.3417C104.251 53.3417 104.599 53.32 104.946 53.3634C105.425 53.4069 105.664 53.646 105.62 54.1243C105.598 54.4938 105.577 54.8199 105.598 55.1894C105.642 55.6242 105.425 55.8416 104.946 55.885C104.751 55.9285 104.577 55.9068 104.381 55.9068C103.425 55.9068 102.446 55.885 101.468 55.885H96.7076H95.2946C94.8816 55.885 94.3599 55.7546 94.3599 55.2546C94.3599 54.0373 94.3381 52.8852 94.3381 51.6679Z" fill="#F1F1F1"/>
<path d="M87.0494 47.4507L87.0277 47.4724C87.2451 47.2333 87.419 47.0159 87.5494 46.7985C88.0277 46.1246 88.5059 45.4942 88.9624 44.8421C89.4624 44.0813 89.9841 43.3639 90.4406 42.6031C90.6797 42.2118 91.0275 42.0379 91.4623 41.9944C91.984 41.9727 92.5274 41.9509 93.0492 41.9509C93.2231 41.9509 93.397 42.0161 93.5274 42.1031C93.7882 42.2987 93.8317 42.5379 93.6578 42.8204C93.5057 43.1248 93.31 43.4291 93.0492 43.7117C92.1579 44.8421 91.3318 45.9725 90.4841 47.1898C89.9189 48.0376 89.245 48.7984 88.6581 49.6679C88.4407 50.0375 88.3103 50.4288 88.3103 50.8418C88.3537 52.233 88.332 53.5373 88.332 54.9286C88.332 55.7111 88.1581 55.885 87.419 55.885C87.0494 55.9068 86.6799 55.9285 86.3321 55.9285C85.6799 55.9285 85.4626 55.7111 85.4626 55.0807C85.4408 53.6895 85.4191 52.3635 85.4626 50.9722C85.4843 50.3418 85.2887 49.7766 84.8974 49.2767C84.18 48.3202 83.5279 47.342 82.8323 46.342C82.2236 45.4725 81.5715 44.6247 80.9628 43.7769C80.7454 43.4726 80.4628 43.19 80.3106 42.7987C80.1802 42.4944 80.2672 42.277 80.5715 42.1248C80.7237 42.0814 80.8324 41.9944 80.9628 41.9944C81.5497 41.9944 82.1366 41.9727 82.7236 42.0161C83.1149 42.0379 83.4409 42.2335 83.7018 42.6031C84.5061 43.8204 85.2887 44.9725 86.0712 46.1246C86.3756 46.5594 86.7016 46.9942 87.0494 47.4507Z" fill="#F1F1F1"/>
<path d="M72.9135 51.2765H72.8917C73.1091 50.8418 73.3047 50.4288 73.4352 49.994C73.8265 48.7767 74.2612 47.668 74.696 46.4507C75.1959 45.1464 75.6307 43.9291 76.1089 42.6248C76.2829 42.1466 76.4133 42.0813 76.8915 42.0379C77.4567 42.0161 78.0002 41.9944 78.5436 41.9944C78.6958 41.9944 78.8262 41.9944 78.9566 41.9944C79.4131 42.0596 79.6523 42.3205 79.6957 42.777C79.7392 43.3639 79.7175 43.9508 79.7175 44.5377C79.7175 46.9072 79.7175 49.2549 79.674 51.6243C79.674 52.646 79.6957 53.6677 79.6523 54.7112C79.6523 54.8416 79.6957 54.9285 79.6523 55.0372C79.5653 55.8198 79.2392 55.8633 78.5653 55.8633C78.261 55.8633 77.8915 55.9067 77.5654 55.9067C77.1306 55.885 76.8915 55.6459 76.848 55.1894C76.848 54.6242 76.7394 54.0373 77.0002 53.4721C77.0872 53.3634 77.0872 53.233 77.0002 53.0591C76.8046 52.5808 76.8263 52.0156 76.8698 51.4939C76.935 50.9505 76.848 50.4288 76.848 49.8853C76.8915 49.494 76.848 49.1679 76.848 48.8201C76.848 48.6028 76.9785 48.4071 76.848 48.2332C76.7611 48.0593 76.6524 48.2115 76.5872 48.3419C76.4133 48.6462 76.3915 49.0158 76.2394 49.3636C75.8481 50.4505 75.3264 51.5591 74.9351 52.6895C74.6525 53.646 74.2177 54.5373 73.9134 55.4937C73.8482 55.7763 73.6743 55.9285 73.37 55.9285C72.9135 55.9285 72.457 55.885 71.957 55.885C71.5657 55.885 71.37 55.6459 71.2179 55.3416C71.0875 55.0372 71.0222 54.7546 70.8918 54.472C70.2831 52.7765 69.6962 51.1244 69.0876 49.4505C68.9571 48.9723 68.7615 48.5593 68.5876 48.1245C68.5658 48.0376 68.5224 48.0158 68.4571 48.0376C68.4354 48.0593 68.3919 48.1463 68.3485 48.4941C68.305 48.9723 68.3267 49.7984 68.3267 50.2331C68.305 51.9069 68.3485 53.5373 68.305 55.2329C68.305 55.7546 68.1746 55.885 67.6746 55.885C67.1529 55.9067 66.6094 55.885 66.0877 55.8415C65.7616 55.8415 65.5877 55.6676 65.5442 55.3198C65.5225 54.8416 65.479 54.3851 65.5225 53.9068C65.6095 53.0591 65.5442 52.2548 65.5442 51.4287V42.9291C65.5442 42.19 65.6529 42.0813 66.3486 42.0813C67.1094 42.0379 67.8702 42.0596 68.6093 42.0596C69.0223 42.0596 69.2397 42.19 69.3701 42.6683C69.6093 43.3856 69.8919 44.0812 70.1527 44.7769C70.7396 46.3637 71.3048 47.9506 71.8918 49.5375C72.0657 50.0375 72.1961 50.494 72.37 50.9505C72.4135 51.1026 72.4135 51.1896 72.4787 51.2983C72.5439 51.4287 72.6091 51.4939 72.6743 51.4939C72.783 51.4939 72.87 51.3418 72.9135 51.2765Z" fill="#F1F1F1"/>
<path d="M117.172 30.2116H117.15C117.02 30.1899 117.041 30.4725 116.998 30.5811C116.954 30.8855 117.02 31.1463 116.976 31.3637C116.954 32.3637 117.02 33.2984 117.02 34.2766C117.063 34.9505 116.998 35.6244 116.954 36.2765C116.933 36.7982 116.954 37.3199 116.998 37.8634C117.063 38.2547 117.02 38.5808 116.607 38.7981C116.563 38.8416 116.476 38.9068 116.389 38.9068C115.846 38.8199 115.302 38.9938 114.737 38.8416C114.368 38.7547 114.281 38.646 114.215 38.2982C114.194 37.9938 114.194 37.6243 114.194 37.2982C114.172 35.2114 114.172 33.2115 114.172 31.1246V25.864C114.172 25.2336 114.368 25.0597 114.933 25.0162H116.346C116.693 25.0162 116.933 25.1684 117.107 25.4292C117.867 26.4727 118.628 27.4943 119.367 28.5378C120.389 29.9725 121.367 31.4072 122.367 32.8202C122.541 33.0593 122.737 33.2767 122.932 33.494C123.258 33.8201 123.237 33.5593 123.237 33.4506C123.28 33.0375 123.215 32.6463 123.215 32.2332C123.193 31.255 123.171 30.3203 123.215 29.3421C123.28 28.2117 123.237 27.0596 123.171 25.9292C123.171 25.6249 123.28 25.451 123.411 25.2336C123.498 25.0814 123.693 24.9945 123.824 24.9945C125.193 24.9945 125.019 24.8858 125.541 25.0814C125.802 25.1684 125.932 25.3205 125.976 25.5379C126.041 25.8205 126.106 26.0379 126.084 26.277C125.997 26.9726 125.997 27.6682 126.041 28.3639C126.084 29.6681 125.976 30.842 126.041 32.1028C126.084 33.081 126.041 34.0375 126.041 35.0157C126.041 36.0591 126.019 37.1243 126.063 38.1677C126.063 38.5155 125.758 38.8199 125.454 38.8416C124.954 38.8851 124.432 38.8634 123.954 38.8634C123.563 38.8634 123.237 38.7112 122.998 38.3634C122.15 37.0591 121.258 35.8852 120.389 34.6679C119.432 33.2767 118.498 31.9941 117.541 30.6464C117.454 30.5159 117.259 30.2116 117.172 30.2116Z" fill="#F1F1F1"/>
<path d="M109.68 37.9939L109.658 35.0375C109.702 33.6462 109.702 32.6028 109.658 31.4942C109.637 29.6464 109.702 27.8204 109.637 25.9727C109.637 25.8205 109.637 25.6249 109.68 25.4727C109.832 25.1901 110.006 24.9945 110.311 25.0162C110.811 25.0162 111.267 24.9728 111.767 24.9945C112.31 25.0597 112.463 25.2119 112.528 25.7988C112.571 26.2553 112.593 26.6683 112.55 27.1248C112.484 28.0596 112.528 29.016 112.528 29.9508C112.528 31.6029 112.571 33.2115 112.528 34.8636C112.484 35.7548 112.55 36.6244 112.55 37.5156C112.55 37.7547 112.441 37.9939 112.484 38.2547C112.506 38.6677 112.267 38.8851 111.897 38.9069C111.311 38.9069 110.767 38.9286 110.224 38.8634C109.876 38.8416 109.724 38.6677 109.68 38.3199V37.9939Z" fill="#F1F1F1"/>
<path d="M99.9631 38.1243L99.9414 32.8854C99.9414 31.3855 99.9849 29.8856 99.9414 28.3639C99.9414 27.4509 99.9414 26.4944 99.9631 25.538C100.007 25.2119 100.181 25.038 100.485 25.0162C101.072 24.9728 101.659 24.9728 102.246 24.9945C102.811 24.9945 102.833 25.5814 102.833 26.0162V35.7114V35.9505C102.854 36.1679 102.963 36.2766 103.159 36.2766C103.398 36.2766 103.593 36.32 103.833 36.2766C104.919 36.2766 106.05 36.2548 107.158 36.3635C107.55 36.4287 107.984 36.2331 108.419 36.2766C108.55 36.32 108.745 36.2548 108.919 36.2766C109.311 36.3418 109.528 36.5809 109.571 37.0157C109.593 37.3635 109.571 37.733 109.571 38.1026C109.593 38.6025 109.311 38.7982 108.854 38.8417C108.202 38.9286 107.593 38.9503 107.028 38.8851C106.267 38.8417 105.485 38.8634 104.702 38.8634C103.528 38.8634 102.441 38.9069 101.224 38.8199C101.072 38.8199 100.963 38.8634 100.833 38.8851C100.311 38.9503 99.9631 38.646 99.9631 38.1243Z" fill="#F1F1F1"/>
<path d="M87.6144 33.168C87.9622 35.32 89.8099 36.3635 91.875 36.3635C92.2229 36.3635 92.5707 36.2982 92.9837 36.1678C94.4619 35.7765 95.1792 34.7766 95.5923 33.3853C95.8531 32.4289 95.8749 31.4289 95.6575 30.429C95.3097 28.6899 94.3749 27.5378 92.4402 27.1465C92.2229 27.103 92.0707 27.103 91.875 27.103C91.3751 27.103 90.9403 27.2117 90.4621 27.2552C89.0708 27.4943 88.0491 28.7117 87.7013 30.0377C87.4622 31.1246 87.397 32.168 87.6144 33.168ZM84.5711 31.9724C84.5711 30.3203 84.9189 29.016 85.5927 27.7552C85.8101 27.3639 86.0275 26.9726 86.4188 26.7118C86.7666 26.4944 86.9405 26.1031 87.3318 25.8857C87.6796 25.7118 88.0057 25.5379 88.3317 25.2988C89.0274 24.7771 90.7881 24.5814 91.6577 24.5814C93.9619 24.5814 96.3531 25.5814 97.5922 27.6248C98.5704 29.2768 98.8312 31.0159 98.6138 32.9288C98.5486 33.494 98.3965 33.9505 98.2878 34.4722C98.1573 34.9722 97.8748 35.4287 97.5922 35.8852C96.2879 37.7982 94.2662 38.9068 91.9837 38.9068C91.2881 38.9068 90.5273 38.8633 89.8751 38.7112C87.7666 38.2329 86.2231 37.0156 85.2667 35.0592C84.745 34.0157 84.5058 32.9071 84.5711 31.9724Z" fill="#F1F1F1"/>
<path d="M70.8644 31.9289C70.821 31.0376 70.9079 30.1464 71.2122 29.2986C72.2557 26.1683 74.886 24.8206 78.0597 24.8206H78.3206C81.0378 25.0597 82.7551 26.2987 83.6899 28.8421C83.7986 29.103 83.7334 29.2769 83.516 29.4073C83.1899 29.5812 82.8421 29.7116 82.4943 29.7551C82.1682 29.8203 81.7987 29.9073 81.4509 29.9073C81.2117 29.9073 81.0596 29.842 80.9292 29.5377C80.7987 29.3421 80.7335 29.1682 80.6466 28.9508C80.0814 27.7335 78.951 27.277 77.7119 27.277C76.1685 27.277 74.7555 28.0378 74.1904 29.4508C73.7556 30.4942 73.6252 31.5811 73.7991 32.7115C73.8208 32.9506 73.8425 33.2332 73.9078 33.4506C74.1251 35.2114 75.6033 36.6678 77.3858 36.6678C77.6684 36.6678 77.9076 36.6461 78.2119 36.5809C78.5597 36.4939 78.9292 36.4722 79.2553 36.32C80.4292 35.7983 80.69 35.0374 81.0596 33.8853C81.1683 33.5593 81.3639 33.4071 81.6465 33.4288C81.8204 33.4288 81.9726 33.4723 82.1465 33.5158C82.516 33.581 82.8856 33.6462 83.2986 33.7549C83.8638 33.9071 83.9942 34.1462 83.8638 34.7114C83.7334 35.0374 83.6899 35.3635 83.4725 35.6461C83.3421 35.7983 83.2769 35.9722 83.1899 36.1461C82.7552 37.1678 81.9943 37.7547 81.0813 38.3199C79.9727 39.0155 78.7553 39.1459 77.5163 39.1459C74.9947 39.1459 72.9513 38.1025 71.734 35.8418C71.6035 35.6244 71.4948 35.3853 71.4514 35.0809C71.3861 34.8201 71.3644 34.6027 71.2557 34.3636C70.8427 33.581 70.7992 32.7767 70.8644 31.9289Z" fill="#F1F1F1"/>
</svg>
