<svg width="498" height="220" viewBox="0 0 498 220" fill="none" xmlns="http://www.w3.org/2000/svg">
<rect width="61.3333" height="35" transform="translate(189 16)" fill="#F2F2F2"/>
<path d="M208.557 31.0653C208.512 30.6619 208.324 30.3494 207.995 30.1278C207.665 29.9034 207.25 29.7912 206.75 29.7912C206.393 29.7912 206.083 29.848 205.822 29.9616C205.56 30.0724 205.357 30.2259 205.212 30.4219C205.07 30.6151 204.999 30.8352 204.999 31.0824C204.999 31.2898 205.047 31.4687 205.144 31.6193C205.243 31.7699 205.373 31.8963 205.532 31.9986C205.694 32.098 205.867 32.1818 206.052 32.25C206.236 32.3153 206.414 32.3693 206.584 32.4119L207.437 32.6335C207.715 32.7017 208 32.794 208.293 32.9105C208.586 33.027 208.857 33.1804 209.107 33.3707C209.357 33.5611 209.559 33.7969 209.712 34.0781C209.868 34.3594 209.947 34.696 209.947 35.0881C209.947 35.5824 209.819 36.0213 209.563 36.4048C209.31 36.7884 208.942 37.0909 208.459 37.3125C207.979 37.5341 207.398 37.6449 206.716 37.6449C206.063 37.6449 205.498 37.5412 205.02 37.3338C204.543 37.1264 204.17 36.8324 203.9 36.4517C203.63 36.0682 203.481 35.6136 203.452 35.0881H204.773C204.799 35.4034 204.901 35.6662 205.08 35.8764C205.262 36.0838 205.493 36.2386 205.775 36.3409C206.059 36.4403 206.37 36.4901 206.708 36.4901C207.08 36.4901 207.411 36.4318 207.701 36.3153C207.993 36.196 208.223 36.0312 208.391 35.821C208.559 35.608 208.643 35.3594 208.643 35.0753C208.643 34.8168 208.569 34.6051 208.421 34.4403C208.276 34.2756 208.079 34.1392 207.829 34.0312C207.581 33.9233 207.302 33.8281 206.989 33.7457L205.958 33.4645C205.259 33.2741 204.705 32.9943 204.296 32.625C203.89 32.2557 203.687 31.767 203.687 31.1591C203.687 30.6562 203.823 30.2173 204.096 29.8423C204.368 29.4673 204.738 29.1761 205.204 28.9688C205.67 28.7585 206.195 28.6534 206.78 28.6534C207.371 28.6534 207.893 28.7571 208.344 28.9645C208.799 29.1719 209.157 29.4574 209.418 29.821C209.679 30.1818 209.816 30.5966 209.827 31.0653H208.557ZM212.692 33.6136V37.5H211.418V28.7727H212.675V32.0199H212.756C212.909 31.6676 213.144 31.3878 213.459 31.1804C213.774 30.973 214.186 30.8693 214.695 30.8693C215.144 30.8693 215.536 30.9616 215.871 31.1463C216.209 31.331 216.47 31.6065 216.655 31.973C216.842 32.3366 216.936 32.7912 216.936 33.3366V37.5H215.662V33.4901C215.662 33.0099 215.538 32.6378 215.291 32.3736C215.044 32.1065 214.7 31.973 214.26 31.973C213.959 31.973 213.689 32.0369 213.45 32.1648C213.215 32.2926 213.029 32.4801 212.892 32.7273C212.759 32.9716 212.692 33.267 212.692 33.6136ZM220.541 37.6449C220.127 37.6449 219.752 37.5682 219.416 37.4148C219.081 37.2585 218.815 37.0327 218.619 36.7372C218.426 36.4418 218.33 36.0795 218.33 35.6506C218.33 35.2812 218.401 34.9773 218.543 34.7386C218.685 34.5 218.877 34.3111 219.118 34.1719C219.359 34.0327 219.629 33.9276 219.928 33.8565C220.226 33.7855 220.53 33.7315 220.84 33.6946C221.232 33.6491 221.55 33.6122 221.794 33.5838C222.038 33.5526 222.216 33.5028 222.327 33.4347C222.438 33.3665 222.493 33.2557 222.493 33.1023V33.0724C222.493 32.7003 222.388 32.4119 222.178 32.2074C221.97 32.0028 221.661 31.9006 221.249 31.9006C220.82 31.9006 220.482 31.9957 220.234 32.1861C219.99 32.3736 219.821 32.5824 219.727 32.8125L218.53 32.5398C218.672 32.142 218.879 31.821 219.152 31.5767C219.428 31.3295 219.744 31.1506 220.102 31.0398C220.46 30.9261 220.837 30.8693 221.232 30.8693C221.493 30.8693 221.77 30.9006 222.063 30.9631C222.358 31.0227 222.634 31.1335 222.889 31.2955C223.148 31.4574 223.359 31.6889 223.524 31.9901C223.689 32.2884 223.771 32.6761 223.771 33.1534V37.5H222.527V36.6051H222.476C222.394 36.7699 222.27 36.9318 222.105 37.0909C221.94 37.25 221.729 37.3821 221.47 37.4872C221.212 37.5923 220.902 37.6449 220.541 37.6449ZM220.818 36.6222C221.171 36.6222 221.472 36.5526 221.722 36.4134C221.975 36.2741 222.166 36.0923 222.297 35.8679C222.431 35.6406 222.497 35.3977 222.497 35.1392V34.2955C222.452 34.3409 222.364 34.3835 222.233 34.4233C222.105 34.4602 221.959 34.4929 221.794 34.5213C221.629 34.5469 221.469 34.571 221.313 34.5938C221.156 34.6136 221.026 34.6307 220.921 34.6449C220.673 34.6761 220.448 34.7287 220.243 34.8026C220.041 34.8764 219.879 34.983 219.757 35.1222C219.638 35.2585 219.578 35.4403 219.578 35.6676C219.578 35.983 219.695 36.2216 219.928 36.3835C220.161 36.5426 220.458 36.6222 220.818 36.6222ZM225.469 37.5V30.9545H226.7V31.9943H226.768C226.888 31.642 227.098 31.3651 227.399 31.1634C227.703 30.9588 228.047 30.8565 228.43 30.8565C228.51 30.8565 228.603 30.8594 228.711 30.8651C228.822 30.8707 228.909 30.8778 228.971 30.8864V32.1051C228.92 32.0909 228.829 32.0753 228.699 32.0582C228.568 32.0384 228.437 32.0284 228.307 32.0284C228.005 32.0284 227.737 32.0923 227.501 32.2202C227.268 32.3452 227.084 32.5199 226.947 32.7443C226.811 32.9659 226.743 33.2187 226.743 33.5028V37.5H225.469ZM232.29 37.6278C231.761 37.6278 231.29 37.4929 230.875 37.223C230.463 36.9503 230.139 36.5625 229.904 36.0597C229.671 35.554 229.554 34.9474 229.554 34.2401C229.554 33.5327 229.672 32.9276 229.908 32.4247C230.146 31.9219 230.473 31.5369 230.888 31.2699C231.303 31.0028 231.773 30.8693 232.298 30.8693C232.705 30.8693 233.031 30.9375 233.279 31.0739C233.529 31.2074 233.722 31.3636 233.858 31.5426C233.997 31.7216 234.105 31.8793 234.182 32.0156H234.259V28.7727H235.533V37.5H234.288V36.4815H234.182C234.105 36.6207 233.994 36.7798 233.85 36.9588C233.708 37.1378 233.511 37.294 233.261 37.4276C233.011 37.5611 232.688 37.6278 232.29 37.6278ZM232.571 36.5412C232.938 36.5412 233.247 36.4446 233.5 36.2514C233.756 36.0554 233.949 35.7841 234.08 35.4375C234.213 35.0909 234.28 34.6875 234.28 34.2273C234.28 33.7727 234.215 33.375 234.084 33.0341C233.953 32.6932 233.761 32.4276 233.509 32.2372C233.256 32.0469 232.943 31.9517 232.571 31.9517C232.188 31.9517 231.868 32.0511 231.612 32.25C231.357 32.4489 231.163 32.7202 231.033 33.0639C230.905 33.4077 230.841 33.7955 230.841 34.2273C230.841 34.6648 230.906 35.0582 231.037 35.4077C231.168 35.7571 231.361 36.0341 231.617 36.2386C231.875 36.4403 232.193 36.5412 232.571 36.5412Z" fill="#212121"/>
<rect width="61.3333" height="35" transform="translate(266.333 16)" fill="#F2F2F2"/>
<path d="M285.891 31.0653C285.845 30.6619 285.658 30.3494 285.328 30.1278C284.999 29.9034 284.584 29.7912 284.084 29.7912C283.726 29.7912 283.416 29.848 283.155 29.9616C282.893 30.0724 282.69 30.2259 282.545 30.4219C282.403 30.6151 282.332 30.8352 282.332 31.0824C282.332 31.2898 282.381 31.4687 282.477 31.6193C282.577 31.7699 282.706 31.8963 282.865 31.9986C283.027 32.098 283.2 32.1818 283.385 32.25C283.57 32.3153 283.747 32.3693 283.918 32.4119L284.77 32.6335C285.048 32.7017 285.334 32.794 285.626 32.9105C285.919 33.027 286.19 33.1804 286.44 33.3707C286.69 33.5611 286.892 33.7969 287.045 34.0781C287.202 34.3594 287.28 34.696 287.28 35.0881C287.28 35.5824 287.152 36.0213 286.896 36.4048C286.643 36.7884 286.276 37.0909 285.793 37.3125C285.313 37.5341 284.732 37.6449 284.05 37.6449C283.396 37.6449 282.831 37.5412 282.354 37.3338C281.876 37.1264 281.503 36.8324 281.233 36.4517C280.963 36.0682 280.814 35.6136 280.786 35.0881H282.107C282.132 35.4034 282.234 35.6662 282.413 35.8764C282.595 36.0838 282.827 36.2386 283.108 36.3409C283.392 36.4403 283.703 36.4901 284.041 36.4901C284.413 36.4901 284.744 36.4318 285.034 36.3153C285.327 36.196 285.557 36.0312 285.724 35.821C285.892 35.608 285.976 35.3594 285.976 35.0753C285.976 34.8168 285.902 34.6051 285.754 34.4403C285.609 34.2756 285.412 34.1392 285.162 34.0312C284.915 33.9233 284.635 33.8281 284.322 33.7457L283.291 33.4645C282.592 33.2741 282.038 32.9943 281.629 32.625C281.223 32.2557 281.02 31.767 281.02 31.1591C281.02 30.6562 281.156 30.2173 281.429 29.8423C281.702 29.4673 282.071 29.1761 282.537 28.9688C283.003 28.7585 283.528 28.6534 284.114 28.6534C284.705 28.6534 285.226 28.7571 285.678 28.9645C286.132 29.1719 286.49 29.4574 286.751 29.821C287.013 30.1818 287.149 30.5966 287.161 31.0653H285.891ZM290.025 33.6136V37.5H288.751V28.7727H290.008V32.0199H290.089C290.243 31.6676 290.477 31.3878 290.792 31.1804C291.108 30.973 291.52 30.8693 292.028 30.8693C292.477 30.8693 292.869 30.9616 293.204 31.1463C293.542 31.331 293.804 31.6065 293.988 31.973C294.176 32.3366 294.27 32.7912 294.27 33.3366V37.5H292.995V33.4901C292.995 33.0099 292.872 32.6378 292.625 32.3736C292.377 32.1065 292.034 31.973 291.593 31.973C291.292 31.973 291.022 32.0369 290.784 32.1648C290.548 32.2926 290.362 32.4801 290.225 32.7273C290.092 32.9716 290.025 33.267 290.025 33.6136ZM297.875 37.6449C297.46 37.6449 297.085 37.5682 296.75 37.4148C296.414 37.2585 296.149 37.0327 295.953 36.7372C295.76 36.4418 295.663 36.0795 295.663 35.6506C295.663 35.2812 295.734 34.9773 295.876 34.7386C296.018 34.5 296.21 34.3111 296.451 34.1719C296.693 34.0327 296.963 33.9276 297.261 33.8565C297.559 33.7855 297.863 33.7315 298.173 33.6946C298.565 33.6491 298.883 33.6122 299.127 33.5838C299.372 33.5526 299.549 33.5028 299.66 33.4347C299.771 33.3665 299.826 33.2557 299.826 33.1023V33.0724C299.826 32.7003 299.721 32.4119 299.511 32.2074C299.304 32.0028 298.994 31.9006 298.582 31.9006C298.153 31.9006 297.815 31.9957 297.568 32.1861C297.324 32.3736 297.154 32.5824 297.061 32.8125L295.863 32.5398C296.005 32.142 296.213 31.821 296.485 31.5767C296.761 31.3295 297.078 31.1506 297.436 31.0398C297.794 30.9261 298.17 30.8693 298.565 30.8693C298.826 30.8693 299.103 30.9006 299.396 30.9631C299.691 31.0227 299.967 31.1335 300.223 31.2955C300.481 31.4574 300.693 31.6889 300.858 31.9901C301.022 32.2884 301.105 32.6761 301.105 33.1534V37.5H299.86V36.6051H299.809C299.727 36.7699 299.603 36.9318 299.439 37.0909C299.274 37.25 299.062 37.3821 298.804 37.4872C298.545 37.5923 298.235 37.6449 297.875 37.6449ZM298.152 36.6222C298.504 36.6222 298.805 36.5526 299.055 36.4134C299.308 36.2741 299.5 36.0923 299.63 35.8679C299.764 35.6406 299.831 35.3977 299.831 35.1392V34.2955C299.785 34.3409 299.697 34.3835 299.566 34.4233C299.439 34.4602 299.292 34.4929 299.127 34.5213C298.963 34.5469 298.802 34.571 298.646 34.5938C298.49 34.6136 298.359 34.6307 298.254 34.6449C298.007 34.6761 297.781 34.7287 297.576 34.8026C297.375 34.8764 297.213 34.983 297.091 35.1222C296.971 35.2585 296.912 35.4403 296.912 35.6676C296.912 35.983 297.028 36.2216 297.261 36.3835C297.494 36.5426 297.791 36.6222 298.152 36.6222ZM302.802 37.5V30.9545H304.033V31.9943H304.102C304.221 31.642 304.431 31.3651 304.732 31.1634C305.036 30.9588 305.38 30.8565 305.763 30.8565C305.843 30.8565 305.937 30.8594 306.045 30.8651C306.156 30.8707 306.242 30.8778 306.305 30.8864V32.1051C306.254 32.0909 306.163 32.0753 306.032 32.0582C305.901 32.0384 305.771 32.0284 305.64 32.0284C305.339 32.0284 305.07 32.0923 304.835 32.2202C304.602 32.3452 304.417 32.5199 304.281 32.7443C304.144 32.9659 304.076 33.2187 304.076 33.5028V37.5H302.802ZM309.623 37.6278C309.095 37.6278 308.623 37.4929 308.208 37.223C307.797 36.9503 307.473 36.5625 307.237 36.0597C307.004 35.554 306.887 34.9474 306.887 34.2401C306.887 33.5327 307.005 32.9276 307.241 32.4247C307.48 31.9219 307.806 31.5369 308.221 31.2699C308.636 31.0028 309.106 30.8693 309.632 30.8693C310.038 30.8693 310.365 30.9375 310.612 31.0739C310.862 31.2074 311.055 31.3636 311.191 31.5426C311.331 31.7216 311.439 31.8793 311.515 32.0156H311.592V28.7727H312.866V37.5H311.622V36.4815H311.515C311.439 36.6207 311.328 36.7798 311.183 36.9588C311.041 37.1378 310.845 37.294 310.595 37.4276C310.345 37.5611 310.021 37.6278 309.623 37.6278ZM309.904 36.5412C310.271 36.5412 310.581 36.4446 310.833 36.2514C311.089 36.0554 311.282 35.7841 311.413 35.4375C311.547 35.0909 311.613 34.6875 311.613 34.2273C311.613 33.7727 311.548 33.375 311.417 33.0341C311.287 32.6932 311.095 32.4276 310.842 32.2372C310.589 32.0469 310.277 31.9517 309.904 31.9517C309.521 31.9517 309.201 32.0511 308.946 32.25C308.69 32.4489 308.497 32.7202 308.366 33.0639C308.238 33.4077 308.174 33.7955 308.174 34.2273C308.174 34.6648 308.24 35.0582 308.37 35.4077C308.501 35.7571 308.694 36.0341 308.95 36.2386C309.208 36.4403 309.527 36.5412 309.904 36.5412Z" fill="#212121"/>
<rect width="61.3333" height="35" transform="translate(343.667 16)" fill="#F2F2F2"/>
<path d="M363.224 31.0653C363.178 30.6619 362.991 30.3494 362.661 30.1278C362.332 29.9034 361.917 29.7912 361.417 29.7912C361.059 29.7912 360.75 29.848 360.488 29.9616C360.227 30.0724 360.024 30.2259 359.879 30.4219C359.737 30.6151 359.666 30.8352 359.666 31.0824C359.666 31.2898 359.714 31.4687 359.811 31.6193C359.91 31.7699 360.039 31.8963 360.198 31.9986C360.36 32.098 360.534 32.1818 360.718 32.25C360.903 32.3153 361.08 32.3693 361.251 32.4119L362.103 32.6335C362.382 32.7017 362.667 32.794 362.96 32.9105C363.252 33.027 363.524 33.1804 363.774 33.3707C364.024 33.5611 364.225 33.7969 364.379 34.0781C364.535 34.3594 364.613 34.696 364.613 35.0881C364.613 35.5824 364.485 36.0213 364.23 36.4048C363.977 36.7884 363.609 37.0909 363.126 37.3125C362.646 37.5341 362.065 37.6449 361.383 37.6449C360.73 37.6449 360.164 37.5412 359.687 37.3338C359.21 37.1264 358.836 36.8324 358.566 36.4517C358.296 36.0682 358.147 35.6136 358.119 35.0881H359.44C359.465 35.4034 359.568 35.6662 359.747 35.8764C359.928 36.0838 360.16 36.2386 360.441 36.3409C360.725 36.4403 361.036 36.4901 361.375 36.4901C361.747 36.4901 362.078 36.4318 362.367 36.3153C362.66 36.196 362.89 36.0312 363.058 35.821C363.225 35.608 363.309 35.3594 363.309 35.0753C363.309 34.8168 363.235 34.6051 363.088 34.4403C362.943 34.2756 362.745 34.1392 362.495 34.0312C362.248 33.9233 361.968 33.8281 361.656 33.7457L360.625 33.4645C359.926 33.2741 359.372 32.9943 358.963 32.625C358.556 32.2557 358.353 31.767 358.353 31.1591C358.353 30.6562 358.49 30.2173 358.762 29.8423C359.035 29.4673 359.404 29.1761 359.87 28.9688C360.336 28.7585 360.862 28.6534 361.447 28.6534C362.038 28.6534 362.559 28.7571 363.011 28.9645C363.465 29.1719 363.823 29.4574 364.085 29.821C364.346 30.1818 364.482 30.5966 364.494 31.0653H363.224ZM367.359 33.6136V37.5H366.084V28.7727H367.341V32.0199H367.422C367.576 31.6676 367.81 31.3878 368.126 31.1804C368.441 30.973 368.853 30.8693 369.361 30.8693C369.81 30.8693 370.202 30.9616 370.538 31.1463C370.876 31.331 371.137 31.6065 371.322 31.973C371.509 32.3366 371.603 32.7912 371.603 33.3366V37.5H370.329V33.4901C370.329 33.0099 370.205 32.6378 369.958 32.3736C369.711 32.1065 369.367 31.973 368.927 31.973C368.626 31.973 368.356 32.0369 368.117 32.1648C367.881 32.2926 367.695 32.4801 367.559 32.7273C367.425 32.9716 367.359 33.267 367.359 33.6136ZM375.208 37.6449C374.793 37.6449 374.418 37.5682 374.083 37.4148C373.748 37.2585 373.482 37.0327 373.286 36.7372C373.093 36.4418 372.996 36.0795 372.996 35.6506C372.996 35.2812 373.067 34.9773 373.209 34.7386C373.351 34.5 373.543 34.3111 373.785 34.1719C374.026 34.0327 374.296 33.9276 374.594 33.8565C374.893 33.7855 375.197 33.7315 375.506 33.6946C375.898 33.6491 376.216 33.6122 376.461 33.5838C376.705 33.5526 376.883 33.5028 376.993 33.4347C377.104 33.3665 377.16 33.2557 377.16 33.1023V33.0724C377.16 32.7003 377.055 32.4119 376.844 32.2074C376.637 32.0028 376.327 31.9006 375.915 31.9006C375.486 31.9006 375.148 31.9957 374.901 32.1861C374.657 32.3736 374.488 32.5824 374.394 32.8125L373.197 32.5398C373.339 32.142 373.546 31.821 373.819 31.5767C374.094 31.3295 374.411 31.1506 374.769 31.0398C375.127 30.9261 375.503 30.8693 375.898 30.8693C376.16 30.8693 376.437 30.9006 376.729 30.9631C377.025 31.0227 377.3 31.1335 377.556 31.2955C377.814 31.4574 378.026 31.6889 378.191 31.9901C378.356 32.2884 378.438 32.6761 378.438 33.1534V37.5H377.194V36.6051H377.143C377.06 36.7699 376.937 36.9318 376.772 37.0909C376.607 37.25 376.395 37.3821 376.137 37.4872C375.878 37.5923 375.569 37.6449 375.208 37.6449ZM375.485 36.6222C375.837 36.6222 376.138 36.5526 376.388 36.4134C376.641 36.2741 376.833 36.0923 376.964 35.8679C377.097 35.6406 377.164 35.3977 377.164 35.1392V34.2955C377.118 34.3409 377.03 34.3835 376.9 34.4233C376.772 34.4602 376.626 34.4929 376.461 34.5213C376.296 34.5469 376.136 34.571 375.979 34.5938C375.823 34.6136 375.692 34.6307 375.587 34.6449C375.34 34.6761 375.114 34.7287 374.91 34.8026C374.708 34.8764 374.546 34.983 374.424 35.1222C374.305 35.2585 374.245 35.4403 374.245 35.6676C374.245 35.983 374.361 36.2216 374.594 36.3835C374.827 36.5426 375.124 36.6222 375.485 36.6222ZM380.135 37.5V30.9545H381.367V31.9943H381.435C381.554 31.642 381.764 31.3651 382.066 31.1634C382.37 30.9588 382.713 30.8565 383.097 30.8565C383.176 30.8565 383.27 30.8594 383.378 30.8651C383.489 30.8707 383.576 30.8778 383.638 30.8864V32.1051C383.587 32.0909 383.496 32.0753 383.365 32.0582C383.235 32.0384 383.104 32.0284 382.973 32.0284C382.672 32.0284 382.404 32.0923 382.168 32.2202C381.935 32.3452 381.75 32.5199 381.614 32.7443C381.477 32.9659 381.409 33.2187 381.409 33.5028V37.5H380.135ZM386.957 37.6278C386.428 37.6278 385.957 37.4929 385.542 37.223C385.13 36.9503 384.806 36.5625 384.57 36.0597C384.337 35.554 384.221 34.9474 384.221 34.2401C384.221 33.5327 384.339 32.9276 384.574 32.4247C384.813 31.9219 385.14 31.5369 385.555 31.2699C385.969 31.0028 386.439 30.8693 386.965 30.8693C387.371 30.8693 387.698 30.9375 387.945 31.0739C388.195 31.2074 388.388 31.3636 388.525 31.5426C388.664 31.7216 388.772 31.8793 388.849 32.0156H388.925V28.7727H390.199V37.5H388.955V36.4815H388.849C388.772 36.6207 388.661 36.7798 388.516 36.9588C388.374 37.1378 388.178 37.294 387.928 37.4276C387.678 37.5611 387.354 37.6278 386.957 37.6278ZM387.238 36.5412C387.604 36.5412 387.914 36.4446 388.167 36.2514C388.422 36.0554 388.616 35.7841 388.746 35.4375C388.88 35.0909 388.947 34.6875 388.947 34.2273C388.947 33.7727 388.881 33.375 388.751 33.0341C388.62 32.6932 388.428 32.4276 388.175 32.2372C387.922 32.0469 387.61 31.9517 387.238 31.9517C386.854 31.9517 386.535 32.0511 386.279 32.25C386.023 32.4489 385.83 32.7202 385.699 33.0639C385.572 33.4077 385.508 33.7955 385.508 34.2273C385.508 34.6648 385.573 35.0582 385.704 35.4077C385.834 35.7571 386.028 36.0341 386.283 36.2386C386.542 36.4403 386.86 36.5412 387.238 36.5412Z" fill="#212121"/>
<rect width="61" height="35" transform="translate(112 67)" fill="#F2F2F2"/>
<path d="M131.391 82.0653C131.345 81.6619 131.158 81.3494 130.828 81.1278C130.499 80.9034 130.084 80.7912 129.584 80.7912C129.226 80.7912 128.916 80.848 128.655 80.9616C128.393 81.0724 128.19 81.2259 128.045 81.4219C127.903 81.6151 127.832 81.8352 127.832 82.0824C127.832 82.2898 127.881 82.4687 127.977 82.6193C128.077 82.7699 128.206 82.8963 128.365 82.9986C128.527 83.098 128.7 83.1818 128.885 83.25C129.07 83.3153 129.247 83.3693 129.418 83.4119L130.27 83.6335C130.548 83.7017 130.834 83.794 131.126 83.9105C131.419 84.027 131.69 84.1804 131.94 84.3707C132.19 84.5611 132.392 84.7969 132.545 85.0781C132.702 85.3594 132.78 85.696 132.78 86.0881C132.78 86.5824 132.652 87.0213 132.396 87.4048C132.143 87.7884 131.776 88.0909 131.293 88.3125C130.813 88.5341 130.232 88.6449 129.55 88.6449C128.896 88.6449 128.331 88.5412 127.854 88.3338C127.376 88.1264 127.003 87.8324 126.733 87.4517C126.463 87.0682 126.314 86.6136 126.286 86.0881H127.607C127.632 86.4034 127.734 86.6662 127.913 86.8764C128.095 87.0838 128.327 87.2386 128.608 87.3409C128.892 87.4403 129.203 87.4901 129.541 87.4901C129.913 87.4901 130.244 87.4318 130.534 87.3153C130.827 87.196 131.057 87.0312 131.224 86.821C131.392 86.608 131.476 86.3594 131.476 86.0753C131.476 85.8168 131.402 85.6051 131.254 85.4403C131.109 85.2756 130.912 85.1392 130.662 85.0312C130.415 84.9233 130.135 84.8281 129.822 84.7457L128.791 84.4645C128.092 84.2741 127.538 83.9943 127.129 83.625C126.723 83.2557 126.52 82.767 126.52 82.1591C126.52 81.6562 126.656 81.2173 126.929 80.8423C127.202 80.4673 127.571 80.1761 128.037 79.9688C128.503 79.7585 129.028 79.6534 129.614 79.6534C130.205 79.6534 130.726 79.7571 131.178 79.9645C131.632 80.1719 131.99 80.4574 132.251 80.821C132.513 81.1818 132.649 81.5966 132.661 82.0653H131.391ZM135.525 84.6136V88.5H134.251V79.7727H135.508V83.0199H135.589C135.743 82.6676 135.977 82.3878 136.292 82.1804C136.608 81.973 137.02 81.8693 137.528 81.8693C137.977 81.8693 138.369 81.9616 138.704 82.1463C139.042 82.331 139.304 82.6065 139.488 82.973C139.676 83.3366 139.77 83.7912 139.77 84.3366V88.5H138.495V84.4901C138.495 84.0099 138.372 83.6378 138.125 83.3736C137.877 83.1065 137.534 82.973 137.093 82.973C136.792 82.973 136.522 83.0369 136.284 83.1648C136.048 83.2926 135.862 83.4801 135.725 83.7273C135.592 83.9716 135.525 84.267 135.525 84.6136ZM143.375 88.6449C142.96 88.6449 142.585 88.5682 142.25 88.4148C141.914 88.2585 141.649 88.0327 141.453 87.7372C141.26 87.4418 141.163 87.0795 141.163 86.6506C141.163 86.2812 141.234 85.9773 141.376 85.7386C141.518 85.5 141.71 85.3111 141.951 85.1719C142.193 85.0327 142.463 84.9276 142.761 84.8565C143.059 84.7855 143.363 84.7315 143.673 84.6946C144.065 84.6491 144.383 84.6122 144.627 84.5838C144.872 84.5526 145.049 84.5028 145.16 84.4347C145.271 84.3665 145.326 84.2557 145.326 84.1023V84.0724C145.326 83.7003 145.221 83.4119 145.011 83.2074C144.804 83.0028 144.494 82.9006 144.082 82.9006C143.653 82.9006 143.315 82.9957 143.068 83.1861C142.824 83.3736 142.654 83.5824 142.561 83.8125L141.363 83.5398C141.505 83.142 141.713 82.821 141.985 82.5767C142.261 82.3295 142.578 82.1506 142.936 82.0398C143.294 81.9261 143.67 81.8693 144.065 81.8693C144.326 81.8693 144.603 81.9006 144.896 81.9631C145.191 82.0227 145.467 82.1335 145.723 82.2955C145.981 82.4574 146.193 82.6889 146.358 82.9901C146.522 83.2884 146.605 83.6761 146.605 84.1534V88.5H145.36V87.6051H145.309C145.227 87.7699 145.103 87.9318 144.939 88.0909C144.774 88.25 144.562 88.3821 144.304 88.4872C144.045 88.5923 143.735 88.6449 143.375 88.6449ZM143.652 87.6222C144.004 87.6222 144.305 87.5526 144.555 87.4134C144.808 87.2741 145 87.0923 145.13 86.8679C145.264 86.6406 145.331 86.3977 145.331 86.1392V85.2955C145.285 85.3409 145.197 85.3835 145.066 85.4233C144.939 85.4602 144.792 85.4929 144.627 85.5213C144.463 85.5469 144.302 85.571 144.146 85.5938C143.99 85.6136 143.859 85.6307 143.754 85.6449C143.507 85.6761 143.281 85.7287 143.076 85.8026C142.875 85.8764 142.713 85.983 142.591 86.1222C142.471 86.2585 142.412 86.4403 142.412 86.6676C142.412 86.983 142.528 87.2216 142.761 87.3835C142.994 87.5426 143.291 87.6222 143.652 87.6222ZM148.302 88.5V81.9545H149.533V82.9943H149.602C149.721 82.642 149.931 82.3651 150.232 82.1634C150.536 81.9588 150.88 81.8565 151.263 81.8565C151.343 81.8565 151.437 81.8594 151.545 81.8651C151.656 81.8707 151.742 81.8778 151.805 81.8864V83.1051C151.754 83.0909 151.663 83.0753 151.532 83.0582C151.401 83.0384 151.271 83.0284 151.14 83.0284C150.839 83.0284 150.57 83.0923 150.335 83.2202C150.102 83.3452 149.917 83.5199 149.781 83.7443C149.644 83.9659 149.576 84.2187 149.576 84.5028V88.5H148.302ZM155.123 88.6278C154.595 88.6278 154.123 88.4929 153.708 88.223C153.297 87.9503 152.973 87.5625 152.737 87.0597C152.504 86.554 152.387 85.9474 152.387 85.2401C152.387 84.5327 152.505 83.9276 152.741 83.4247C152.98 82.9219 153.306 82.5369 153.721 82.2699C154.136 82.0028 154.606 81.8693 155.132 81.8693C155.538 81.8693 155.865 81.9375 156.112 82.0739C156.362 82.2074 156.555 82.3636 156.691 82.5426C156.831 82.7216 156.939 82.8793 157.015 83.0156H157.092V79.7727H158.366V88.5H157.122V87.4815H157.015C156.939 87.6207 156.828 87.7798 156.683 87.9588C156.541 88.1378 156.345 88.294 156.095 88.4276C155.845 88.5611 155.521 88.6278 155.123 88.6278ZM155.404 87.5412C155.771 87.5412 156.081 87.4446 156.333 87.2514C156.589 87.0554 156.782 86.7841 156.913 86.4375C157.047 86.0909 157.113 85.6875 157.113 85.2273C157.113 84.7727 157.048 84.375 156.917 84.0341C156.787 83.6932 156.595 83.4276 156.342 83.2372C156.089 83.0469 155.777 82.9517 155.404 82.9517C155.021 82.9517 154.701 83.0511 154.446 83.25C154.19 83.4489 153.997 83.7202 153.866 84.0639C153.738 84.4077 153.674 84.7955 153.674 85.2273C153.674 85.6648 153.74 86.0582 153.87 86.4077C154.001 86.7571 154.194 87.0341 154.45 87.2386C154.708 87.4403 155.027 87.5412 155.404 87.5412Z" fill="#212121"/>
<rect width="61" height="35" transform="translate(112 118)" fill="#F2F2F2"/>
<path d="M131.391 133.065C131.345 132.662 131.158 132.349 130.828 132.128C130.499 131.903 130.084 131.791 129.584 131.791C129.226 131.791 128.916 131.848 128.655 131.962C128.393 132.072 128.19 132.226 128.045 132.422C127.903 132.615 127.832 132.835 127.832 133.082C127.832 133.29 127.881 133.469 127.977 133.619C128.077 133.77 128.206 133.896 128.365 133.999C128.527 134.098 128.7 134.182 128.885 134.25C129.07 134.315 129.247 134.369 129.418 134.412L130.27 134.634C130.548 134.702 130.834 134.794 131.126 134.911C131.419 135.027 131.69 135.18 131.94 135.371C132.19 135.561 132.392 135.797 132.545 136.078C132.702 136.359 132.78 136.696 132.78 137.088C132.78 137.582 132.652 138.021 132.396 138.405C132.143 138.788 131.776 139.091 131.293 139.312C130.813 139.534 130.232 139.645 129.55 139.645C128.896 139.645 128.331 139.541 127.854 139.334C127.376 139.126 127.003 138.832 126.733 138.452C126.463 138.068 126.314 137.614 126.286 137.088H127.607C127.632 137.403 127.734 137.666 127.913 137.876C128.095 138.084 128.327 138.239 128.608 138.341C128.892 138.44 129.203 138.49 129.541 138.49C129.913 138.49 130.244 138.432 130.534 138.315C130.827 138.196 131.057 138.031 131.224 137.821C131.392 137.608 131.476 137.359 131.476 137.075C131.476 136.817 131.402 136.605 131.254 136.44C131.109 136.276 130.912 136.139 130.662 136.031C130.415 135.923 130.135 135.828 129.822 135.746L128.791 135.464C128.092 135.274 127.538 134.994 127.129 134.625C126.723 134.256 126.52 133.767 126.52 133.159C126.52 132.656 126.656 132.217 126.929 131.842C127.202 131.467 127.571 131.176 128.037 130.969C128.503 130.759 129.028 130.653 129.614 130.653C130.205 130.653 130.726 130.757 131.178 130.964C131.632 131.172 131.99 131.457 132.251 131.821C132.513 132.182 132.649 132.597 132.661 133.065H131.391ZM135.525 135.614V139.5H134.251V130.773H135.508V134.02H135.589C135.743 133.668 135.977 133.388 136.292 133.18C136.608 132.973 137.02 132.869 137.528 132.869C137.977 132.869 138.369 132.962 138.704 133.146C139.042 133.331 139.304 133.607 139.488 133.973C139.676 134.337 139.77 134.791 139.77 135.337V139.5H138.495V135.49C138.495 135.01 138.372 134.638 138.125 134.374C137.877 134.107 137.534 133.973 137.093 133.973C136.792 133.973 136.522 134.037 136.284 134.165C136.048 134.293 135.862 134.48 135.725 134.727C135.592 134.972 135.525 135.267 135.525 135.614ZM143.375 139.645C142.96 139.645 142.585 139.568 142.25 139.415C141.914 139.259 141.649 139.033 141.453 138.737C141.26 138.442 141.163 138.08 141.163 137.651C141.163 137.281 141.234 136.977 141.376 136.739C141.518 136.5 141.71 136.311 141.951 136.172C142.193 136.033 142.463 135.928 142.761 135.857C143.059 135.786 143.363 135.732 143.673 135.695C144.065 135.649 144.383 135.612 144.627 135.584C144.872 135.553 145.049 135.503 145.16 135.435C145.271 135.366 145.326 135.256 145.326 135.102V135.072C145.326 134.7 145.221 134.412 145.011 134.207C144.804 134.003 144.494 133.901 144.082 133.901C143.653 133.901 143.315 133.996 143.068 134.186C142.824 134.374 142.654 134.582 142.561 134.812L141.363 134.54C141.505 134.142 141.713 133.821 141.985 133.577C142.261 133.33 142.578 133.151 142.936 133.04C143.294 132.926 143.67 132.869 144.065 132.869C144.326 132.869 144.603 132.901 144.896 132.963C145.191 133.023 145.467 133.134 145.723 133.295C145.981 133.457 146.193 133.689 146.358 133.99C146.522 134.288 146.605 134.676 146.605 135.153V139.5H145.36V138.605H145.309C145.227 138.77 145.103 138.932 144.939 139.091C144.774 139.25 144.562 139.382 144.304 139.487C144.045 139.592 143.735 139.645 143.375 139.645ZM143.652 138.622C144.004 138.622 144.305 138.553 144.555 138.413C144.808 138.274 145 138.092 145.13 137.868C145.264 137.641 145.331 137.398 145.331 137.139V136.295C145.285 136.341 145.197 136.384 145.066 136.423C144.939 136.46 144.792 136.493 144.627 136.521C144.463 136.547 144.302 136.571 144.146 136.594C143.99 136.614 143.859 136.631 143.754 136.645C143.507 136.676 143.281 136.729 143.076 136.803C142.875 136.876 142.713 136.983 142.591 137.122C142.471 137.259 142.412 137.44 142.412 137.668C142.412 137.983 142.528 138.222 142.761 138.384C142.994 138.543 143.291 138.622 143.652 138.622ZM148.302 139.5V132.955H149.533V133.994H149.602C149.721 133.642 149.931 133.365 150.232 133.163C150.536 132.959 150.88 132.857 151.263 132.857C151.343 132.857 151.437 132.859 151.545 132.865C151.656 132.871 151.742 132.878 151.805 132.886V134.105C151.754 134.091 151.663 134.075 151.532 134.058C151.401 134.038 151.271 134.028 151.14 134.028C150.839 134.028 150.57 134.092 150.335 134.22C150.102 134.345 149.917 134.52 149.781 134.744C149.644 134.966 149.576 135.219 149.576 135.503V139.5H148.302ZM155.123 139.628C154.595 139.628 154.123 139.493 153.708 139.223C153.297 138.95 152.973 138.562 152.737 138.06C152.504 137.554 152.387 136.947 152.387 136.24C152.387 135.533 152.505 134.928 152.741 134.425C152.98 133.922 153.306 133.537 153.721 133.27C154.136 133.003 154.606 132.869 155.132 132.869C155.538 132.869 155.865 132.938 156.112 133.074C156.362 133.207 156.555 133.364 156.691 133.543C156.831 133.722 156.939 133.879 157.015 134.016H157.092V130.773H158.366V139.5H157.122V138.482H157.015C156.939 138.621 156.828 138.78 156.683 138.959C156.541 139.138 156.345 139.294 156.095 139.428C155.845 139.561 155.521 139.628 155.123 139.628ZM155.404 138.541C155.771 138.541 156.081 138.445 156.333 138.251C156.589 138.055 156.782 137.784 156.913 137.438C157.047 137.091 157.113 136.687 157.113 136.227C157.113 135.773 157.048 135.375 156.917 135.034C156.787 134.693 156.595 134.428 156.342 134.237C156.089 134.047 155.777 133.952 155.404 133.952C155.021 133.952 154.701 134.051 154.446 134.25C154.19 134.449 153.997 134.72 153.866 135.064C153.738 135.408 153.674 135.795 153.674 136.227C153.674 136.665 153.74 137.058 153.87 137.408C154.001 137.757 154.194 138.034 154.45 138.239C154.708 138.44 155.027 138.541 155.404 138.541Z" fill="#212121"/>
<rect width="216" height="86" transform="translate(189 67)" fill="#F2F2F2"/>
<path d="M255.778 104.364H257.909L261.614 113.409H261.75L265.455 104.364H267.585V116H265.915V107.58H265.807L262.375 115.983H260.989L257.557 107.574H257.449V116H255.778V104.364ZM272.541 116.193C271.988 116.193 271.488 116.091 271.041 115.886C270.594 115.678 270.24 115.377 269.979 114.983C269.721 114.589 269.592 114.106 269.592 113.534C269.592 113.042 269.687 112.636 269.876 112.318C270.066 112 270.321 111.748 270.643 111.562C270.965 111.377 271.325 111.237 271.723 111.142C272.121 111.047 272.526 110.975 272.939 110.926C273.462 110.866 273.886 110.816 274.212 110.778C274.537 110.737 274.774 110.67 274.922 110.58C275.07 110.489 275.143 110.341 275.143 110.136V110.097C275.143 109.6 275.003 109.216 274.723 108.943C274.446 108.67 274.034 108.534 273.484 108.534C272.912 108.534 272.462 108.661 272.132 108.915C271.806 109.165 271.581 109.443 271.456 109.75L269.859 109.386C270.049 108.856 270.325 108.428 270.689 108.102C271.056 107.773 271.479 107.534 271.956 107.386C272.433 107.235 272.935 107.159 273.462 107.159C273.81 107.159 274.179 107.201 274.57 107.284C274.964 107.364 275.331 107.511 275.672 107.727C276.017 107.943 276.299 108.252 276.518 108.653C276.738 109.051 276.848 109.568 276.848 110.205V116H275.189V114.807H275.121C275.011 115.027 274.846 115.242 274.626 115.455C274.407 115.667 274.125 115.843 273.78 115.983C273.435 116.123 273.022 116.193 272.541 116.193ZM272.911 114.83C273.38 114.83 273.782 114.737 274.115 114.551C274.452 114.366 274.708 114.123 274.882 113.824C275.06 113.521 275.149 113.197 275.149 112.852V111.727C275.089 111.788 274.971 111.845 274.797 111.898C274.626 111.947 274.431 111.991 274.212 112.028C273.992 112.062 273.778 112.095 273.57 112.125C273.361 112.152 273.187 112.174 273.047 112.193C272.717 112.235 272.416 112.305 272.143 112.403C271.875 112.502 271.659 112.644 271.496 112.83C271.337 113.011 271.257 113.254 271.257 113.557C271.257 113.977 271.412 114.295 271.723 114.511C272.034 114.723 272.429 114.83 272.911 114.83ZM279.111 116V107.273H280.81V116H279.111ZM279.969 105.926C279.673 105.926 279.42 105.828 279.207 105.631C278.999 105.43 278.895 105.191 278.895 104.915C278.895 104.634 278.999 104.396 279.207 104.199C279.42 103.998 279.673 103.898 279.969 103.898C280.264 103.898 280.516 103.998 280.724 104.199C280.937 104.396 281.043 104.634 281.043 104.915C281.043 105.191 280.937 105.43 280.724 105.631C280.516 105.828 280.264 105.926 279.969 105.926ZM284.794 110.818V116H283.095V107.273H284.726V108.693H284.834C285.035 108.231 285.349 107.86 285.777 107.58C286.209 107.299 286.752 107.159 287.408 107.159C288.002 107.159 288.523 107.284 288.97 107.534C289.417 107.78 289.764 108.148 290.01 108.636C290.256 109.125 290.379 109.729 290.379 110.449V116H288.68V110.653C288.68 110.021 288.516 109.527 288.186 109.17C287.857 108.811 287.404 108.631 286.828 108.631C286.434 108.631 286.084 108.716 285.777 108.886C285.474 109.057 285.233 109.307 285.055 109.636C284.881 109.962 284.794 110.356 284.794 110.818ZM303.432 109.403L301.892 109.676C301.828 109.479 301.725 109.292 301.585 109.114C301.449 108.936 301.263 108.79 301.028 108.676C300.794 108.562 300.5 108.506 300.148 108.506C299.667 108.506 299.265 108.614 298.943 108.83C298.621 109.042 298.46 109.316 298.46 109.653C298.46 109.945 298.568 110.18 298.784 110.358C299 110.536 299.348 110.682 299.83 110.795L301.216 111.114C302.019 111.299 302.617 111.585 303.011 111.972C303.405 112.358 303.602 112.86 303.602 113.477C303.602 114 303.451 114.466 303.148 114.875C302.848 115.28 302.43 115.598 301.892 115.83C301.358 116.061 300.739 116.176 300.034 116.176C299.057 116.176 298.259 115.968 297.642 115.551C297.025 115.131 296.646 114.534 296.506 113.761L298.148 113.511C298.25 113.939 298.46 114.263 298.778 114.483C299.097 114.699 299.511 114.807 300.023 114.807C300.58 114.807 301.025 114.691 301.358 114.46C301.691 114.225 301.858 113.939 301.858 113.602C301.858 113.33 301.756 113.1 301.551 112.915C301.35 112.729 301.042 112.589 300.625 112.494L299.148 112.17C298.333 111.985 297.731 111.689 297.341 111.284C296.955 110.879 296.761 110.366 296.761 109.744C296.761 109.229 296.905 108.778 297.193 108.392C297.481 108.006 297.879 107.705 298.386 107.489C298.894 107.269 299.475 107.159 300.131 107.159C301.074 107.159 301.816 107.364 302.358 107.773C302.9 108.178 303.258 108.722 303.432 109.403ZM307.169 110.818V116H305.47V104.364H307.146V108.693H307.254C307.459 108.223 307.771 107.85 308.192 107.574C308.612 107.297 309.161 107.159 309.839 107.159C310.438 107.159 310.961 107.282 311.408 107.528C311.858 107.775 312.207 108.142 312.453 108.631C312.703 109.116 312.828 109.722 312.828 110.449V116H311.129V110.653C311.129 110.013 310.964 109.517 310.635 109.165C310.305 108.809 309.847 108.631 309.26 108.631C308.858 108.631 308.499 108.716 308.18 108.886C307.866 109.057 307.618 109.307 307.436 109.636C307.258 109.962 307.169 110.356 307.169 110.818ZM317.635 116.193C317.082 116.193 316.582 116.091 316.135 115.886C315.688 115.678 315.334 115.377 315.072 114.983C314.815 114.589 314.686 114.106 314.686 113.534C314.686 113.042 314.781 112.636 314.97 112.318C315.16 112 315.415 111.748 315.737 111.562C316.059 111.377 316.419 111.237 316.817 111.142C317.214 111.047 317.62 110.975 318.033 110.926C318.555 110.866 318.98 110.816 319.305 110.778C319.631 110.737 319.868 110.67 320.016 110.58C320.163 110.489 320.237 110.341 320.237 110.136V110.097C320.237 109.6 320.097 109.216 319.817 108.943C319.54 108.67 319.127 108.534 318.578 108.534C318.006 108.534 317.555 108.661 317.226 108.915C316.9 109.165 316.675 109.443 316.55 109.75L314.953 109.386C315.143 108.856 315.419 108.428 315.783 108.102C316.15 107.773 316.572 107.534 317.05 107.386C317.527 107.235 318.029 107.159 318.555 107.159C318.904 107.159 319.273 107.201 319.663 107.284C320.057 107.364 320.425 107.511 320.766 107.727C321.11 107.943 321.393 108.252 321.612 108.653C321.832 109.051 321.942 109.568 321.942 110.205V116H320.283V114.807H320.214C320.105 115.027 319.94 115.242 319.72 115.455C319.5 115.667 319.218 115.843 318.874 115.983C318.529 116.123 318.116 116.193 317.635 116.193ZM318.004 114.83C318.474 114.83 318.875 114.737 319.209 114.551C319.546 114.366 319.802 114.123 319.976 113.824C320.154 113.521 320.243 113.197 320.243 112.852V111.727C320.182 111.788 320.065 111.845 319.891 111.898C319.72 111.947 319.525 111.991 319.305 112.028C319.086 112.062 318.872 112.095 318.663 112.125C318.455 112.152 318.281 112.174 318.141 112.193C317.811 112.235 317.51 112.305 317.237 112.403C316.968 112.502 316.752 112.644 316.589 112.83C316.43 113.011 316.351 113.254 316.351 113.557C316.351 113.977 316.506 114.295 316.817 114.511C317.127 114.723 317.523 114.83 318.004 114.83ZM324.205 116V107.273H325.847V108.659H325.938C326.097 108.189 326.377 107.82 326.778 107.551C327.184 107.278 327.642 107.142 328.153 107.142C328.259 107.142 328.384 107.146 328.528 107.153C328.676 107.161 328.792 107.17 328.875 107.182V108.807C328.807 108.788 328.686 108.767 328.511 108.744C328.337 108.718 328.163 108.705 327.989 108.705C327.587 108.705 327.229 108.79 326.915 108.96C326.604 109.127 326.358 109.36 326.176 109.659C325.994 109.955 325.903 110.292 325.903 110.67V116H324.205ZM333.3 116.17C332.595 116.17 331.966 115.991 331.413 115.631C330.864 115.267 330.432 114.75 330.118 114.08C329.807 113.405 329.652 112.597 329.652 111.653C329.652 110.71 329.809 109.903 330.124 109.233C330.442 108.562 330.877 108.049 331.43 107.693C331.983 107.337 332.61 107.159 333.311 107.159C333.853 107.159 334.288 107.25 334.618 107.432C334.951 107.61 335.209 107.818 335.391 108.057C335.576 108.295 335.72 108.506 335.822 108.688H335.925V104.364H337.624V116H335.964V114.642H335.822C335.72 114.828 335.572 115.04 335.379 115.278C335.19 115.517 334.929 115.725 334.595 115.903C334.262 116.081 333.83 116.17 333.3 116.17ZM333.675 114.722C334.163 114.722 334.576 114.593 334.913 114.335C335.254 114.074 335.512 113.712 335.686 113.25C335.864 112.788 335.953 112.25 335.953 111.636C335.953 111.03 335.866 110.5 335.692 110.045C335.518 109.591 335.262 109.237 334.925 108.983C334.588 108.729 334.171 108.602 333.675 108.602C333.163 108.602 332.737 108.735 332.396 109C332.055 109.265 331.798 109.627 331.624 110.085C331.453 110.544 331.368 111.061 331.368 111.636C331.368 112.22 331.455 112.744 331.629 113.21C331.804 113.676 332.061 114.045 332.402 114.318C332.747 114.587 333.171 114.722 333.675 114.722Z" fill="#212121"/>
<rect width="61" height="35" transform="translate(421 67)" fill="#F2F2F2"/>
<path d="M440.391 82.0653C440.345 81.6619 440.158 81.3494 439.828 81.1278C439.499 80.9034 439.084 80.7912 438.584 80.7912C438.226 80.7912 437.916 80.848 437.655 80.9616C437.393 81.0724 437.19 81.2259 437.045 81.4219C436.903 81.6151 436.832 81.8352 436.832 82.0824C436.832 82.2898 436.881 82.4687 436.977 82.6193C437.077 82.7699 437.206 82.8963 437.365 82.9986C437.527 83.098 437.7 83.1818 437.885 83.25C438.07 83.3153 438.247 83.3693 438.418 83.4119L439.27 83.6335C439.548 83.7017 439.834 83.794 440.126 83.9105C440.419 84.027 440.69 84.1804 440.94 84.3707C441.19 84.5611 441.392 84.7969 441.545 85.0781C441.702 85.3594 441.78 85.696 441.78 86.0881C441.78 86.5824 441.652 87.0213 441.396 87.4048C441.143 87.7884 440.776 88.0909 440.293 88.3125C439.813 88.5341 439.232 88.6449 438.55 88.6449C437.896 88.6449 437.331 88.5412 436.854 88.3338C436.376 88.1264 436.003 87.8324 435.733 87.4517C435.463 87.0682 435.314 86.6136 435.286 86.0881H436.607C436.632 86.4034 436.734 86.6662 436.913 86.8764C437.095 87.0838 437.327 87.2386 437.608 87.3409C437.892 87.4403 438.203 87.4901 438.541 87.4901C438.913 87.4901 439.244 87.4318 439.534 87.3153C439.827 87.196 440.057 87.0312 440.224 86.821C440.392 86.608 440.476 86.3594 440.476 86.0753C440.476 85.8168 440.402 85.6051 440.254 85.4403C440.109 85.2756 439.912 85.1392 439.662 85.0312C439.415 84.9233 439.135 84.8281 438.822 84.7457L437.791 84.4645C437.092 84.2741 436.538 83.9943 436.129 83.625C435.723 83.2557 435.52 82.767 435.52 82.1591C435.52 81.6562 435.656 81.2173 435.929 80.8423C436.202 80.4673 436.571 80.1761 437.037 79.9688C437.503 79.7585 438.028 79.6534 438.614 79.6534C439.205 79.6534 439.726 79.7571 440.178 79.9645C440.632 80.1719 440.99 80.4574 441.251 80.821C441.513 81.1818 441.649 81.5966 441.661 82.0653H440.391ZM444.525 84.6136V88.5H443.251V79.7727H444.508V83.0199H444.589C444.743 82.6676 444.977 82.3878 445.292 82.1804C445.608 81.973 446.02 81.8693 446.528 81.8693C446.977 81.8693 447.369 81.9616 447.704 82.1463C448.042 82.331 448.304 82.6065 448.488 82.973C448.676 83.3366 448.77 83.7912 448.77 84.3366V88.5H447.495V84.4901C447.495 84.0099 447.372 83.6378 447.125 83.3736C446.877 83.1065 446.534 82.973 446.093 82.973C445.792 82.973 445.522 83.0369 445.284 83.1648C445.048 83.2926 444.862 83.4801 444.725 83.7273C444.592 83.9716 444.525 84.267 444.525 84.6136ZM452.375 88.6449C451.96 88.6449 451.585 88.5682 451.25 88.4148C450.914 88.2585 450.649 88.0327 450.453 87.7372C450.26 87.4418 450.163 87.0795 450.163 86.6506C450.163 86.2812 450.234 85.9773 450.376 85.7386C450.518 85.5 450.71 85.3111 450.951 85.1719C451.193 85.0327 451.463 84.9276 451.761 84.8565C452.059 84.7855 452.363 84.7315 452.673 84.6946C453.065 84.6491 453.383 84.6122 453.627 84.5838C453.872 84.5526 454.049 84.5028 454.16 84.4347C454.271 84.3665 454.326 84.2557 454.326 84.1023V84.0724C454.326 83.7003 454.221 83.4119 454.011 83.2074C453.804 83.0028 453.494 82.9006 453.082 82.9006C452.653 82.9006 452.315 82.9957 452.068 83.1861C451.824 83.3736 451.654 83.5824 451.561 83.8125L450.363 83.5398C450.505 83.142 450.713 82.821 450.985 82.5767C451.261 82.3295 451.578 82.1506 451.936 82.0398C452.294 81.9261 452.67 81.8693 453.065 81.8693C453.326 81.8693 453.603 81.9006 453.896 81.9631C454.191 82.0227 454.467 82.1335 454.723 82.2955C454.981 82.4574 455.193 82.6889 455.358 82.9901C455.522 83.2884 455.605 83.6761 455.605 84.1534V88.5H454.36V87.6051H454.309C454.227 87.7699 454.103 87.9318 453.939 88.0909C453.774 88.25 453.562 88.3821 453.304 88.4872C453.045 88.5923 452.735 88.6449 452.375 88.6449ZM452.652 87.6222C453.004 87.6222 453.305 87.5526 453.555 87.4134C453.808 87.2741 454 87.0923 454.13 86.8679C454.264 86.6406 454.331 86.3977 454.331 86.1392V85.2955C454.285 85.3409 454.197 85.3835 454.066 85.4233C453.939 85.4602 453.792 85.4929 453.627 85.5213C453.463 85.5469 453.302 85.571 453.146 85.5938C452.99 85.6136 452.859 85.6307 452.754 85.6449C452.507 85.6761 452.281 85.7287 452.076 85.8026C451.875 85.8764 451.713 85.983 451.591 86.1222C451.471 86.2585 451.412 86.4403 451.412 86.6676C451.412 86.983 451.528 87.2216 451.761 87.3835C451.994 87.5426 452.291 87.6222 452.652 87.6222ZM457.302 88.5V81.9545H458.533V82.9943H458.602C458.721 82.642 458.931 82.3651 459.232 82.1634C459.536 81.9588 459.88 81.8565 460.263 81.8565C460.343 81.8565 460.437 81.8594 460.545 81.8651C460.656 81.8707 460.742 81.8778 460.805 81.8864V83.1051C460.754 83.0909 460.663 83.0753 460.532 83.0582C460.401 83.0384 460.271 83.0284 460.14 83.0284C459.839 83.0284 459.57 83.0923 459.335 83.2202C459.102 83.3452 458.917 83.5199 458.781 83.7443C458.644 83.9659 458.576 84.2187 458.576 84.5028V88.5H457.302ZM464.123 88.6278C463.595 88.6278 463.123 88.4929 462.708 88.223C462.297 87.9503 461.973 87.5625 461.737 87.0597C461.504 86.554 461.387 85.9474 461.387 85.2401C461.387 84.5327 461.505 83.9276 461.741 83.4247C461.98 82.9219 462.306 82.5369 462.721 82.2699C463.136 82.0028 463.606 81.8693 464.132 81.8693C464.538 81.8693 464.865 81.9375 465.112 82.0739C465.362 82.2074 465.555 82.3636 465.691 82.5426C465.831 82.7216 465.939 82.8793 466.015 83.0156H466.092V79.7727H467.366V88.5H466.122V87.4815H466.015C465.939 87.6207 465.828 87.7798 465.683 87.9588C465.541 88.1378 465.345 88.294 465.095 88.4276C464.845 88.5611 464.521 88.6278 464.123 88.6278ZM464.404 87.5412C464.771 87.5412 465.081 87.4446 465.333 87.2514C465.589 87.0554 465.782 86.7841 465.913 86.4375C466.047 86.0909 466.113 85.6875 466.113 85.2273C466.113 84.7727 466.048 84.375 465.917 84.0341C465.787 83.6932 465.595 83.4276 465.342 83.2372C465.089 83.0469 464.777 82.9517 464.404 82.9517C464.021 82.9517 463.701 83.0511 463.446 83.25C463.19 83.4489 462.997 83.7202 462.866 84.0639C462.738 84.4077 462.674 84.7955 462.674 85.2273C462.674 85.6648 462.74 86.0582 462.87 86.4077C463.001 86.7571 463.194 87.0341 463.45 87.2386C463.708 87.4403 464.027 87.5412 464.404 87.5412Z" fill="#212121"/>
<rect width="61" height="35" transform="translate(421 118)" fill="#F2F2F2"/>
<path d="M440.391 133.065C440.345 132.662 440.158 132.349 439.828 132.128C439.499 131.903 439.084 131.791 438.584 131.791C438.226 131.791 437.916 131.848 437.655 131.962C437.393 132.072 437.19 132.226 437.045 132.422C436.903 132.615 436.832 132.835 436.832 133.082C436.832 133.29 436.881 133.469 436.977 133.619C437.077 133.77 437.206 133.896 437.365 133.999C437.527 134.098 437.7 134.182 437.885 134.25C438.07 134.315 438.247 134.369 438.418 134.412L439.27 134.634C439.548 134.702 439.834 134.794 440.126 134.911C440.419 135.027 440.69 135.18 440.94 135.371C441.19 135.561 441.392 135.797 441.545 136.078C441.702 136.359 441.78 136.696 441.78 137.088C441.78 137.582 441.652 138.021 441.396 138.405C441.143 138.788 440.776 139.091 440.293 139.312C439.813 139.534 439.232 139.645 438.55 139.645C437.896 139.645 437.331 139.541 436.854 139.334C436.376 139.126 436.003 138.832 435.733 138.452C435.463 138.068 435.314 137.614 435.286 137.088H436.607C436.632 137.403 436.734 137.666 436.913 137.876C437.095 138.084 437.327 138.239 437.608 138.341C437.892 138.44 438.203 138.49 438.541 138.49C438.913 138.49 439.244 138.432 439.534 138.315C439.827 138.196 440.057 138.031 440.224 137.821C440.392 137.608 440.476 137.359 440.476 137.075C440.476 136.817 440.402 136.605 440.254 136.44C440.109 136.276 439.912 136.139 439.662 136.031C439.415 135.923 439.135 135.828 438.822 135.746L437.791 135.464C437.092 135.274 436.538 134.994 436.129 134.625C435.723 134.256 435.52 133.767 435.52 133.159C435.52 132.656 435.656 132.217 435.929 131.842C436.202 131.467 436.571 131.176 437.037 130.969C437.503 130.759 438.028 130.653 438.614 130.653C439.205 130.653 439.726 130.757 440.178 130.964C440.632 131.172 440.99 131.457 441.251 131.821C441.513 132.182 441.649 132.597 441.661 133.065H440.391ZM444.525 135.614V139.5H443.251V130.773H444.508V134.02H444.589C444.743 133.668 444.977 133.388 445.292 133.18C445.608 132.973 446.02 132.869 446.528 132.869C446.977 132.869 447.369 132.962 447.704 133.146C448.042 133.331 448.304 133.607 448.488 133.973C448.676 134.337 448.77 134.791 448.77 135.337V139.5H447.495V135.49C447.495 135.01 447.372 134.638 447.125 134.374C446.877 134.107 446.534 133.973 446.093 133.973C445.792 133.973 445.522 134.037 445.284 134.165C445.048 134.293 444.862 134.48 444.725 134.727C444.592 134.972 444.525 135.267 444.525 135.614ZM452.375 139.645C451.96 139.645 451.585 139.568 451.25 139.415C450.914 139.259 450.649 139.033 450.453 138.737C450.26 138.442 450.163 138.08 450.163 137.651C450.163 137.281 450.234 136.977 450.376 136.739C450.518 136.5 450.71 136.311 450.951 136.172C451.193 136.033 451.463 135.928 451.761 135.857C452.059 135.786 452.363 135.732 452.673 135.695C453.065 135.649 453.383 135.612 453.627 135.584C453.872 135.553 454.049 135.503 454.16 135.435C454.271 135.366 454.326 135.256 454.326 135.102V135.072C454.326 134.7 454.221 134.412 454.011 134.207C453.804 134.003 453.494 133.901 453.082 133.901C452.653 133.901 452.315 133.996 452.068 134.186C451.824 134.374 451.654 134.582 451.561 134.812L450.363 134.54C450.505 134.142 450.713 133.821 450.985 133.577C451.261 133.33 451.578 133.151 451.936 133.04C452.294 132.926 452.67 132.869 453.065 132.869C453.326 132.869 453.603 132.901 453.896 132.963C454.191 133.023 454.467 133.134 454.723 133.295C454.981 133.457 455.193 133.689 455.358 133.99C455.522 134.288 455.605 134.676 455.605 135.153V139.5H454.36V138.605H454.309C454.227 138.77 454.103 138.932 453.939 139.091C453.774 139.25 453.562 139.382 453.304 139.487C453.045 139.592 452.735 139.645 452.375 139.645ZM452.652 138.622C453.004 138.622 453.305 138.553 453.555 138.413C453.808 138.274 454 138.092 454.13 137.868C454.264 137.641 454.331 137.398 454.331 137.139V136.295C454.285 136.341 454.197 136.384 454.066 136.423C453.939 136.46 453.792 136.493 453.627 136.521C453.463 136.547 453.302 136.571 453.146 136.594C452.99 136.614 452.859 136.631 452.754 136.645C452.507 136.676 452.281 136.729 452.076 136.803C451.875 136.876 451.713 136.983 451.591 137.122C451.471 137.259 451.412 137.44 451.412 137.668C451.412 137.983 451.528 138.222 451.761 138.384C451.994 138.543 452.291 138.622 452.652 138.622ZM457.302 139.5V132.955H458.533V133.994H458.602C458.721 133.642 458.931 133.365 459.232 133.163C459.536 132.959 459.88 132.857 460.263 132.857C460.343 132.857 460.437 132.859 460.545 132.865C460.656 132.871 460.742 132.878 460.805 132.886V134.105C460.754 134.091 460.663 134.075 460.532 134.058C460.401 134.038 460.271 134.028 460.14 134.028C459.839 134.028 459.57 134.092 459.335 134.22C459.102 134.345 458.917 134.52 458.781 134.744C458.644 134.966 458.576 135.219 458.576 135.503V139.5H457.302ZM464.123 139.628C463.595 139.628 463.123 139.493 462.708 139.223C462.297 138.95 461.973 138.562 461.737 138.06C461.504 137.554 461.387 136.947 461.387 136.24C461.387 135.533 461.505 134.928 461.741 134.425C461.98 133.922 462.306 133.537 462.721 133.27C463.136 133.003 463.606 132.869 464.132 132.869C464.538 132.869 464.865 132.938 465.112 133.074C465.362 133.207 465.555 133.364 465.691 133.543C465.831 133.722 465.939 133.879 466.015 134.016H466.092V130.773H467.366V139.5H466.122V138.482H466.015C465.939 138.621 465.828 138.78 465.683 138.959C465.541 139.138 465.345 139.294 465.095 139.428C464.845 139.561 464.521 139.628 464.123 139.628ZM464.404 138.541C464.771 138.541 465.081 138.445 465.333 138.251C465.589 138.055 465.782 137.784 465.913 137.438C466.047 137.091 466.113 136.687 466.113 136.227C466.113 135.773 466.048 135.375 465.917 135.034C465.787 134.693 465.595 134.428 465.342 134.237C465.089 134.047 464.777 133.952 464.404 133.952C464.021 133.952 463.701 134.051 463.446 134.25C463.19 134.449 462.997 134.72 462.866 135.064C462.738 135.408 462.674 135.795 462.674 136.227C462.674 136.665 462.74 137.058 462.87 137.408C463.001 137.757 463.194 138.034 463.45 138.239C463.708 138.44 464.027 138.541 464.404 138.541Z" fill="#212121"/>
<path d="M189 135L173 135" stroke="#F2F2F2" stroke-width="4"/>
<path d="M421 135L405 135" stroke="#F2F2F2" stroke-width="4"/>
<path d="M189 84L173 84" stroke="#F2F2F2" stroke-width="4"/>
<path d="M421 84L405 84" stroke="#F2F2F2" stroke-width="4"/>
<rect width="61.3333" height="35" transform="translate(189 169)" fill="#F2F2F2"/>
<path d="M208.557 184.065C208.512 183.662 208.324 183.349 207.995 183.128C207.665 182.903 207.25 182.791 206.75 182.791C206.393 182.791 206.083 182.848 205.822 182.962C205.56 183.072 205.357 183.226 205.212 183.422C205.07 183.615 204.999 183.835 204.999 184.082C204.999 184.29 205.047 184.469 205.144 184.619C205.243 184.77 205.373 184.896 205.532 184.999C205.694 185.098 205.867 185.182 206.052 185.25C206.236 185.315 206.414 185.369 206.584 185.412L207.437 185.634C207.715 185.702 208 185.794 208.293 185.911C208.586 186.027 208.857 186.18 209.107 186.371C209.357 186.561 209.559 186.797 209.712 187.078C209.868 187.359 209.947 187.696 209.947 188.088C209.947 188.582 209.819 189.021 209.563 189.405C209.31 189.788 208.942 190.091 208.459 190.312C207.979 190.534 207.398 190.645 206.716 190.645C206.063 190.645 205.498 190.541 205.02 190.334C204.543 190.126 204.17 189.832 203.9 189.452C203.63 189.068 203.481 188.614 203.452 188.088H204.773C204.799 188.403 204.901 188.666 205.08 188.876C205.262 189.084 205.493 189.239 205.775 189.341C206.059 189.44 206.37 189.49 206.708 189.49C207.08 189.49 207.411 189.432 207.701 189.315C207.993 189.196 208.223 189.031 208.391 188.821C208.559 188.608 208.643 188.359 208.643 188.075C208.643 187.817 208.569 187.605 208.421 187.44C208.276 187.276 208.079 187.139 207.829 187.031C207.581 186.923 207.302 186.828 206.989 186.746L205.958 186.464C205.259 186.274 204.705 185.994 204.296 185.625C203.89 185.256 203.687 184.767 203.687 184.159C203.687 183.656 203.823 183.217 204.096 182.842C204.368 182.467 204.738 182.176 205.204 181.969C205.67 181.759 206.195 181.653 206.78 181.653C207.371 181.653 207.893 181.757 208.344 181.964C208.799 182.172 209.157 182.457 209.418 182.821C209.679 183.182 209.816 183.597 209.827 184.065H208.557ZM212.692 186.614V190.5H211.418V181.773H212.675V185.02H212.756C212.909 184.668 213.144 184.388 213.459 184.18C213.774 183.973 214.186 183.869 214.695 183.869C215.144 183.869 215.536 183.962 215.871 184.146C216.209 184.331 216.47 184.607 216.655 184.973C216.842 185.337 216.936 185.791 216.936 186.337V190.5H215.662V186.49C215.662 186.01 215.538 185.638 215.291 185.374C215.044 185.107 214.7 184.973 214.26 184.973C213.959 184.973 213.689 185.037 213.45 185.165C213.215 185.293 213.029 185.48 212.892 185.727C212.759 185.972 212.692 186.267 212.692 186.614ZM220.541 190.645C220.127 190.645 219.752 190.568 219.416 190.415C219.081 190.259 218.815 190.033 218.619 189.737C218.426 189.442 218.33 189.08 218.33 188.651C218.33 188.281 218.401 187.977 218.543 187.739C218.685 187.5 218.877 187.311 219.118 187.172C219.359 187.033 219.629 186.928 219.928 186.857C220.226 186.786 220.53 186.732 220.84 186.695C221.232 186.649 221.55 186.612 221.794 186.584C222.038 186.553 222.216 186.503 222.327 186.435C222.438 186.366 222.493 186.256 222.493 186.102V186.072C222.493 185.7 222.388 185.412 222.178 185.207C221.97 185.003 221.661 184.901 221.249 184.901C220.82 184.901 220.482 184.996 220.234 185.186C219.99 185.374 219.821 185.582 219.727 185.812L218.53 185.54C218.672 185.142 218.879 184.821 219.152 184.577C219.428 184.33 219.744 184.151 220.102 184.04C220.46 183.926 220.837 183.869 221.232 183.869C221.493 183.869 221.77 183.901 222.063 183.963C222.358 184.023 222.634 184.134 222.889 184.295C223.148 184.457 223.359 184.689 223.524 184.99C223.689 185.288 223.771 185.676 223.771 186.153V190.5H222.527V189.605H222.476C222.394 189.77 222.27 189.932 222.105 190.091C221.94 190.25 221.729 190.382 221.47 190.487C221.212 190.592 220.902 190.645 220.541 190.645ZM220.818 189.622C221.171 189.622 221.472 189.553 221.722 189.413C221.975 189.274 222.166 189.092 222.297 188.868C222.431 188.641 222.497 188.398 222.497 188.139V187.295C222.452 187.341 222.364 187.384 222.233 187.423C222.105 187.46 221.959 187.493 221.794 187.521C221.629 187.547 221.469 187.571 221.313 187.594C221.156 187.614 221.026 187.631 220.921 187.645C220.673 187.676 220.448 187.729 220.243 187.803C220.041 187.876 219.879 187.983 219.757 188.122C219.638 188.259 219.578 188.44 219.578 188.668C219.578 188.983 219.695 189.222 219.928 189.384C220.161 189.543 220.458 189.622 220.818 189.622ZM225.469 190.5V183.955H226.7V184.994H226.768C226.888 184.642 227.098 184.365 227.399 184.163C227.703 183.959 228.047 183.857 228.43 183.857C228.51 183.857 228.603 183.859 228.711 183.865C228.822 183.871 228.909 183.878 228.971 183.886V185.105C228.92 185.091 228.829 185.075 228.699 185.058C228.568 185.038 228.437 185.028 228.307 185.028C228.005 185.028 227.737 185.092 227.501 185.22C227.268 185.345 227.084 185.52 226.947 185.744C226.811 185.966 226.743 186.219 226.743 186.503V190.5H225.469ZM232.29 190.628C231.761 190.628 231.29 190.493 230.875 190.223C230.463 189.95 230.139 189.562 229.904 189.06C229.671 188.554 229.554 187.947 229.554 187.24C229.554 186.533 229.672 185.928 229.908 185.425C230.146 184.922 230.473 184.537 230.888 184.27C231.303 184.003 231.773 183.869 232.298 183.869C232.705 183.869 233.031 183.938 233.279 184.074C233.529 184.207 233.722 184.364 233.858 184.543C233.997 184.722 234.105 184.879 234.182 185.016H234.259V181.773H235.533V190.5H234.288V189.482H234.182C234.105 189.621 233.994 189.78 233.85 189.959C233.708 190.138 233.511 190.294 233.261 190.428C233.011 190.561 232.688 190.628 232.29 190.628ZM232.571 189.541C232.938 189.541 233.247 189.445 233.5 189.251C233.756 189.055 233.949 188.784 234.08 188.438C234.213 188.091 234.28 187.687 234.28 187.227C234.28 186.773 234.215 186.375 234.084 186.034C233.953 185.693 233.761 185.428 233.509 185.237C233.256 185.047 232.943 184.952 232.571 184.952C232.188 184.952 231.868 185.051 231.612 185.25C231.357 185.449 231.163 185.72 231.033 186.064C230.905 186.408 230.841 186.795 230.841 187.227C230.841 187.665 230.906 188.058 231.037 188.408C231.168 188.757 231.361 189.034 231.617 189.239C231.875 189.44 232.193 189.541 232.571 189.541Z" fill="#212121"/>
<rect width="61.3333" height="35" transform="translate(266.333 169)" fill="#F2F2F2"/>
<path d="M285.891 184.065C285.845 183.662 285.658 183.349 285.328 183.128C284.999 182.903 284.584 182.791 284.084 182.791C283.726 182.791 283.416 182.848 283.155 182.962C282.893 183.072 282.69 183.226 282.545 183.422C282.403 183.615 282.332 183.835 282.332 184.082C282.332 184.29 282.381 184.469 282.477 184.619C282.577 184.77 282.706 184.896 282.865 184.999C283.027 185.098 283.2 185.182 283.385 185.25C283.57 185.315 283.747 185.369 283.918 185.412L284.77 185.634C285.048 185.702 285.334 185.794 285.626 185.911C285.919 186.027 286.19 186.18 286.44 186.371C286.69 186.561 286.892 186.797 287.045 187.078C287.202 187.359 287.28 187.696 287.28 188.088C287.28 188.582 287.152 189.021 286.896 189.405C286.643 189.788 286.276 190.091 285.793 190.312C285.313 190.534 284.732 190.645 284.05 190.645C283.396 190.645 282.831 190.541 282.354 190.334C281.876 190.126 281.503 189.832 281.233 189.452C280.963 189.068 280.814 188.614 280.786 188.088H282.107C282.132 188.403 282.234 188.666 282.413 188.876C282.595 189.084 282.827 189.239 283.108 189.341C283.392 189.44 283.703 189.49 284.041 189.49C284.413 189.49 284.744 189.432 285.034 189.315C285.327 189.196 285.557 189.031 285.724 188.821C285.892 188.608 285.976 188.359 285.976 188.075C285.976 187.817 285.902 187.605 285.754 187.44C285.609 187.276 285.412 187.139 285.162 187.031C284.915 186.923 284.635 186.828 284.322 186.746L283.291 186.464C282.592 186.274 282.038 185.994 281.629 185.625C281.223 185.256 281.02 184.767 281.02 184.159C281.02 183.656 281.156 183.217 281.429 182.842C281.702 182.467 282.071 182.176 282.537 181.969C283.003 181.759 283.528 181.653 284.114 181.653C284.705 181.653 285.226 181.757 285.678 181.964C286.132 182.172 286.49 182.457 286.751 182.821C287.013 183.182 287.149 183.597 287.161 184.065H285.891ZM290.025 186.614V190.5H288.751V181.773H290.008V185.02H290.089C290.243 184.668 290.477 184.388 290.792 184.18C291.108 183.973 291.52 183.869 292.028 183.869C292.477 183.869 292.869 183.962 293.204 184.146C293.542 184.331 293.804 184.607 293.988 184.973C294.176 185.337 294.27 185.791 294.27 186.337V190.5H292.995V186.49C292.995 186.01 292.872 185.638 292.625 185.374C292.377 185.107 292.034 184.973 291.593 184.973C291.292 184.973 291.022 185.037 290.784 185.165C290.548 185.293 290.362 185.48 290.225 185.727C290.092 185.972 290.025 186.267 290.025 186.614ZM297.875 190.645C297.46 190.645 297.085 190.568 296.75 190.415C296.414 190.259 296.149 190.033 295.953 189.737C295.76 189.442 295.663 189.08 295.663 188.651C295.663 188.281 295.734 187.977 295.876 187.739C296.018 187.5 296.21 187.311 296.451 187.172C296.693 187.033 296.963 186.928 297.261 186.857C297.559 186.786 297.863 186.732 298.173 186.695C298.565 186.649 298.883 186.612 299.127 186.584C299.372 186.553 299.549 186.503 299.66 186.435C299.771 186.366 299.826 186.256 299.826 186.102V186.072C299.826 185.7 299.721 185.412 299.511 185.207C299.304 185.003 298.994 184.901 298.582 184.901C298.153 184.901 297.815 184.996 297.568 185.186C297.324 185.374 297.154 185.582 297.061 185.812L295.863 185.54C296.005 185.142 296.213 184.821 296.485 184.577C296.761 184.33 297.078 184.151 297.436 184.04C297.794 183.926 298.17 183.869 298.565 183.869C298.826 183.869 299.103 183.901 299.396 183.963C299.691 184.023 299.967 184.134 300.223 184.295C300.481 184.457 300.693 184.689 300.858 184.99C301.022 185.288 301.105 185.676 301.105 186.153V190.5H299.86V189.605H299.809C299.727 189.77 299.603 189.932 299.439 190.091C299.274 190.25 299.062 190.382 298.804 190.487C298.545 190.592 298.235 190.645 297.875 190.645ZM298.152 189.622C298.504 189.622 298.805 189.553 299.055 189.413C299.308 189.274 299.5 189.092 299.63 188.868C299.764 188.641 299.831 188.398 299.831 188.139V187.295C299.785 187.341 299.697 187.384 299.566 187.423C299.439 187.46 299.292 187.493 299.127 187.521C298.963 187.547 298.802 187.571 298.646 187.594C298.49 187.614 298.359 187.631 298.254 187.645C298.007 187.676 297.781 187.729 297.576 187.803C297.375 187.876 297.213 187.983 297.091 188.122C296.971 188.259 296.912 188.44 296.912 188.668C296.912 188.983 297.028 189.222 297.261 189.384C297.494 189.543 297.791 189.622 298.152 189.622ZM302.802 190.5V183.955H304.033V184.994H304.102C304.221 184.642 304.431 184.365 304.732 184.163C305.036 183.959 305.38 183.857 305.763 183.857C305.843 183.857 305.937 183.859 306.045 183.865C306.156 183.871 306.242 183.878 306.305 183.886V185.105C306.254 185.091 306.163 185.075 306.032 185.058C305.901 185.038 305.771 185.028 305.64 185.028C305.339 185.028 305.07 185.092 304.835 185.22C304.602 185.345 304.417 185.52 304.281 185.744C304.144 185.966 304.076 186.219 304.076 186.503V190.5H302.802ZM309.623 190.628C309.095 190.628 308.623 190.493 308.208 190.223C307.797 189.95 307.473 189.562 307.237 189.06C307.004 188.554 306.887 187.947 306.887 187.24C306.887 186.533 307.005 185.928 307.241 185.425C307.48 184.922 307.806 184.537 308.221 184.27C308.636 184.003 309.106 183.869 309.632 183.869C310.038 183.869 310.365 183.938 310.612 184.074C310.862 184.207 311.055 184.364 311.191 184.543C311.331 184.722 311.439 184.879 311.515 185.016H311.592V181.773H312.866V190.5H311.622V189.482H311.515C311.439 189.621 311.328 189.78 311.183 189.959C311.041 190.138 310.845 190.294 310.595 190.428C310.345 190.561 310.021 190.628 309.623 190.628ZM309.904 189.541C310.271 189.541 310.581 189.445 310.833 189.251C311.089 189.055 311.282 188.784 311.413 188.438C311.547 188.091 311.613 187.687 311.613 187.227C311.613 186.773 311.548 186.375 311.417 186.034C311.287 185.693 311.095 185.428 310.842 185.237C310.589 185.047 310.277 184.952 309.904 184.952C309.521 184.952 309.201 185.051 308.946 185.25C308.69 185.449 308.497 185.72 308.366 186.064C308.238 186.408 308.174 186.795 308.174 187.227C308.174 187.665 308.24 188.058 308.37 188.408C308.501 188.757 308.694 189.034 308.95 189.239C309.208 189.44 309.527 189.541 309.904 189.541Z" fill="#212121"/>
<rect width="61.3333" height="35" transform="translate(343.667 169)" fill="#F2F2F2"/>
<path d="M363.224 184.065C363.178 183.662 362.991 183.349 362.661 183.128C362.332 182.903 361.917 182.791 361.417 182.791C361.059 182.791 360.75 182.848 360.488 182.962C360.227 183.072 360.024 183.226 359.879 183.422C359.737 183.615 359.666 183.835 359.666 184.082C359.666 184.29 359.714 184.469 359.811 184.619C359.91 184.77 360.039 184.896 360.198 184.999C360.36 185.098 360.534 185.182 360.718 185.25C360.903 185.315 361.08 185.369 361.251 185.412L362.103 185.634C362.382 185.702 362.667 185.794 362.96 185.911C363.252 186.027 363.524 186.18 363.774 186.371C364.024 186.561 364.225 186.797 364.379 187.078C364.535 187.359 364.613 187.696 364.613 188.088C364.613 188.582 364.485 189.021 364.23 189.405C363.977 189.788 363.609 190.091 363.126 190.312C362.646 190.534 362.065 190.645 361.383 190.645C360.73 190.645 360.164 190.541 359.687 190.334C359.21 190.126 358.836 189.832 358.566 189.452C358.296 189.068 358.147 188.614 358.119 188.088H359.44C359.465 188.403 359.568 188.666 359.747 188.876C359.928 189.084 360.16 189.239 360.441 189.341C360.725 189.44 361.036 189.49 361.375 189.49C361.747 189.49 362.078 189.432 362.367 189.315C362.66 189.196 362.89 189.031 363.058 188.821C363.225 188.608 363.309 188.359 363.309 188.075C363.309 187.817 363.235 187.605 363.088 187.44C362.943 187.276 362.745 187.139 362.495 187.031C362.248 186.923 361.968 186.828 361.656 186.746L360.625 186.464C359.926 186.274 359.372 185.994 358.963 185.625C358.556 185.256 358.353 184.767 358.353 184.159C358.353 183.656 358.49 183.217 358.762 182.842C359.035 182.467 359.404 182.176 359.87 181.969C360.336 181.759 360.862 181.653 361.447 181.653C362.038 181.653 362.559 181.757 363.011 181.964C363.465 182.172 363.823 182.457 364.085 182.821C364.346 183.182 364.482 183.597 364.494 184.065H363.224ZM367.359 186.614V190.5H366.084V181.773H367.341V185.02H367.422C367.576 184.668 367.81 184.388 368.126 184.18C368.441 183.973 368.853 183.869 369.361 183.869C369.81 183.869 370.202 183.962 370.538 184.146C370.876 184.331 371.137 184.607 371.322 184.973C371.509 185.337 371.603 185.791 371.603 186.337V190.5H370.329V186.49C370.329 186.01 370.205 185.638 369.958 185.374C369.711 185.107 369.367 184.973 368.927 184.973C368.626 184.973 368.356 185.037 368.117 185.165C367.881 185.293 367.695 185.48 367.559 185.727C367.425 185.972 367.359 186.267 367.359 186.614ZM375.208 190.645C374.793 190.645 374.418 190.568 374.083 190.415C373.748 190.259 373.482 190.033 373.286 189.737C373.093 189.442 372.996 189.08 372.996 188.651C372.996 188.281 373.067 187.977 373.209 187.739C373.351 187.5 373.543 187.311 373.785 187.172C374.026 187.033 374.296 186.928 374.594 186.857C374.893 186.786 375.197 186.732 375.506 186.695C375.898 186.649 376.216 186.612 376.461 186.584C376.705 186.553 376.883 186.503 376.993 186.435C377.104 186.366 377.16 186.256 377.16 186.102V186.072C377.16 185.7 377.055 185.412 376.844 185.207C376.637 185.003 376.327 184.901 375.915 184.901C375.486 184.901 375.148 184.996 374.901 185.186C374.657 185.374 374.488 185.582 374.394 185.812L373.197 185.54C373.339 185.142 373.546 184.821 373.819 184.577C374.094 184.33 374.411 184.151 374.769 184.04C375.127 183.926 375.503 183.869 375.898 183.869C376.16 183.869 376.437 183.901 376.729 183.963C377.025 184.023 377.3 184.134 377.556 184.295C377.814 184.457 378.026 184.689 378.191 184.99C378.356 185.288 378.438 185.676 378.438 186.153V190.5H377.194V189.605H377.143C377.06 189.77 376.937 189.932 376.772 190.091C376.607 190.25 376.395 190.382 376.137 190.487C375.878 190.592 375.569 190.645 375.208 190.645ZM375.485 189.622C375.837 189.622 376.138 189.553 376.388 189.413C376.641 189.274 376.833 189.092 376.964 188.868C377.097 188.641 377.164 188.398 377.164 188.139V187.295C377.118 187.341 377.03 187.384 376.9 187.423C376.772 187.46 376.626 187.493 376.461 187.521C376.296 187.547 376.136 187.571 375.979 187.594C375.823 187.614 375.692 187.631 375.587 187.645C375.34 187.676 375.114 187.729 374.91 187.803C374.708 187.876 374.546 187.983 374.424 188.122C374.305 188.259 374.245 188.44 374.245 188.668C374.245 188.983 374.361 189.222 374.594 189.384C374.827 189.543 375.124 189.622 375.485 189.622ZM380.135 190.5V183.955H381.367V184.994H381.435C381.554 184.642 381.764 184.365 382.066 184.163C382.37 183.959 382.713 183.857 383.097 183.857C383.176 183.857 383.27 183.859 383.378 183.865C383.489 183.871 383.576 183.878 383.638 183.886V185.105C383.587 185.091 383.496 185.075 383.365 185.058C383.235 185.038 383.104 185.028 382.973 185.028C382.672 185.028 382.404 185.092 382.168 185.22C381.935 185.345 381.75 185.52 381.614 185.744C381.477 185.966 381.409 186.219 381.409 186.503V190.5H380.135ZM386.957 190.628C386.428 190.628 385.957 190.493 385.542 190.223C385.13 189.95 384.806 189.562 384.57 189.06C384.337 188.554 384.221 187.947 384.221 187.24C384.221 186.533 384.339 185.928 384.574 185.425C384.813 184.922 385.14 184.537 385.555 184.27C385.969 184.003 386.439 183.869 386.965 183.869C387.371 183.869 387.698 183.938 387.945 184.074C388.195 184.207 388.388 184.364 388.525 184.543C388.664 184.722 388.772 184.879 388.849 185.016H388.925V181.773H390.199V190.5H388.955V189.482H388.849C388.772 189.621 388.661 189.78 388.516 189.959C388.374 190.138 388.178 190.294 387.928 190.428C387.678 190.561 387.354 190.628 386.957 190.628ZM387.238 189.541C387.604 189.541 387.914 189.445 388.167 189.251C388.422 189.055 388.616 188.784 388.746 188.438C388.88 188.091 388.947 187.687 388.947 187.227C388.947 186.773 388.881 186.375 388.751 186.034C388.62 185.693 388.428 185.428 388.175 185.237C387.922 185.047 387.61 184.952 387.238 184.952C386.854 184.952 386.535 185.051 386.279 185.25C386.023 185.449 385.83 185.72 385.699 186.064C385.572 186.408 385.508 186.795 385.508 187.227C385.508 187.665 385.573 188.058 385.704 188.408C385.834 188.757 386.028 189.034 386.283 189.239C386.542 189.44 386.86 189.541 387.238 189.541Z" fill="#212121"/>
<path d="M7 12.5632Lnan nanL7 12.5632C19.5224 14.6001 32.3255 9.81145 40.253 0Lnan nanL40.253 0Lnan nanL40.253 0C48.1806 9.81145 60.9836 14.6001 73.506 12.5632Lnan nanL73.506 12.5632V38.0106C73.506 57.9175 59.7784 75.2517 40.253 80Lnan nanL40.253 80Lnan nanL40.253 80C20.7277 75.2517 7 57.9175 7 38.0106V12.5632Z" fill="#F2F2F2"/>
<path d="M220 51V67" stroke="#F2F2F2" stroke-width="4"/>
<path d="M297 51V67" stroke="#F2F2F2" stroke-width="4"/>
<path d="M374 51V67" stroke="#F2F2F2" stroke-width="4"/>
<path d="M374 153V169" stroke="#F2F2F2" stroke-width="4"/>
<path d="M297 153V169" stroke="#F2F2F2" stroke-width="4"/>
<path d="M220 153V169" stroke="#F2F2F2" stroke-width="4"/>
<rect x="98" y="2" width="398" height="216" stroke="#F2F2F2" stroke-width="4"/>
</svg>
