<svg width="256" height="127" viewBox="0 0 256 127" fill="none" xmlns="http://www.w3.org/2000/svg">
<path d="M36 0.0158634H35V1.01586H36V0.0158634Z" fill="#444444"/>
<path d="M41 0.0158634H40V1.01586H41V0.0158634Z" fill="#444444"/>
<path d="M46 0.0158634H45V1.01586H46V0.0158634Z" fill="#444444"/>
<path d="M51 0.0158634H50V1.01586H51V0.0158634Z" fill="#444444"/>
<path d="M56.0159 0H54.9841V1.03173H56.0159V0Z" fill="#444444"/>
<path d="M61.0159 0H59.9841V1.03173H61.0159V0Z" fill="#444444"/>
<path d="M66.0159 0H64.9841V1.03173H66.0159V0Z" fill="#444444"/>
<path d="M71.0159 0H69.9841V1.03173H71.0159V0Z" fill="#444444"/>
<path d="M76.0159 0H74.9841V1.03173H76.0159V0Z" fill="#444444"/>
<path d="M81.0159 0H79.9841V1.03173H81.0159V0Z" fill="#444444"/>
<path d="M86 0.0158634H85V1.01586H86V0.0158634Z" fill="#444444"/>
<path d="M91 0.0158634H90V1.01586H91V0.0158634Z" fill="#444444"/>
<path d="M96.0159 0H94.9841V1.03173H96.0159V0Z" fill="#444444"/>
<path d="M101 0.0158634H100V1.01586H101V0.0158634Z" fill="#444444"/>
<path d="M106 0.0158634H105V1.01586H106V0.0158634Z" fill="#444444"/>
<path d="M111.016 0H109.984V1.03173H111.016V0Z" fill="#444444"/>
<path d="M116 0.0158634H115V1.01586H116V0.0158634Z" fill="#444444"/>
<path d="M121.016 0H119.984V1.03173H121.016V0Z" fill="#444444"/>
<path d="M126.016 0H124.984V1.03173H126.016V0Z" fill="#444444"/>
<path d="M131.016 0H129.984V1.03173H131.016V0Z" fill="#444444"/>
<path d="M136.016 0H134.984V1.03173H136.016V0Z" fill="#444444"/>
<path d="M141 0.0158634H140V1.01586H141V0.0158634Z" fill="#444444"/>
<path d="M146.016 0H144.984V1.03173H146.016V0Z" fill="#444444"/>
<path d="M151.016 0H149.984V1.03173H151.016V0Z" fill="#444444"/>
<path d="M156.016 0H154.984V1.03173H156.016V0Z" fill="#444444"/>
<path d="M161 0.0158634H160V1.01586H161V0.0158634Z" fill="#444444"/>
<path d="M166.016 0H164.984V1.03173H166.016V0Z" fill="#444444"/>
<path d="M171.016 0H169.984V1.03173H171.016V0Z" fill="#444444"/>
<path d="M176 0.0158634H175V1.01586H176V0.0158634Z" fill="#444444"/>
<path d="M181.016 0H179.984V1.03173H181.016V0Z" fill="#444444"/>
<path d="M186 0.0158634H185V1.01586H186V0.0158634Z" fill="#444444"/>
<path d="M191 0.0158634H190V1.01586H191V0.0158634Z" fill="#444444"/>
<path d="M196.016 0H194.984V1.03173H196.016V0Z" fill="#444444"/>
<path d="M201 0.0158634H200V1.01586H201V0.0158634Z" fill="#444444"/>
<path d="M206 0.0158634H205V1.01586H206V0.0158634Z" fill="#444444"/>
<path d="M211 0.0158634H210V1.01586H211V0.0158634Z" fill="#444444"/>
<path d="M216 0.0158634H215V1.01586H216V0.0158634Z" fill="#444444"/>
<path d="M221 0.0158634H220V1.01586H221V0.0158634Z" fill="#444444"/>
<path d="M21 5.01586H20V6.01586H21V5.01586Z" fill="#444444"/>
<path d="M26 5.01586H25V6.01586H26V5.01586Z" fill="#444444"/>
<path d="M31.1419 4.874H29.8581V6.15773H31.1419V4.874Z" fill="#444444"/>
<path d="M36.3243 4.69156H34.6757V6.34016H36.3243V4.69156Z" fill="#444444"/>
<path d="M41.4425 4.57332H39.5575V6.4584H41.4425V4.57332Z" fill="#444444"/>
<path d="M46.5586 4.45727H44.4414V6.57445H46.5586V4.45727Z" fill="#444444"/>
<path d="M51.6444 4.37148H49.3556V6.66024H51.6444V4.37148Z" fill="#444444"/>
<path d="M56.6728 4.34311H54.3272V6.68862H56.6728V4.34311Z" fill="#444444"/>
<path d="M61.701 4.31483H59.299V6.7169H61.701V4.31483Z" fill="#444444"/>
<path d="M66.6728 4.34311H64.3272V6.68862H66.6728V4.34311Z" fill="#444444"/>
<path d="M71.6728 4.34311H69.3272V6.68862H71.6728V4.34311Z" fill="#444444"/>
<path d="M76.6728 4.34311H74.3272V6.68862H76.6728V4.34311Z" fill="#444444"/>
<path d="M81.701 4.31483H79.299V6.7169H81.701V4.31483Z" fill="#444444"/>
<path d="M86.6728 4.34311H84.3272V6.68862H86.6728V4.34311Z" fill="#444444"/>
<path d="M91.6728 4.34311H89.3272V6.68862H91.6728V4.34311Z" fill="#444444"/>
<path d="M96.6728 4.34311H94.3272V6.68862H96.6728V4.34311Z" fill="#444444"/>
<path d="M101.673 4.34311H99.3272V6.68862H101.673V4.34311Z" fill="#444444"/>
<path d="M106.673 4.34311H104.327V6.68862H106.673V4.34311Z" fill="#444444"/>
<path d="M111.673 4.34311H109.327V6.68862H111.673V4.34311Z" fill="#444444"/>
<path d="M116.673 4.34311H114.327V6.68862H116.673V4.34311Z" fill="#444444"/>
<path d="M121.673 4.34311H119.327V6.68862H121.673V4.34311Z" fill="#444444"/>
<path d="M126.673 4.34311H124.327V6.68862H126.673V4.34311Z" fill="#444444"/>
<path d="M131.673 4.34311H129.327V6.68862H131.673V4.34311Z" fill="#444444"/>
<path d="M136.673 4.34311H134.327V6.68862H136.673V4.34311Z" fill="#444444"/>
<path d="M141.673 4.34311H139.327V6.68862H141.673V4.34311Z" fill="#444444"/>
<path d="M146.673 4.34311H144.327V6.68862H146.673V4.34311Z" fill="#444444"/>
<path d="M151.701 4.31483H149.299V6.7169H151.701V4.31483Z" fill="#444444"/>
<path d="M156.701 4.31483H154.299V6.7169H156.701V4.31483Z" fill="#444444"/>
<path d="M161.673 4.34311H159.327V6.68862H161.673V4.34311Z" fill="#444444"/>
<path d="M166.673 4.34311H164.327V6.68862H166.673V4.34311Z" fill="#444444"/>
<path d="M171.673 4.34311H169.327V6.68862H171.673V4.34311Z" fill="#444444"/>
<path d="M176.673 4.34311H174.327V6.68862H176.673V4.34311Z" fill="#444444"/>
<path d="M181.673 4.34311H179.327V6.68862H181.673V4.34311Z" fill="#444444"/>
<path d="M186.673 4.34311H184.327V6.68862H186.673V4.34311Z" fill="#444444"/>
<path d="M191.673 4.34311H189.327V6.68862H191.673V4.34311Z" fill="#444444"/>
<path d="M196.673 4.34311H194.327V6.68862H196.673V4.34311Z" fill="#444444"/>
<path d="M201.673 4.34311H199.327V6.68862H201.673V4.34311Z" fill="#444444"/>
<path d="M206.644 4.37148H204.356V6.66024H206.644V4.37148Z" fill="#444444"/>
<path d="M211.559 4.45727H209.441V6.57445H211.559V4.45727Z" fill="#444444"/>
<path d="M216.443 4.57332H214.557V6.4584H216.443V4.57332Z" fill="#444444"/>
<path d="M221.324 4.69156H219.676V6.34016H221.324V4.69156Z" fill="#444444"/>
<path d="M226.142 4.874H224.858V6.15773H226.142V4.874Z" fill="#444444"/>
<path d="M231 5.01586H230V6.01586H231V5.01586Z" fill="#444444"/>
<path d="M236 5.01586H235V6.01586H236V5.01586Z" fill="#444444"/>
<path d="M16 10.0159H15V11.0159H16V10.0159Z" fill="#444444"/>
<path d="M21.1728 9.8431H19.8272V11.1886H21.1728V9.8431Z" fill="#444444"/>
<path d="M26.4717 9.54412H24.5283V11.4876H26.4717V9.54412Z" fill="#444444"/>
<path d="M31.7292 9.28665H29.2708V11.7451H31.7292V9.28665Z" fill="#444444"/>
<path d="M36.9514 9.06449H34.0486V11.9672H36.9514V9.06449Z" fill="#444444"/>
<path d="M42.1147 8.90121H38.8853V12.1305H42.1147V8.90121Z" fill="#444444"/>
<path d="M47.2488 8.76702H43.7512V12.2647H47.2488V8.76702Z" fill="#444444"/>
<path d="M52.3286 8.68726H48.6714V12.3445H52.3286V8.68726Z" fill="#444444"/>
<path d="M57.3815 8.63437H53.6185V12.3974H57.3815V8.63437Z" fill="#444444"/>
<path d="M62.3815 8.63437H58.6185V12.3974H62.3815V8.63437Z" fill="#444444"/>
<path d="M67.3815 8.63437H63.6185V12.3974H67.3815V8.63437Z" fill="#444444"/>
<path d="M72.3815 8.63437H68.6185V12.3974H72.3815V8.63437Z" fill="#444444"/>
<path d="M77.3551 8.66078H73.6449V12.3709H77.3551V8.66078Z" fill="#444444"/>
<path d="M82.3815 8.63437H78.6185V12.3974H82.3815V8.63437Z" fill="#444444"/>
<path d="M87.3815 8.63437H83.6185V12.3974H87.3815V8.63437Z" fill="#444444"/>
<path d="M92.3815 8.63437H88.6185V12.3974H92.3815V8.63437Z" fill="#444444"/>
<path d="M97.4079 8.60801H93.5921V12.4237H97.4079V8.60801Z" fill="#444444"/>
<path d="M102.381 8.63437H98.6185V12.3974H102.381V8.63437Z" fill="#444444"/>
<path d="M107.408 8.60801H103.592V12.4237H107.408V8.60801Z" fill="#444444"/>
<path d="M112.382 8.63437H108.618V12.3974H112.382V8.63437Z" fill="#444444"/>
<path d="M117.382 8.63437H113.618V12.3974H117.382V8.63437Z" fill="#444444"/>
<path d="M122.382 8.63437H118.618V12.3974H122.382V8.63437Z" fill="#444444"/>
<path d="M127.382 8.63437H123.618V12.3974H127.382V8.63437Z" fill="#444444"/>
<path d="M132.382 8.63437H128.618V12.3974H132.382V8.63437Z" fill="#444444"/>
<path d="M137.382 8.63437H133.618V12.3974H137.382V8.63437Z" fill="#444444"/>
<path d="M142.382 8.63437H138.618V12.3974H142.382V8.63437Z" fill="#444444"/>
<path d="M147.382 8.63437H143.618V12.3974H147.382V8.63437Z" fill="#444444"/>
<path d="M152.382 8.63437H148.618V12.3974H152.382V8.63437Z" fill="#444444"/>
<path d="M157.408 8.60801H153.592V12.4237H157.408V8.60801Z" fill="#444444"/>
<path d="M162.382 8.63437H158.618V12.3974H162.382V8.63437Z" fill="#444444"/>
<path d="M167.382 8.63437H163.618V12.3974H167.382V8.63437Z" fill="#444444"/>
<path d="M172.382 8.63437H168.618V12.3974H172.382V8.63437Z" fill="#444444"/>
<path d="M177.382 8.63437H173.618V12.3974H177.382V8.63437Z" fill="#444444"/>
<path d="M182.382 8.63437H178.618V12.3974H182.382V8.63437Z" fill="#444444"/>
<path d="M187.408 8.60801H183.592V12.4237H187.408V8.60801Z" fill="#444444"/>
<path d="M192.382 8.63437H188.618V12.3974H192.382V8.63437Z" fill="#444444"/>
<path d="M197.408 8.60801H193.592V12.4237H197.408V8.60801Z" fill="#444444"/>
<path d="M202.355 8.66078H198.645V12.3709H202.355V8.66078Z" fill="#444444"/>
<path d="M207.329 8.68726H203.671V12.3445H207.329V8.68726Z" fill="#444444"/>
<path d="M212.222 8.79374H208.778V12.238H212.222V8.79374Z" fill="#444444"/>
<path d="M217.115 8.90121H213.885V12.1305H217.115V8.90121Z" fill="#444444"/>
<path d="M221.951 9.06449H219.049V11.9672H221.951V9.06449Z" fill="#444444"/>
<path d="M226.729 9.28665H224.271V11.7451H226.729V9.28665Z" fill="#444444"/>
<path d="M231.501 9.51505H229.499V11.5167H231.501V9.51505Z" fill="#444444"/>
<path d="M236.173 9.8431H234.827V11.1886H236.173V9.8431Z" fill="#444444"/>
<path d="M241 10.0159H240V11.0159H241V10.0159Z" fill="#444444"/>
<path d="M11 15.0159H10V16.0159H11V15.0159Z" fill="#444444"/>
<path d="M16.2339 14.7819H14.7661V16.2498H16.2339V14.7819Z" fill="#444444"/>
<path d="M21.6444 14.3715H19.3556V16.6602H21.6444V14.3715Z" fill="#444444"/>
<path d="M27.0333 13.9825H23.9667V17.0492H27.0333V13.9825Z" fill="#444444"/>
<path d="M32.3551 13.6608H28.6449V17.3709H32.3551V13.6608Z" fill="#444444"/>
<path d="M37.5909 13.425H33.4091V17.6068H37.5909V13.425Z" fill="#444444"/>
<path d="M42.7716 13.2443H38.2284V17.7874H42.7716V13.2443Z" fill="#444444"/>
<path d="M47.9247 13.0911H43.0753V17.9406H47.9247V13.0911Z" fill="#444444"/>
<path d="M53.0513 12.9646H47.9487V18.0671H53.0513V12.9646Z" fill="#444444"/>
<path d="M58.1016 12.9142H52.8984V18.1175H58.1016V12.9142Z" fill="#444444"/>
<path d="M63.1016 12.9142H57.8984V18.1175H63.1016V12.9142Z" fill="#444444"/>
<path d="M68.1016 12.9142H62.8984V18.1175H68.1016V12.9142Z" fill="#444444"/>
<path d="M73.1016 12.9142H67.8984V18.1175H73.1016V12.9142Z" fill="#444444"/>
<path d="M78.1016 12.9142H72.8984V18.1175H78.1016V12.9142Z" fill="#444444"/>
<path d="M83.1016 12.9142H77.8984V18.1175H83.1016V12.9142Z" fill="#444444"/>
<path d="M88.1016 12.9142H82.8984V18.1175H88.1016V12.9142Z" fill="#444444"/>
<path d="M93.1016 12.9142H87.8984V18.1175H93.1016V12.9142Z" fill="#444444"/>
<path d="M98.1016 12.9142H92.8984V18.1175H98.1016V12.9142Z" fill="#444444"/>
<path d="M103.102 12.9142H97.8984V18.1175H103.102V12.9142Z" fill="#444444"/>
<path d="M108.102 12.9142H102.898V18.1175H108.102V12.9142Z" fill="#444444"/>
<path d="M113.102 12.9142H107.898V18.1175H113.102V12.9142Z" fill="#444444"/>
<path d="M118.102 12.9142H112.898V18.1175H118.102V12.9142Z" fill="#444444"/>
<path d="M123.102 12.9142H117.898V18.1175H123.102V12.9142Z" fill="#444444"/>
<path d="M128.102 12.9142H122.898V18.1175H128.102V12.9142Z" fill="#444444"/>
<path d="M133.102 12.9142H127.898V18.1175H133.102V12.9142Z" fill="#444444"/>
<path d="M138.102 12.9142H132.898V18.1175H138.102V12.9142Z" fill="#444444"/>
<path d="M143.102 12.9142H137.898V18.1175H143.102V12.9142Z" fill="#444444"/>
<path d="M148.102 12.9142H142.898V18.1175H148.102V12.9142Z" fill="#444444"/>
<path d="M153.102 12.9142H147.898V18.1175H153.102V12.9142Z" fill="#444444"/>
<path d="M158.076 12.9394H152.924V18.0923H158.076V12.9394Z" fill="#444444"/>
<path d="M163.102 12.9142H157.898V18.1175H163.102V12.9142Z" fill="#444444"/>
<path d="M168.102 12.9142H162.898V18.1175H168.102V12.9142Z" fill="#444444"/>
<path d="M173.102 12.9142H167.898V18.1175H173.102V12.9142Z" fill="#444444"/>
<path d="M178.102 12.9142H172.898V18.1175H178.102V12.9142Z" fill="#444444"/>
<path d="M183.102 12.9142H177.898V18.1175H183.102V12.9142Z" fill="#444444"/>
<path d="M188.102 12.9142H182.898V18.1175H188.102V12.9142Z" fill="#444444"/>
<path d="M193.102 12.9142H187.898V18.1175H193.102V12.9142Z" fill="#444444"/>
<path d="M198.102 12.9142H192.898V18.1175H198.102V12.9142Z" fill="#444444"/>
<path d="M203.102 12.9142H197.898V18.1175H203.102V12.9142Z" fill="#444444"/>
<path d="M208.051 12.9646H202.949V18.0671H208.051V12.9646Z" fill="#444444"/>
<path d="M212.95 13.0657H208.05V17.966H212.95V13.0657Z" fill="#444444"/>
<path d="M217.797 13.2186H213.203V17.8131H217.797V13.2186Z" fill="#444444"/>
<path d="M222.591 13.425H218.409V17.6068H222.591V13.425Z" fill="#444444"/>
<path d="M227.329 13.6873H223.671V17.3445H227.329V13.6873Z" fill="#444444"/>
<path d="M232.033 13.9825H228.967V17.0492H232.033V13.9825Z" fill="#444444"/>
<path d="M236.673 14.3431H234.327V16.6886H236.673V14.3431Z" fill="#444444"/>
<path d="M241.234 14.7819H239.766V16.2498H241.234V14.7819Z" fill="#444444"/>
<path d="M246 15.0159H245V16.0159H246V15.0159Z" fill="#444444"/>
<path d="M11.0794 19.9365H9.92062V21.0952H11.0794V19.9365Z" fill="#444444"/>
<path d="M16.6444 19.3715H14.3556V21.6602H16.6444V19.3715Z" fill="#444444"/>
<path d="M22.0876 18.9282H18.9124V22.1035H22.0876V18.9282Z" fill="#444444"/>
<path d="M27.5128 18.5031H23.4872V22.5286H27.5128V18.5031Z" fill="#444444"/>
<path d="M32.8484 18.1675H28.1516V22.8642H32.8484V18.1675Z" fill="#444444"/>
<path d="M38.1267 17.8891H32.8733V23.1426H38.1267V17.8891Z" fill="#444444"/>
<path d="M43.376 17.6399H37.624V23.3919H43.376V17.6399Z" fill="#444444"/>
<path d="M48.5486 17.4673H42.4514V23.5644H48.5486V17.4673Z" fill="#444444"/>
<path d="M53.6465 17.3693H47.3535V23.6624H53.6465V17.3693Z" fill="#444444"/>
<path d="M58.6953 17.3205H52.3047V23.7112H58.6953V17.3205Z" fill="#444444"/>
<path d="M63.7197 17.2962H57.2803V23.7355H63.7197V17.2962Z" fill="#444444"/>
<path d="M68.7197 17.2962H62.2803V23.7355H68.7197V17.2962Z" fill="#444444"/>
<path d="M73.744 17.2718H67.256V23.7599H73.744V17.2718Z" fill="#444444"/>
<path d="M78.7197 17.2962H72.2803V23.7355H78.7197V17.2962Z" fill="#444444"/>
<path d="M83.7197 17.2962H77.2803V23.7355H83.7197V17.2962Z" fill="#444444"/>
<path d="M88.744 17.2718H82.256V23.7599H88.744V17.2718Z" fill="#444444"/>
<path d="M93.7197 17.2962H87.2803V23.7355H93.7197V17.2962Z" fill="#444444"/>
<path d="M98.744 17.2718H92.256V23.7599H98.744V17.2718Z" fill="#444444"/>
<path d="M103.72 17.2962H97.2803V23.7355H103.72V17.2962Z" fill="#444444"/>
<path d="M108.72 17.2962H102.28V23.7355H108.72V17.2962Z" fill="#444444"/>
<path d="M113.744 17.2718H107.256V23.7599H113.744V17.2718Z" fill="#444444"/>
<path d="M118.72 17.2962H112.28V23.7355H118.72V17.2962Z" fill="#444444"/>
<path d="M123.72 17.2962H117.28V23.7355H123.72V17.2962Z" fill="#444444"/>
<path d="M128.744 17.2718H122.256V23.7599H128.744V17.2718Z" fill="#444444"/>
<path d="M133.744 17.2718H127.256V23.7599H133.744V17.2718Z" fill="#444444"/>
<path d="M138.72 17.2962H132.28V23.7355H138.72V17.2962Z" fill="#444444"/>
<path d="M143.72 17.2962H137.28V23.7355H143.72V17.2962Z" fill="#444444"/>
<path d="M148.744 17.2718H142.256V23.7599H148.744V17.2718Z" fill="#444444"/>
<path d="M153.744 17.2718H147.256V23.7599H153.744V17.2718Z" fill="#444444"/>
<path d="M158.744 17.2718H152.256V23.7599H158.744V17.2718Z" fill="#444444"/>
<path d="M163.744 17.2718H157.256V23.7599H163.744V17.2718Z" fill="#444444"/>
<path d="M168.744 17.2718H162.256V23.7599H168.744V17.2718Z" fill="#444444"/>
<path d="M173.72 17.2962H167.28V23.7355H173.72V17.2962Z" fill="#444444"/>
<path d="M178.744 17.2718H172.256V23.7599H178.744V17.2718Z" fill="#444444"/>
<path d="M183.744 17.2718H177.256V23.7599H183.744V17.2718Z" fill="#444444"/>
<path d="M188.72 17.2962H182.28V23.7355H188.72V17.2962Z" fill="#444444"/>
<path d="M193.744 17.2718H187.256V23.7599H193.744V17.2718Z" fill="#444444"/>
<path d="M198.72 17.2962H192.28V23.7355H198.72V17.2962Z" fill="#444444"/>
<path d="M203.72 17.2962H197.28V23.7355H203.72V17.2962Z" fill="#444444"/>
<path d="M208.671 17.3449H202.329V23.6868H208.671V17.3449Z" fill="#444444"/>
<path d="M213.524 17.4919H207.476V23.5399H213.524V17.4919Z" fill="#444444"/>
<path d="M218.376 17.6399H212.624V23.3919H218.376V17.6399Z" fill="#444444"/>
<path d="M223.152 17.864H217.848V23.1677H223.152V17.864Z" fill="#444444"/>
<path d="M227.848 18.1675H223.152V22.8642H227.848V18.1675Z" fill="#444444"/>
<path d="M232.513 18.5031H228.487V22.5286H232.513V18.5031Z" fill="#444444"/>
<path d="M237.115 18.9012H233.885V22.1305H237.115V18.9012Z" fill="#444444"/>
<path d="M241.616 19.4H239.384V21.6318H241.616V19.4Z" fill="#444444"/>
<path d="M246.079 19.9365H244.921V21.0952H246.079V19.9365Z" fill="#444444"/>
<path d="M6 25.0159H5V26.0159H6V25.0159Z" fill="#444444"/>
<path d="M11.3541 24.6618H9.64591V26.37H11.3541V24.6618Z" fill="#444444"/>
<path d="M16.9239 24.092H14.0761V26.9398H16.9239V24.092Z" fill="#444444"/>
<path d="M22.4604 23.5554H18.5396V27.4763H22.4604V23.5554Z" fill="#444444"/>
<path d="M27.9247 23.0911H23.0753V27.9406H27.9247V23.0911Z" fill="#444444"/>
<path d="M33.3016 22.7143H27.6984V28.3174H33.3016V22.7143Z" fill="#444444"/>
<path d="M38.6221 22.3938H32.3779V28.6379H38.6221V22.3938Z" fill="#444444"/>
<path d="M43.8894 22.1264H37.1106V28.9053H43.8894V22.1264Z" fill="#444444"/>
<path d="M49.0339 21.9819H41.9661V29.0498H49.0339V21.9819Z" fill="#444444"/>
<path d="M54.2014 21.8145H46.7986V29.2173H54.2014V21.8145Z" fill="#444444"/>
<path d="M59.249 21.7668H51.751V29.2649H59.249V21.7668Z" fill="#444444"/>
<path d="M64.249 21.7668H56.751V29.2649H64.249V21.7668Z" fill="#444444"/>
<path d="M69.2728 21.743H61.7272V29.2887H69.2728V21.743Z" fill="#444444"/>
<path d="M74.2728 21.743H66.7272V29.2887H74.2728V21.743Z" fill="#444444"/>
<path d="M79.2728 21.743H71.7272V29.2887H79.2728V21.743Z" fill="#444444"/>
<path d="M84.2728 21.743H76.7272V29.2887H84.2728V21.743Z" fill="#444444"/>
<path d="M89.249 21.7668H81.751V29.2649H89.249V21.7668Z" fill="#444444"/>
<path d="M94.2728 21.743H86.7272V29.2887H94.2728V21.743Z" fill="#444444"/>
<path d="M99.2728 21.743H91.7272V29.2887H99.2728V21.743Z" fill="#444444"/>
<path d="M104.249 21.7668H96.751V29.2649H104.249V21.7668Z" fill="#444444"/>
<path d="M109.249 21.7668H101.751V29.2649H109.249V21.7668Z" fill="#444444"/>
<path d="M114.273 21.743H106.727V29.2887H114.273V21.743Z" fill="#444444"/>
<path d="M119.273 21.743H111.727V29.2887H119.273V21.743Z" fill="#444444"/>
<path d="M124.249 21.7668H116.751V29.2649H124.249V21.7668Z" fill="#444444"/>
<path d="M129.273 21.743H121.727V29.2887H129.273V21.743Z" fill="#444444"/>
<path d="M134.273 21.743H126.727V29.2887H134.273V21.743Z" fill="#444444"/>
<path d="M139.273 21.743H131.727V29.2887H139.273V21.743Z" fill="#444444"/>
<path d="M144.273 21.743H136.727V29.2887H144.273V21.743Z" fill="#444444"/>
<path d="M149.273 21.743H141.727V29.2887H149.273V21.743Z" fill="#444444"/>
<path d="M154.273 21.743H146.727V29.2887H154.273V21.743Z" fill="#444444"/>
<path d="M159.273 21.743H151.727V29.2887H159.273V21.743Z" fill="#444444"/>
<path d="M164.273 21.743H156.727V29.2887H164.273V21.743Z" fill="#444444"/>
<path d="M169.249 21.7668H161.751V29.2649H169.249V21.7668Z" fill="#444444"/>
<path d="M174.273 21.743H166.727V29.2887H174.273V21.743Z" fill="#444444"/>
<path d="M179.273 21.743H171.727V29.2887H179.273V21.743Z" fill="#444444"/>
<path d="M184.273 21.743H176.727V29.2887H184.273V21.743Z" fill="#444444"/>
<path d="M189.273 21.743H181.727V29.2887H189.273V21.743Z" fill="#444444"/>
<path d="M194.249 21.7668H186.751V29.2649H194.249V21.7668Z" fill="#444444"/>
<path d="M199.273 21.743H191.727V29.2887H199.273V21.743Z" fill="#444444"/>
<path d="M204.249 21.7668H196.751V29.2649H204.249V21.7668Z" fill="#444444"/>
<path d="M209.178 21.8383H201.822V29.1934H209.178V21.8383Z" fill="#444444"/>
<path d="M214.058 21.9579H206.942V29.0738H214.058V21.9579Z" fill="#444444"/>
<path d="M218.865 22.1506H212.135V28.8811H218.865V22.1506Z" fill="#444444"/>
<path d="M223.647 22.3693H217.353V28.6624H223.647V22.3693Z" fill="#444444"/>
<path d="M228.302 22.7143H222.698V28.3174H228.302V22.7143Z" fill="#444444"/>
<path d="M232.925 23.0911H228.075V27.9406H232.925V23.0911Z" fill="#444444"/>
<path d="M237.487 23.5292H233.513V27.5025H237.487V23.5292Z" fill="#444444"/>
<path d="M241.951 24.0645H239.049V26.9672H241.951V24.0645Z" fill="#444444"/>
<path d="M246.354 24.6618H244.646V26.37H246.354V24.6618Z" fill="#444444"/>
<path d="M251 25.0159H250V26.0159H251V25.0159Z" fill="#444444"/>
<path d="M6 30.0159H5V31.0159H6V30.0159Z" fill="#444444"/>
<path d="M11.5873 29.4286H9.4127V31.6032H11.5873V29.4286Z" fill="#444444"/>
<path d="M17.1954 28.8205H13.8046V32.2112H17.1954V28.8205Z" fill="#444444"/>
<path d="M22.7716 28.2443H18.2284V32.7874H22.7716V28.2443Z" fill="#444444"/>
<path d="M28.2518 27.7641H22.7482V33.2677H28.2518V27.7641Z" fill="#444444"/>
<path d="M33.6709 27.3449H27.3291V33.6868H33.6709V27.3449Z" fill="#444444"/>
<path d="M39.0099 27.0059H31.9901V34.0258H39.0099V27.0059Z" fill="#444444"/>
<path d="M44.2728 26.743H36.7272V34.2887H44.2728V26.743Z" fill="#444444"/>
<path d="M49.4859 26.53H41.5141V34.5018H49.4859V26.53Z" fill="#444444"/>
<path d="M54.627 26.3889H46.373V34.6429H54.627V26.3889Z" fill="#444444"/>
<path d="M59.6973 26.3186H51.3027V34.7131H59.6973V26.3186Z" fill="#444444"/>
<path d="M64.6973 26.3186H56.3027V34.7131H64.6973V26.3186Z" fill="#444444"/>
<path d="M69.7207 26.2952H61.2793V34.7365H69.7207V26.2952Z" fill="#444444"/>
<path d="M74.7207 26.2952H66.2793V34.7365H74.7207V26.2952Z" fill="#444444"/>
<path d="M79.7207 26.2952H71.2793V34.7365H79.7207V26.2952Z" fill="#444444"/>
<path d="M84.7207 26.2952H76.2793V34.7365H84.7207V26.2952Z" fill="#444444"/>
<path d="M89.7207 26.2952H81.2793V34.7365H89.7207V26.2952Z" fill="#444444"/>
<path d="M94.7207 26.2952H86.2793V34.7365H94.7207V26.2952Z" fill="#444444"/>
<path d="M99.7207 26.2952H91.2793V34.7365H99.7207V26.2952Z" fill="#444444"/>
<path d="M104.721 26.2952H96.2793V34.7365H104.721V26.2952Z" fill="#444444"/>
<path d="M109.721 26.2952H101.279V34.7365H109.721V26.2952Z" fill="#444444"/>
<path d="M114.721 26.2952H106.279V34.7365H114.721V26.2952Z" fill="#444444"/>
<path d="M119.721 26.2952H111.279V34.7365H119.721V26.2952Z" fill="#444444"/>
<path d="M124.721 26.2952H116.279V34.7365H124.721V26.2952Z" fill="#444444"/>
<path d="M129.721 26.2952H121.279V34.7365H129.721V26.2952Z" fill="#444444"/>
<path d="M134.721 26.2952H126.279V34.7365H134.721V26.2952Z" fill="#444444"/>
<path d="M139.697 26.3186H131.303V34.7131H139.697V26.3186Z" fill="#444444"/>
<path d="M144.721 26.2952H136.279V34.7365H144.721V26.2952Z" fill="#444444"/>
<path d="M149.721 26.2952H141.279V34.7365H149.721V26.2952Z" fill="#444444"/>
<path d="M154.721 26.2952H146.279V34.7365H154.721V26.2952Z" fill="#444444"/>
<path d="M159.721 26.2952H151.279V34.7365H159.721V26.2952Z" fill="#444444"/>
<path d="M164.721 26.2952H156.279V34.7365H164.721V26.2952Z" fill="#444444"/>
<path d="M169.721 26.2952H161.279V34.7365H169.721V26.2952Z" fill="#444444"/>
<path d="M174.721 26.2952H166.279V34.7365H174.721V26.2952Z" fill="#444444"/>
<path d="M179.721 26.2952H171.279V34.7365H179.721V26.2952Z" fill="#444444"/>
<path d="M184.721 26.2952H176.279V34.7365H184.721V26.2952Z" fill="#444444"/>
<path d="M189.721 26.2952H181.279V34.7365H189.721V26.2952Z" fill="#444444"/>
<path d="M194.721 26.2952H186.279V34.7365H194.721V26.2952Z" fill="#444444"/>
<path d="M199.721 26.2952H191.279V34.7365H199.721V26.2952Z" fill="#444444"/>
<path d="M204.697 26.3186H196.303V34.7131H204.697V26.3186Z" fill="#444444"/>
<path d="M209.627 26.3889H201.373V34.6429H209.627V26.3889Z" fill="#444444"/>
<path d="M214.486 26.53H206.514V34.5018H214.486V26.53Z" fill="#444444"/>
<path d="M219.297 26.7193H211.703V34.3124H219.297V26.7193Z" fill="#444444"/>
<path d="M224.034 26.9819H216.966V34.0498H224.034V26.9819Z" fill="#444444"/>
<path d="M228.671 27.3449H222.329V33.6868H228.671V27.3449Z" fill="#444444"/>
<path d="M233.277 27.7392H227.723V33.2926H233.277V27.7392Z" fill="#444444"/>
<path d="M237.772 28.2443H233.228V32.7874H237.772V28.2443Z" fill="#444444"/>
<path d="M242.195 28.8205H238.805V32.2112H242.195V28.8205Z" fill="#444444"/>
<path d="M246.587 29.4286H244.413V31.6032H246.587V29.4286Z" fill="#444444"/>
<path d="M251 30.0159H250V31.0159H251V30.0159Z" fill="#444444"/>
<path d="M6.14186 34.874H4.85814V36.1577H6.14186V34.874Z" fill="#444444"/>
<path d="M11.7573 34.2586H9.24271V36.7732H11.7573V34.2586Z" fill="#444444"/>
<path d="M17.4342 33.5817H13.5658V37.45H17.4342V33.5817Z" fill="#444444"/>
<path d="M23.026 32.9898H17.974V38.0419H23.026V32.9898Z" fill="#444444"/>
<path d="M28.5486 32.4673H22.4514V38.5644H28.5486V32.4673Z" fill="#444444"/>
<path d="M33.9859 32.03H27.0141V39.0017H33.9859V32.03Z" fill="#444444"/>
<path d="M39.344 31.6718H31.656V39.3599H39.344V31.6718Z" fill="#444444"/>
<path d="M44.627 31.3889H36.373V39.6429H44.627V31.3889Z" fill="#444444"/>
<path d="M49.8373 31.1786H41.1627V39.8532H49.8373V31.1786Z" fill="#444444"/>
<path d="M54.9767 31.0392H46.0233V39.9925H54.9767V31.0392Z" fill="#444444"/>
<path d="M60.0692 30.9467H50.9308V40.0851H60.0692V30.9467Z" fill="#444444"/>
<path d="M65.0692 30.9467H55.9308V40.0851H65.0692V30.9467Z" fill="#444444"/>
<path d="M70.0923 30.9236H60.9077V40.1081H70.0923V30.9236Z" fill="#444444"/>
<path d="M75.0923 30.9236H65.9077V40.1081H75.0923V30.9236Z" fill="#444444"/>
<path d="M80.0923 30.9236H70.9077V40.1081H80.0923V30.9236Z" fill="#444444"/>
<path d="M85.0923 30.9236H75.9077V40.1081H85.0923V30.9236Z" fill="#444444"/>
<path d="M90.0923 30.9236H80.9077V40.1081H90.0923V30.9236Z" fill="#444444"/>
<path d="M95.0923 30.9236H85.9077V40.1081H95.0923V30.9236Z" fill="#444444"/>
<path d="M100.069 30.9467H90.9308V40.0851H100.069V30.9467Z" fill="#444444"/>
<path d="M105.092 30.9236H95.9077V40.1081H105.092V30.9236Z" fill="#444444"/>
<path d="M110.092 30.9236H100.908V40.1081H110.092V30.9236Z" fill="#444444"/>
<path d="M115.092 30.9236H105.908V40.1081H115.092V30.9236Z" fill="#444444"/>
<path d="M120.092 30.9236H110.908V40.1081H120.092V30.9236Z" fill="#444444"/>
<path d="M125.092 30.9236H115.908V40.1081H125.092V30.9236Z" fill="#444444"/>
<path d="M130.092 30.9236H120.908V40.1081H130.092V30.9236Z" fill="#444444"/>
<path d="M135.069 30.9467H125.931V40.0851H135.069V30.9467Z" fill="#444444"/>
<path d="M140.092 30.9236H130.908V40.1081H140.092V30.9236Z" fill="#444444"/>
<path d="M145.092 30.9236H135.908V40.1081H145.092V30.9236Z" fill="#444444"/>
<path d="M150.092 30.9236H140.908V40.1081H150.092V30.9236Z" fill="#444444"/>
<path d="M155.069 30.9467H145.931V40.0851H155.069V30.9467Z" fill="#444444"/>
<path d="M160.069 30.9467H150.931V40.0851H160.069V30.9467Z" fill="#444444"/>
<path d="M165.092 30.9236H155.908V40.1081H165.092V30.9236Z" fill="#444444"/>
<path d="M170.092 30.9236H160.908V40.1081H170.092V30.9236Z" fill="#444444"/>
<path d="M175.092 30.9236H165.908V40.1081H175.092V30.9236Z" fill="#444444"/>
<path d="M180.092 30.9236H170.908V40.1081H180.092V30.9236Z" fill="#444444"/>
<path d="M185.092 30.9236H175.908V40.1081H185.092V30.9236Z" fill="#444444"/>
<path d="M190.092 30.9236H180.908V40.1081H190.092V30.9236Z" fill="#444444"/>
<path d="M195.092 30.9236H185.908V40.1081H195.092V30.9236Z" fill="#444444"/>
<path d="M200.092 30.9236H190.908V40.1081H200.092V30.9236Z" fill="#444444"/>
<path d="M205.092 30.9236H195.908V40.1081H205.092V30.9236Z" fill="#444444"/>
<path d="M210 31.0161H201V40.0157H210V31.0161Z" fill="#444444"/>
<path d="M214.861 31.1553H206.139V39.8764H214.861V31.1553Z" fill="#444444"/>
<path d="M219.627 31.3889H211.373V39.6429H219.627V31.3889Z" fill="#444444"/>
<path d="M224.368 31.6481H216.632V39.3836H224.368V31.6481Z" fill="#444444"/>
<path d="M228.986 32.03H222.014V39.0017H228.986V32.03Z" fill="#444444"/>
<path d="M233.549 32.4673H227.451V38.5644H233.549V32.4673Z" fill="#444444"/>
<path d="M238.026 32.9898H232.974V38.0419H238.026V32.9898Z" fill="#444444"/>
<path d="M242.434 33.5817H238.566V37.45H242.434V33.5817Z" fill="#444444"/>
<path d="M246.757 34.2586H244.243V36.7732H246.757V34.2586Z" fill="#444444"/>
<path d="M251.142 34.874H249.858V36.1577H251.142V34.874Z" fill="#444444"/>
<path d="M1 40.0159H0V41.0159H1V40.0159Z" fill="#444444"/>
<path d="M6.23393 39.7819H4.76607V41.2498H6.23393V39.7819Z" fill="#444444"/>
<path d="M11.9239 39.092H9.07611V41.9398H11.9239V39.092Z" fill="#444444"/>
<path d="M17.5909 38.425H13.4091V42.6068H17.5909V38.425Z" fill="#444444"/>
<path d="M23.2269 37.789H17.7731V43.2427H23.2269V37.789Z" fill="#444444"/>
<path d="M28.7683 37.2475H22.2317V43.7842H28.7683V37.2475Z" fill="#444444"/>
<path d="M34.2014 36.8145H26.7986V44.2173H34.2014V36.8145Z" fill="#444444"/>
<path d="M39.6035 36.4123H31.3965V44.6194H39.6035V36.4123Z" fill="#444444"/>
<path d="M44.9071 36.1088H36.0929V44.9229H44.9071V36.1088Z" fill="#444444"/>
<path d="M50.1154 35.9005H40.8846V45.1312H50.1154V35.9005Z" fill="#444444"/>
<path d="M55.2764 35.7395H45.7236V45.2923H55.2764V35.7395Z" fill="#444444"/>
<path d="M60.3681 35.6478H50.6319V45.3839H60.3681V35.6478Z" fill="#444444"/>
<path d="M65.3909 35.6249H55.6091V45.4068H65.3909V35.6249Z" fill="#444444"/>
<path d="M70.3909 35.6249H60.6091V45.4068H70.3909V35.6249Z" fill="#444444"/>
<path d="M75.3681 35.6478H65.6319V45.3839H75.3681V35.6478Z" fill="#444444"/>
<path d="M80.3681 35.6478H70.6319V45.3839H80.3681V35.6478Z" fill="#444444"/>
<path d="M85.3681 35.6478H75.6319V45.3839H85.3681V35.6478Z" fill="#444444"/>
<path d="M90.3909 35.6249H80.6091V45.4068H90.3909V35.6249Z" fill="#444444"/>
<path d="M95.3909 35.6249H85.6091V45.4068H95.3909V35.6249Z" fill="#444444"/>
<path d="M100.368 35.6478H90.6319V45.3839H100.368V35.6478Z" fill="#444444"/>
<path d="M105.368 35.6478H95.6319V45.3839H105.368V35.6478Z" fill="#444444"/>
<path d="M110.391 35.6249H100.609V45.4068H110.391V35.6249Z" fill="#444444"/>
<path d="M115.391 35.6249H105.609V45.4068H115.391V35.6249Z" fill="#444444"/>
<path d="M120.391 35.6249H110.609V45.4068H120.391V35.6249Z" fill="#444444"/>
<path d="M125.368 35.6478H115.632V45.3839H125.368V35.6478Z" fill="#444444"/>
<path d="M130.368 35.6478H120.632V45.3839H130.368V35.6478Z" fill="#444444"/>
<path d="M135.368 35.6478H125.632V45.3839H135.368V35.6478Z" fill="#444444"/>
<path d="M140.391 35.6249H130.609V45.4068H140.391V35.6249Z" fill="#444444"/>
<path d="M145.368 35.6478H135.632V45.3839H145.368V35.6478Z" fill="#444444"/>
<path d="M150.391 35.6249H140.609V45.4068H150.391V35.6249Z" fill="#444444"/>
<path d="M155.368 35.6478H145.632V45.3839H155.368V35.6478Z" fill="#444444"/>
<path d="M160.391 35.6249H150.609V45.4068H160.391V35.6249Z" fill="#444444"/>
<path d="M165.391 35.6249H155.609V45.4068H165.391V35.6249Z" fill="#444444"/>
<path d="M170.391 35.6249H160.609V45.4068H170.391V35.6249Z" fill="#444444"/>
<path d="M175.391 35.6249H165.609V45.4068H175.391V35.6249Z" fill="#444444"/>
<path d="M180.368 35.6478H170.632V45.3839H180.368V35.6478Z" fill="#444444"/>
<path d="M185.368 35.6478H175.632V45.3839H185.368V35.6478Z" fill="#444444"/>
<path d="M190.391 35.6249H180.609V45.4068H190.391V35.6249Z" fill="#444444"/>
<path d="M195.391 35.6249H185.609V45.4068H195.391V35.6249Z" fill="#444444"/>
<path d="M200.391 35.6249H190.609V45.4068H200.391V35.6249Z" fill="#444444"/>
<path d="M205.368 35.6478H195.632V45.3839H205.368V35.6478Z" fill="#444444"/>
<path d="M210.276 35.7395H200.724V45.2923H210.276V35.7395Z" fill="#444444"/>
<path d="M215.138 35.8774H205.862V45.1543H215.138V35.8774Z" fill="#444444"/>
<path d="M219.907 36.1088H211.093V44.9229H219.907V36.1088Z" fill="#444444"/>
<path d="M224.604 36.4123H216.396V44.6194H224.604V36.4123Z" fill="#444444"/>
<path d="M229.201 36.8145H221.799V44.2173H229.201V36.8145Z" fill="#444444"/>
<path d="M233.744 37.2719H227.256V43.7599H233.744V37.2719Z" fill="#444444"/>
<path d="M238.227 37.789H232.773V43.2427H238.227V37.789Z" fill="#444444"/>
<path d="M242.591 38.425H238.409V42.6068H242.591V38.425Z" fill="#444444"/>
<path d="M246.896 39.1195H244.104V41.9122H246.896V39.1195Z" fill="#444444"/>
<path d="M251.234 39.7819H249.766V41.2498H251.234V39.7819Z" fill="#444444"/>
<path d="M256 40.0159H255V41.0159H256V40.0159Z" fill="#444444"/>
<path d="M1 45.0159H0V46.0159H1V45.0159Z" fill="#444444"/>
<path d="M6.3243 44.6916H4.6757V46.3402H6.3243V44.6916Z" fill="#444444"/>
<path d="M12.0061 44.0098H8.99391V47.0219H12.0061V44.0098Z" fill="#444444"/>
<path d="M17.6944 43.3214H13.3056V47.7103H17.6944V43.3214Z" fill="#444444"/>
<path d="M23.3512 42.6646H17.6488V48.3671H23.3512V42.6646Z" fill="#444444"/>
<path d="M28.9136 42.1023H22.0864V48.9294H28.9136V42.1023Z" fill="#444444"/>
<path d="M34.3914 41.6245H26.6086V49.4073H34.3914V41.6245Z" fill="#444444"/>
<path d="M39.7674 41.2485H31.2326V49.7832H39.7674V41.2485Z" fill="#444444"/>
<path d="M45.0923 40.9236H35.9077V50.1081H45.0923V40.9236Z" fill="#444444"/>
<path d="M50.3223 40.6936H40.6777V50.3381H50.3223V40.6936Z" fill="#444444"/>
<path d="M55.4823 40.5336H45.5177V50.4981H55.4823V40.5336Z" fill="#444444"/>
<path d="M60.5733 40.4425H50.4267V50.5892H60.5733V40.4425Z" fill="#444444"/>
<path d="M65.5961 40.4198H55.4039V50.6119H65.5961V40.4198Z" fill="#444444"/>
<path d="M70.5961 40.4198H60.4039V50.6119H70.5961V40.4198Z" fill="#444444"/>
<path d="M75.5733 40.4425H65.4267V50.5892H75.5733V40.4425Z" fill="#444444"/>
<path d="M80.5961 40.4198H70.4039V50.6119H80.5961V40.4198Z" fill="#444444"/>
<path d="M85.5961 40.4198H75.4039V50.6119H85.5961V40.4198Z" fill="#444444"/>
<path d="M90.5961 40.4198H80.4039V50.6119H90.5961V40.4198Z" fill="#444444"/>
<path d="M95.5961 40.4198H85.4039V50.6119H95.5961V40.4198Z" fill="#444444"/>
<path d="M100.596 40.4198H90.4039V50.6119H100.596V40.4198Z" fill="#444444"/>
<path d="M105.596 40.4198H95.4039V50.6119H105.596V40.4198Z" fill="#444444"/>
<path d="M110.573 40.4425H100.427V50.5892H110.573V40.4425Z" fill="#444444"/>
<path d="M115.596 40.4198H105.404V50.6119H115.596V40.4198Z" fill="#444444"/>
<path d="M120.596 40.4198H110.404V50.6119H120.596V40.4198Z" fill="#444444"/>
<path d="M125.596 40.4198H115.404V50.6119H125.596V40.4198Z" fill="#444444"/>
<path d="M130.596 40.4198H120.404V50.6119H130.596V40.4198Z" fill="#444444"/>
<path d="M135.573 40.4425H125.427V50.5892H135.573V40.4425Z" fill="#444444"/>
<path d="M140.596 40.4198H130.404V50.6119H140.596V40.4198Z" fill="#444444"/>
<path d="M145.596 40.4198H135.404V50.6119H145.596V40.4198Z" fill="#444444"/>
<path d="M150.573 40.4425H140.427V50.5892H150.573V40.4425Z" fill="#444444"/>
<path d="M155.596 40.4198H145.404V50.6119H155.596V40.4198Z" fill="#444444"/>
<path d="M160.596 40.4198H150.404V50.6119H160.596V40.4198Z" fill="#444444"/>
<path d="M165.596 40.4198H155.404V50.6119H165.596V40.4198Z" fill="#444444"/>
<path d="M170.596 40.4198H160.404V50.6119H170.596V40.4198Z" fill="#444444"/>
<path d="M175.596 40.4198H165.404V50.6119H175.596V40.4198Z" fill="#444444"/>
<path d="M180.596 40.4198H170.404V50.6119H180.596V40.4198Z" fill="#444444"/>
<path d="M185.596 40.4198H175.404V50.6119H185.596V40.4198Z" fill="#444444"/>
<path d="M190.596 40.4198H180.404V50.6119H190.596V40.4198Z" fill="#444444"/>
<path d="M195.596 40.4198H185.404V50.6119H195.596V40.4198Z" fill="#444444"/>
<path d="M200.596 40.4198H190.404V50.6119H200.596V40.4198Z" fill="#444444"/>
<path d="M205.573 40.4425H195.427V50.5892H205.573V40.4425Z" fill="#444444"/>
<path d="M210.482 40.5336H200.518V50.4981H210.482V40.5336Z" fill="#444444"/>
<path d="M215.322 40.6936H205.678V50.3381H215.322V40.6936Z" fill="#444444"/>
<path d="M220.092 40.9236H210.908V50.1081H220.092V40.9236Z" fill="#444444"/>
<path d="M224.791 41.2252H216.209V49.8066H224.791V41.2252Z" fill="#444444"/>
<path d="M229.391 41.6245H221.609V49.4073H229.391V41.6245Z" fill="#444444"/>
<path d="M233.914 42.1023H227.086V48.9294H233.914V42.1023Z" fill="#444444"/>
<path d="M238.351 42.6646H232.649V48.3671H238.351V42.6646Z" fill="#444444"/>
<path d="M242.694 43.3214H238.306V47.7103H242.694V43.3214Z" fill="#444444"/>
<path d="M247.006 44.0098H243.994V47.0219H247.006V44.0098Z" fill="#444444"/>
<path d="M251.324 44.6916H249.676V46.3402H251.324V44.6916Z" fill="#444444"/>
<path d="M256 45.0159H255V46.0159H256V45.0159Z" fill="#444444"/>
<path d="M1 50.0159H0V51.0159H1V50.0159Z" fill="#444444"/>
<path d="M6.38372 49.6321H4.61628V51.3996H6.38372V49.6321Z" fill="#444444"/>
<path d="M12.0876 48.9282H8.91238V52.1035H12.0876V48.9282Z" fill="#444444"/>
<path d="M17.7972 48.2187H13.2028V52.8131H17.7972V48.2187Z" fill="#444444"/>
<path d="M23.4501 47.5657H17.5499V53.466H23.4501V47.5657Z" fill="#444444"/>
<path d="M29.0339 46.9819H21.9661V54.0498H29.0339V46.9819Z" fill="#444444"/>
<path d="M34.5095 46.5064H26.4905V54.5253H34.5095V46.5064Z" fill="#444444"/>
<path d="M39.9071 46.1088H31.0929V54.9229H39.9071V46.1088Z" fill="#444444"/>
<path d="M45.2305 45.7854H35.7695V55.2463H45.2305V45.7854Z" fill="#444444"/>
<path d="M50.4594 45.5564H40.5405V55.4753H50.4594V45.5564Z" fill="#444444"/>
<path d="M55.6188 45.3971H45.3812V55.6347H55.6188V45.3971Z" fill="#444444"/>
<path d="M60.7095 45.3063H50.2905V55.7254H60.7095V45.3063Z" fill="#444444"/>
<path d="M65.7322 45.2837H55.2678V55.748H65.7322V45.2837Z" fill="#444444"/>
<path d="M70.7095 45.3063H60.2905V55.7254H70.7095V45.3063Z" fill="#444444"/>
<path d="M75.7095 45.3063H65.2905V55.7254H75.7095V45.3063Z" fill="#444444"/>
<path d="M80.7322 45.2837H70.2678V55.748H80.7322V45.2837Z" fill="#444444"/>
<path d="M85.7322 45.2837H75.2678V55.748H85.7322V45.2837Z" fill="#444444"/>
<path d="M90.7095 45.3063H80.2905V55.7254H90.7095V45.3063Z" fill="#444444"/>
<path d="M95.7095 45.3063H85.2905V55.7254H95.7095V45.3063Z" fill="#444444"/>
<path d="M100.732 45.2837H90.2678V55.748H100.732V45.2837Z" fill="#444444"/>
<path d="M105.71 45.3063H95.2905V55.7254H105.71V45.3063Z" fill="#444444"/>
<path d="M110.732 45.2837H100.268V55.748H110.732V45.2837Z" fill="#444444"/>
<path d="M115.71 45.3063H105.29V55.7254H115.71V45.3063Z" fill="#444444"/>
<path d="M120.732 45.2837H110.268V55.748H120.732V45.2837Z" fill="#444444"/>
<path d="M125.732 45.2837H115.268V55.748H125.732V45.2837Z" fill="#444444"/>
<path d="M130.71 45.3063H120.29V55.7254H130.71V45.3063Z" fill="#444444"/>
<path d="M135.732 45.2837H125.268V55.748H135.732V45.2837Z" fill="#444444"/>
<path d="M140.732 45.2837H130.268V55.748H140.732V45.2837Z" fill="#444444"/>
<path d="M145.732 45.2837H135.268V55.748H145.732V45.2837Z" fill="#444444"/>
<path d="M150.732 45.2837H140.268V55.748H150.732V45.2837Z" fill="#444444"/>
<path d="M155.732 45.2837H145.268V55.748H155.732V45.2837Z" fill="#444444"/>
<path d="M160.71 45.3063H150.29V55.7254H160.71V45.3063Z" fill="#444444"/>
<path d="M165.732 45.2837H155.268V55.748H165.732V45.2837Z" fill="#444444"/>
<path d="M170.732 45.2837H160.268V55.748H170.732V45.2837Z" fill="#444444"/>
<path d="M175.71 45.3063H165.29V55.7254H175.71V45.3063Z" fill="#444444"/>
<path d="M180.71 45.3063H170.29V55.7254H180.71V45.3063Z" fill="#444444"/>
<path d="M185.732 45.2837H175.268V55.748H185.732V45.2837Z" fill="#444444"/>
<path d="M190.732 45.2837H180.268V55.748H190.732V45.2837Z" fill="#444444"/>
<path d="M195.732 45.2837H185.268V55.748H195.732V45.2837Z" fill="#444444"/>
<path d="M200.732 45.2837H190.268V55.748H200.732V45.2837Z" fill="#444444"/>
<path d="M205.687 45.329H195.313V55.7027H205.687V45.329Z" fill="#444444"/>
<path d="M210.619 45.3971H200.381V55.6347H210.619V45.3971Z" fill="#444444"/>
<path d="M215.459 45.5564H205.541V55.4753H215.459V45.5564Z" fill="#444444"/>
<path d="M220.23 45.7854H210.77V55.2463H220.23V45.7854Z" fill="#444444"/>
<path d="M224.884 46.132H216.116V54.8997H224.884V46.132Z" fill="#444444"/>
<path d="M229.486 46.53H221.514V54.5018H229.486V46.53Z" fill="#444444"/>
<path d="M234.01 47.006H226.99V54.0258H234.01V47.006Z" fill="#444444"/>
<path d="M238.45 47.5657H232.55V53.466H238.45V47.5657Z" fill="#444444"/>
<path d="M242.772 48.2443H238.228V52.7874H242.772V48.2443Z" fill="#444444"/>
<path d="M247.061 48.9554H243.939V52.0764H247.061V48.9554Z" fill="#444444"/>
<path d="M251.384 49.6321H249.616V51.3996H251.384V49.6321Z" fill="#444444"/>
<path d="M256 50.0159H255V51.0159H256V50.0159Z" fill="#444444"/>
<path d="M1 55.0159H0V56.0159H1V55.0159Z" fill="#444444"/>
<path d="M6.4132 54.6027H4.5868V56.4291H6.4132V54.6027Z" fill="#444444"/>
<path d="M12.1147 53.9012H8.88535V57.1305H12.1147V53.9012Z" fill="#444444"/>
<path d="M17.7972 53.2187H13.2028V57.8131H17.7972V53.2187Z" fill="#444444"/>
<path d="M23.4994 52.5164H17.5006V58.5153H23.4994V52.5164Z" fill="#444444"/>
<path d="M29.0819 51.934H21.9181V59.0978H29.0819V51.934Z" fill="#444444"/>
<path d="M34.5565 51.4593H26.4435V59.5724H34.5565V51.4593Z" fill="#444444"/>
<path d="M39.9767 51.0392H31.0233V59.9925H39.9767V51.0392Z" fill="#444444"/>
<path d="M45.2534 50.7624H35.7466V60.2693H45.2534V50.7624Z" fill="#444444"/>
<path d="M50.5278 50.488H40.4722V60.5437H50.5278V50.488Z" fill="#444444"/>
<path d="M55.6869 50.329H45.3131V60.7027H55.6869V50.329Z" fill="#444444"/>
<path d="M60.7774 50.2385H50.2226V60.7933H60.7774V50.2385Z" fill="#444444"/>
<path d="M65.7774 50.2385H55.2226V60.7933H65.7774V50.2385Z" fill="#444444"/>
<path d="M70.7774 50.2385H60.2226V60.7933H70.7774V50.2385Z" fill="#444444"/>
<path d="M75.7774 50.2385H65.2226V60.7933H75.7774V50.2385Z" fill="#444444"/>
<path d="M80.7774 50.2385H70.2226V60.7933H80.7774V50.2385Z" fill="#444444"/>
<path d="M85.7774 50.2385H75.2226V60.7933H85.7774V50.2385Z" fill="#444444"/>
<path d="M90.7774 50.2385H80.2226V60.7933H90.7774V50.2385Z" fill="#444444"/>
<path d="M95.8 50.2159H85.2V60.8159H95.8V50.2159Z" fill="#444444"/>
<path d="M100.777 50.2385H90.2226V60.7933H100.777V50.2385Z" fill="#444444"/>
<path d="M105.777 50.2385H95.2226V60.7933H105.777V50.2385Z" fill="#444444"/>
<path d="M110.8 50.2159H100.2V60.8159H110.8V50.2159Z" fill="#444444"/>
<path d="M115.777 50.2385H105.223V60.7933H115.777V50.2385Z" fill="#444444"/>
<path d="M120.777 50.2385H110.223V60.7933H120.777V50.2385Z" fill="#444444"/>
<path d="M125.777 50.2385H115.223V60.7933H125.777V50.2385Z" fill="#444444"/>
<path d="M130.8 50.2159H120.2V60.8159H130.8V50.2159Z" fill="#444444"/>
<path d="M135.777 50.2385H125.223V60.7933H135.777V50.2385Z" fill="#444444"/>
<path d="M140.777 50.2385H130.223V60.7933H140.777V50.2385Z" fill="#444444"/>
<path d="M145.8 50.2159H135.2V60.8159H145.8V50.2159Z" fill="#444444"/>
<path d="M150.777 50.2385H140.223V60.7933H150.777V50.2385Z" fill="#444444"/>
<path d="M155.777 50.2385H145.223V60.7933H155.777V50.2385Z" fill="#444444"/>
<path d="M160.777 50.2385H150.223V60.7933H160.777V50.2385Z" fill="#444444"/>
<path d="M165.777 50.2385H155.223V60.7933H165.777V50.2385Z" fill="#444444"/>
<path d="M170.777 50.2385H160.223V60.7933H170.777V50.2385Z" fill="#444444"/>
<path d="M175.777 50.2385H165.223V60.7933H175.777V50.2385Z" fill="#444444"/>
<path d="M180.777 50.2385H170.223V60.7933H180.777V50.2385Z" fill="#444444"/>
<path d="M185.777 50.2385H175.223V60.7933H185.777V50.2385Z" fill="#444444"/>
<path d="M190.777 50.2385H180.223V60.7933H190.777V50.2385Z" fill="#444444"/>
<path d="M195.777 50.2385H185.223V60.7933H195.777V50.2385Z" fill="#444444"/>
<path d="M200.777 50.2385H190.223V60.7933H200.777V50.2385Z" fill="#444444"/>
<path d="M205.755 50.2611H195.245V60.7707H205.755V50.2611Z" fill="#444444"/>
<path d="M210.687 50.329H200.313V60.7027H210.687V50.329Z" fill="#444444"/>
<path d="M215.505 50.5108H205.495V60.5209H215.505V50.5108Z" fill="#444444"/>
<path d="M220.253 50.7624H210.747V60.2693H220.253V50.7624Z" fill="#444444"/>
<path d="M224.953 51.0624H216.047V59.9693H224.953V51.0624Z" fill="#444444"/>
<path d="M229.533 51.4829H221.467V59.5489H229.533V51.4829Z" fill="#444444"/>
<path d="M234.058 51.9579H226.942V59.0738H234.058V51.9579Z" fill="#444444"/>
<path d="M238.475 52.5411H232.525V58.4907H238.475V52.5411Z" fill="#444444"/>
<path d="M242.823 53.1931H238.177V57.8387H242.823V53.1931Z" fill="#444444"/>
<path d="M247.088 53.9282H243.912V57.1035H247.088V53.9282Z" fill="#444444"/>
<path d="M251.413 54.6027H249.587V56.4291H251.413V54.6027Z" fill="#444444"/>
<path d="M256 55.0159H255V56.0159H256V55.0159Z" fill="#444444"/>
<path d="M1 60.0159H0V61.0159H1V60.0159Z" fill="#444444"/>
<path d="M6.4132 59.6027H4.5868V61.4291H6.4132V59.6027Z" fill="#444444"/>
<path d="M12.0876 58.9282H8.91238V62.1035H12.0876V58.9282Z" fill="#444444"/>
<path d="M17.8228 58.1931H13.1772V62.8387H17.8228V58.1931Z" fill="#444444"/>
<path d="M23.4994 57.5164H17.5006V63.5153H23.4994V57.5164Z" fill="#444444"/>
<path d="M29.0819 56.934H21.9181V64.0978H29.0819V56.934Z" fill="#444444"/>
<path d="M34.5565 56.4593H26.4435V64.5724H34.5565V56.4593Z" fill="#444444"/>
<path d="M39.9535 56.0624H31.0465V64.9693H39.9535V56.0624Z" fill="#444444"/>
<path d="M45.2534 55.7624H35.7466V65.2693H45.2534V55.7624Z" fill="#444444"/>
<path d="M50.5278 55.488H40.4722V65.5437H50.5278V55.488Z" fill="#444444"/>
<path d="M55.6869 55.329H45.3131V65.7027H55.6869V55.329Z" fill="#444444"/>
<path d="M60.7548 55.2611H50.2452V65.7707H60.7548V55.2611Z" fill="#444444"/>
<path d="M65.7774 55.2385H55.2226V65.7933H65.7774V55.2385Z" fill="#444444"/>
<path d="M70.7774 55.2385H60.2226V65.7933H70.7774V55.2385Z" fill="#444444"/>
<path d="M75.7774 55.2385H65.2226V65.7933H75.7774V55.2385Z" fill="#444444"/>
<path d="M80.7774 55.2385H70.2226V65.7933H80.7774V55.2385Z" fill="#444444"/>
<path d="M85.7774 55.2385H75.2226V65.7933H85.7774V55.2385Z" fill="#444444"/>
<path d="M90.7774 55.2385H80.2226V65.7933H90.7774V55.2385Z" fill="#444444"/>
<path d="M95.8 55.2159H85.2V65.8159H95.8V55.2159Z" fill="#444444"/>
<path d="M100.777 55.2385H90.2226V65.7933H100.777V55.2385Z" fill="#444444"/>
<path d="M105.8 55.2159H95.2V65.8159H105.8V55.2159Z" fill="#444444"/>
<path d="M110.777 55.2385H100.223V65.7933H110.777V55.2385Z" fill="#444444"/>
<path d="M115.8 55.2159H105.2V65.8159H115.8V55.2159Z" fill="#444444"/>
<path d="M120.777 55.2385H110.223V65.7933H120.777V55.2385Z" fill="#444444"/>
<path d="M125.8 55.2159H115.2V65.8159H125.8V55.2159Z" fill="#444444"/>
<path d="M130.777 55.2385H120.223V65.7933H130.777V55.2385Z" fill="#444444"/>
<path d="M135.777 55.2385H125.223V65.7933H135.777V55.2385Z" fill="#444444"/>
<path d="M140.777 55.2385H130.223V65.7933H140.777V55.2385Z" fill="#444444"/>
<path d="M145.777 55.2385H135.223V65.7933H145.777V55.2385Z" fill="#444444"/>
<path d="M150.777 55.2385H140.223V65.7933H150.777V55.2385Z" fill="#444444"/>
<path d="M155.777 55.2385H145.223V65.7933H155.777V55.2385Z" fill="#444444"/>
<path d="M160.777 55.2385H150.223V65.7933H160.777V55.2385Z" fill="#444444"/>
<path d="M165.777 55.2385H155.223V65.7933H165.777V55.2385Z" fill="#444444"/>
<path d="M170.755 55.2611H160.245V65.7707H170.755V55.2611Z" fill="#444444"/>
<path d="M175.777 55.2385H165.223V65.7933H175.777V55.2385Z" fill="#444444"/>
<path d="M180.777 55.2385H170.223V65.7933H180.777V55.2385Z" fill="#444444"/>
<path d="M185.777 55.2385H175.223V65.7933H185.777V55.2385Z" fill="#444444"/>
<path d="M190.777 55.2385H180.223V65.7933H190.777V55.2385Z" fill="#444444"/>
<path d="M195.8 55.2159H185.2V65.8159H195.8V55.2159Z" fill="#444444"/>
<path d="M200.777 55.2385H190.223V65.7933H200.777V55.2385Z" fill="#444444"/>
<path d="M205.755 55.2611H195.245V65.7707H205.755V55.2611Z" fill="#444444"/>
<path d="M210.687 55.329H200.313V65.7027H210.687V55.329Z" fill="#444444"/>
<path d="M215.505 55.5108H205.495V65.5209H215.505V55.5108Z" fill="#444444"/>
<path d="M220.276 55.7395H210.724V65.2923H220.276V55.7395Z" fill="#444444"/>
<path d="M224.953 56.0624H216.047V64.9693H224.953V56.0624Z" fill="#444444"/>
<path d="M229.557 56.4593H221.443V64.5724H229.557V56.4593Z" fill="#444444"/>
<path d="M234.082 56.934H226.918V64.0978H234.082V56.934Z" fill="#444444"/>
<path d="M238.499 57.5164H232.501V63.5153H238.499V57.5164Z" fill="#444444"/>
<path d="M242.797 58.2187H238.203V62.8131H242.797V58.2187Z" fill="#444444"/>
<path d="M247.088 58.9282H243.912V62.1035H247.088V58.9282Z" fill="#444444"/>
<path d="M251.384 59.6321H249.616V61.3996H251.384V59.6321Z" fill="#444444"/>
<path d="M256 60.0159H255V61.0159H256V60.0159Z" fill="#444444"/>
<path d="M1 65.0159H0V66.0159H1V65.0159Z" fill="#444444"/>
<path d="M6.4132 64.6027H4.5868V66.4291H6.4132V64.6027Z" fill="#444444"/>
<path d="M12.0876 63.9282H8.91238V67.1035H12.0876V63.9282Z" fill="#444444"/>
<path d="M17.8228 63.1931H13.1772V67.8387H17.8228V63.1931Z" fill="#444444"/>
<path d="M23.4748 62.5411H17.5252V68.4907H23.4748V62.5411Z" fill="#444444"/>
<path d="M29.0819 61.934H21.9181V69.0978H29.0819V61.934Z" fill="#444444"/>
<path d="M34.5565 61.4593H26.4435V69.5724H34.5565V61.4593Z" fill="#444444"/>
<path d="M39.9535 61.0624H31.0465V69.9693H39.9535V61.0624Z" fill="#444444"/>
<path d="M45.2764 60.7395H35.7236V70.2923H45.2764V60.7395Z" fill="#444444"/>
<path d="M50.5278 60.488H40.4722V70.5437H50.5278V60.488Z" fill="#444444"/>
<path d="M55.6869 60.329H45.3131V70.7027H55.6869V60.329Z" fill="#444444"/>
<path d="M60.7774 60.2385H50.2226V70.7933H60.7774V60.2385Z" fill="#444444"/>
<path d="M65.7774 60.2385H55.2226V70.7933H65.7774V60.2385Z" fill="#444444"/>
<path d="M70.7774 60.2385H60.2226V70.7933H70.7774V60.2385Z" fill="#444444"/>
<path d="M75.8 60.2159H65.2V70.8159H75.8V60.2159Z" fill="#444444"/>
<path d="M80.7774 60.2385H70.2226V70.7933H80.7774V60.2385Z" fill="#444444"/>
<path d="M85.7774 60.2385H75.2226V70.7933H85.7774V60.2385Z" fill="#444444"/>
<path d="M90.7774 60.2385H80.2226V70.7933H90.7774V60.2385Z" fill="#444444"/>
<path d="M95.7774 60.2385H85.2226V70.7933H95.7774V60.2385Z" fill="#444444"/>
<path d="M100.777 60.2385H90.2226V70.7933H100.777V60.2385Z" fill="#444444"/>
<path d="M105.777 60.2385H95.2226V70.7933H105.777V60.2385Z" fill="#444444"/>
<path d="M110.777 60.2385H100.223V70.7933H110.777V60.2385Z" fill="#444444"/>
<path d="M115.777 60.2385H105.223V70.7933H115.777V60.2385Z" fill="#444444"/>
<path d="M120.777 60.2385H110.223V70.7933H120.777V60.2385Z" fill="#444444"/>
<path d="M125.777 60.2385H115.223V70.7933H125.777V60.2385Z" fill="#444444"/>
<path d="M130.777 60.2385H120.223V70.7933H130.777V60.2385Z" fill="#444444"/>
<path d="M135.777 60.2385H125.223V70.7933H135.777V60.2385Z" fill="#444444"/>
<path d="M140.777 60.2385H130.223V70.7933H140.777V60.2385Z" fill="#444444"/>
<path d="M145.777 60.2385H135.223V70.7933H145.777V60.2385Z" fill="#444444"/>
<path d="M150.8 60.2159H140.2V70.8159H150.8V60.2159Z" fill="#444444"/>
<path d="M155.8 60.2159H145.2V70.8159H155.8V60.2159Z" fill="#444444"/>
<path d="M160.777 60.2385H150.223V70.7933H160.777V60.2385Z" fill="#444444"/>
<path d="M165.8 60.2159H155.2V70.8159H165.8V60.2159Z" fill="#444444"/>
<path d="M170.777 60.2385H160.223V70.7933H170.777V60.2385Z" fill="#444444"/>
<path d="M175.777 60.2385H165.223V70.7933H175.777V60.2385Z" fill="#444444"/>
<path d="M180.777 60.2385H170.223V70.7933H180.777V60.2385Z" fill="#444444"/>
<path d="M185.777 60.2385H175.223V70.7933H185.777V60.2385Z" fill="#444444"/>
<path d="M190.8 60.2159H180.2V70.8159H190.8V60.2159Z" fill="#444444"/>
<path d="M195.777 60.2385H185.223V70.7933H195.777V60.2385Z" fill="#444444"/>
<path d="M200.777 60.2385H190.223V70.7933H200.777V60.2385Z" fill="#444444"/>
<path d="M205.755 60.2611H195.245V70.7707H205.755V60.2611Z" fill="#444444"/>
<path d="M210.664 60.3517H200.336V70.68H210.664V60.3517Z" fill="#444444"/>
<path d="M215.505 60.5108H205.495V70.5209H215.505V60.5108Z" fill="#444444"/>
<path d="M220.253 60.7624H210.747V70.2693H220.253V60.7624Z" fill="#444444"/>
<path d="M224.953 61.0624H216.047V69.9693H224.953V61.0624Z" fill="#444444"/>
<path d="M229.533 61.4829H221.467V69.5489H229.533V61.4829Z" fill="#444444"/>
<path d="M234.082 61.934H226.918V69.0978H234.082V61.934Z" fill="#444444"/>
<path d="M238.499 62.5164H232.501V68.5153H238.499V62.5164Z" fill="#444444"/>
<path d="M242.797 63.2187H238.203V67.8131H242.797V63.2187Z" fill="#444444"/>
<path d="M247.088 63.9282H243.912V67.1035H247.088V63.9282Z" fill="#444444"/>
<path d="M251.413 64.6027H249.587V66.4291H251.413V64.6027Z" fill="#444444"/>
<path d="M256 65.0159H255V66.0159H256V65.0159Z" fill="#444444"/>
<path d="M1 70.0159H0V71.0159H1V70.0159Z" fill="#444444"/>
<path d="M6.4132 69.6027H4.5868V71.4291H6.4132V69.6027Z" fill="#444444"/>
<path d="M12.0876 68.9282H8.91238V72.1035H12.0876V68.9282Z" fill="#444444"/>
<path d="M17.7972 68.2187H13.2028V72.8131H17.7972V68.2187Z" fill="#444444"/>
<path d="M23.4748 67.5411H17.5252V73.4907H23.4748V67.5411Z" fill="#444444"/>
<path d="M29.0579 66.9579H21.9421V74.0738H29.0579V66.9579Z" fill="#444444"/>
<path d="M34.5565 66.4593H26.4435V74.5724H34.5565V66.4593Z" fill="#444444"/>
<path d="M39.9303 66.0856H31.0697V74.9461H39.9303V66.0856Z" fill="#444444"/>
<path d="M45.2534 65.7624H35.7466V75.2693H45.2534V65.7624Z" fill="#444444"/>
<path d="M50.5051 65.5108H40.4949V75.5209H50.5051V65.5108Z" fill="#444444"/>
<path d="M55.6642 65.3517H45.3358V75.68H55.6642V65.3517Z" fill="#444444"/>
<path d="M60.7548 65.2611H50.2452V75.7707H60.7548V65.2611Z" fill="#444444"/>
<path d="M65.7774 65.2385H55.2226V75.7933H65.7774V65.2385Z" fill="#444444"/>
<path d="M70.7548 65.2611H60.2452V75.7707H70.7548V65.2611Z" fill="#444444"/>
<path d="M75.7774 65.2385H65.2226V75.7933H75.7774V65.2385Z" fill="#444444"/>
<path d="M80.7548 65.2611H70.2452V75.7707H80.7548V65.2611Z" fill="#444444"/>
<path d="M85.7774 65.2385H75.2226V75.7933H85.7774V65.2385Z" fill="#444444"/>
<path d="M90.7548 65.2611H80.2452V75.7707H90.7548V65.2611Z" fill="#444444"/>
<path d="M95.7774 65.2385H85.2226V75.7933H95.7774V65.2385Z" fill="#444444"/>
<path d="M100.755 65.2611H90.2452V75.7707H100.755V65.2611Z" fill="#444444"/>
<path d="M105.777 65.2385H95.2226V75.7933H105.777V65.2385Z" fill="#444444"/>
<path d="M110.755 65.2611H100.245V75.7707H110.755V65.2611Z" fill="#444444"/>
<path d="M115.777 65.2385H105.223V75.7933H115.777V65.2385Z" fill="#444444"/>
<path d="M120.777 65.2385H110.223V75.7933H120.777V65.2385Z" fill="#444444"/>
<path d="M125.755 65.2611H115.245V75.7707H125.755V65.2611Z" fill="#444444"/>
<path d="M130.777 65.2385H120.223V75.7933H130.777V65.2385Z" fill="#444444"/>
<path d="M135.755 65.2611H125.245V75.7707H135.755V65.2611Z" fill="#444444"/>
<path d="M140.755 65.2611H130.245V75.7707H140.755V65.2611Z" fill="#444444"/>
<path d="M145.755 65.2611H135.245V75.7707H145.755V65.2611Z" fill="#444444"/>
<path d="M150.777 65.2385H140.223V75.7933H150.777V65.2385Z" fill="#444444"/>
<path d="M155.777 65.2385H145.223V75.7933H155.777V65.2385Z" fill="#444444"/>
<path d="M160.777 65.2385H150.223V75.7933H160.777V65.2385Z" fill="#444444"/>
<path d="M165.777 65.2385H155.223V75.7933H165.777V65.2385Z" fill="#444444"/>
<path d="M170.755 65.2611H160.245V75.7707H170.755V65.2611Z" fill="#444444"/>
<path d="M175.777 65.2385H165.223V75.7933H175.777V65.2385Z" fill="#444444"/>
<path d="M180.755 65.2611H170.245V75.7707H180.755V65.2611Z" fill="#444444"/>
<path d="M185.777 65.2385H175.223V75.7933H185.777V65.2385Z" fill="#444444"/>
<path d="M190.732 65.2837H180.268V75.748H190.732V65.2837Z" fill="#444444"/>
<path d="M195.777 65.2385H185.223V75.7933H195.777V65.2385Z" fill="#444444"/>
<path d="M200.755 65.2611H190.245V75.7707H200.755V65.2611Z" fill="#444444"/>
<path d="M205.732 65.2837H195.268V75.748H205.732V65.2837Z" fill="#444444"/>
<path d="M210.664 65.3517H200.336V75.68H210.664V65.3517Z" fill="#444444"/>
<path d="M215.482 65.5336H205.518V75.4981H215.482V65.5336Z" fill="#444444"/>
<path d="M220.253 65.7624H210.747V75.2693H220.253V65.7624Z" fill="#444444"/>
<path d="M224.93 66.0856H216.07V74.9461H224.93V66.0856Z" fill="#444444"/>
<path d="M229.533 66.4829H221.467V74.5489H229.533V66.4829Z" fill="#444444"/>
<path d="M234.034 66.9819H226.966V74.0498H234.034V66.9819Z" fill="#444444"/>
<path d="M238.475 67.5411H232.525V73.4907H238.475V67.5411Z" fill="#444444"/>
<path d="M242.823 68.1931H238.177V72.8387H242.823V68.1931Z" fill="#444444"/>
<path d="M247.088 68.9282H243.912V72.1035H247.088V68.9282Z" fill="#444444"/>
<path d="M251.413 69.6027H249.587V71.4291H251.413V69.6027Z" fill="#444444"/>
<path d="M256 70.0159H255V71.0159H256V70.0159Z" fill="#444444"/>
<path d="M1 75.0159H0V76.0159H1V75.0159Z" fill="#444444"/>
<path d="M6.38372 74.6321H4.61628V76.3996H6.38372V74.6321Z" fill="#444444"/>
<path d="M12.0605 73.9554H8.93949V77.0764H12.0605V73.9554Z" fill="#444444"/>
<path d="M17.7459 73.27H13.2541V77.7618H17.7459V73.27Z" fill="#444444"/>
<path d="M23.4255 72.5904H17.5745V78.4413H23.4255V72.5904Z" fill="#444444"/>
<path d="M28.9859 72.03H22.0141V79.0017H28.9859V72.03Z" fill="#444444"/>
<path d="M34.4859 71.53H26.5141V79.5018H34.4859V71.53Z" fill="#444444"/>
<path d="M39.8606 71.1553H31.1394V79.8764H39.8606V71.1553Z" fill="#444444"/>
<path d="M45.1615 70.8544H35.8385V80.1773H45.1615V70.8544Z" fill="#444444"/>
<path d="M50.4138 70.6021H40.5862V80.4296H50.4138V70.6021Z" fill="#444444"/>
<path d="M55.5506 70.4653H45.4494V80.5665H55.5506V70.4653Z" fill="#444444"/>
<path d="M60.6642 70.3517H50.3358V80.68H60.6642V70.3517Z" fill="#444444"/>
<path d="M65.6869 70.329H55.3131V80.7027H65.6869V70.329Z" fill="#444444"/>
<path d="M70.6642 70.3517H60.3358V80.68H70.6642V70.3517Z" fill="#444444"/>
<path d="M75.6869 70.329H65.3131V80.7027H75.6869V70.329Z" fill="#444444"/>
<path d="M80.6642 70.3517H70.3358V80.68H80.6642V70.3517Z" fill="#444444"/>
<path d="M85.6869 70.329H75.3131V80.7027H85.6869V70.329Z" fill="#444444"/>
<path d="M90.6642 70.3517H80.3358V80.68H90.6642V70.3517Z" fill="#444444"/>
<path d="M95.6642 70.3517H85.3358V80.68H95.6642V70.3517Z" fill="#444444"/>
<path d="M100.687 70.329H90.3131V80.7027H100.687V70.329Z" fill="#444444"/>
<path d="M105.664 70.3517H95.3358V80.68H105.664V70.3517Z" fill="#444444"/>
<path d="M110.687 70.329H100.313V80.7027H110.687V70.329Z" fill="#444444"/>
<path d="M115.664 70.3517H105.336V80.68H115.664V70.3517Z" fill="#444444"/>
<path d="M120.664 70.3517H110.336V80.68H120.664V70.3517Z" fill="#444444"/>
<path d="M125.687 70.329H115.313V80.7027H125.687V70.329Z" fill="#444444"/>
<path d="M130.687 70.329H120.313V80.7027H130.687V70.329Z" fill="#444444"/>
<path d="M135.687 70.329H125.313V80.7027H135.687V70.329Z" fill="#444444"/>
<path d="M140.664 70.3517H130.336V80.68H140.664V70.3517Z" fill="#444444"/>
<path d="M145.687 70.329H135.313V80.7027H145.687V70.329Z" fill="#444444"/>
<path d="M150.687 70.329H140.313V80.7027H150.687V70.329Z" fill="#444444"/>
<path d="M155.687 70.329H145.313V80.7027H155.687V70.329Z" fill="#444444"/>
<path d="M160.687 70.329H150.313V80.7027H160.687V70.329Z" fill="#444444"/>
<path d="M165.687 70.329H155.313V80.7027H165.687V70.329Z" fill="#444444"/>
<path d="M170.687 70.329H160.313V80.7027H170.687V70.329Z" fill="#444444"/>
<path d="M175.664 70.3517H165.336V80.68H175.664V70.3517Z" fill="#444444"/>
<path d="M180.687 70.329H170.313V80.7027H180.687V70.329Z" fill="#444444"/>
<path d="M185.687 70.329H175.313V80.7027H185.687V70.329Z" fill="#444444"/>
<path d="M190.687 70.329H180.313V80.7027H190.687V70.329Z" fill="#444444"/>
<path d="M195.664 70.3517H185.336V80.68H195.664V70.3517Z" fill="#444444"/>
<path d="M200.664 70.3517H190.336V80.68H200.664V70.3517Z" fill="#444444"/>
<path d="M205.641 70.3744H195.359V80.6574H205.641V70.3744Z" fill="#444444"/>
<path d="M210.573 70.4425H200.427V80.5892H210.573V70.4425Z" fill="#444444"/>
<path d="M215.391 70.6249H205.609V80.4068H215.391V70.6249Z" fill="#444444"/>
<path d="M220.161 70.8544H210.839V80.1773H220.161V70.8544Z" fill="#444444"/>
<path d="M224.837 71.1786H216.163V79.8532H224.837V71.1786Z" fill="#444444"/>
<path d="M229.462 71.5536H221.538V79.4782H229.462V71.5536Z" fill="#444444"/>
<path d="M233.986 72.03H227.014V79.0017H233.986V72.03Z" fill="#444444"/>
<path d="M238.401 72.6151H232.599V78.4166H238.401V72.6151Z" fill="#444444"/>
<path d="M242.772 73.2443H238.228V77.7874H242.772V73.2443Z" fill="#444444"/>
<path d="M247.061 73.9554H243.939V77.0764H247.061V73.9554Z" fill="#444444"/>
<path d="M251.354 74.6618H249.646V76.3699H251.354V74.6618Z" fill="#444444"/>
<path d="M256 75.0159H255V76.0159H256V75.0159Z" fill="#444444"/>
<path d="M1 80.0159H0V81.0159H1V80.0159Z" fill="#444444"/>
<path d="M6.29435 79.7215H4.70565V81.3102H6.29435V79.7215Z" fill="#444444"/>
<path d="M11.9514 79.0645H9.04863V81.9672H11.9514V79.0645Z" fill="#444444"/>
<path d="M17.6686 78.3472H13.3314V82.6845H17.6686V78.3472Z" fill="#444444"/>
<path d="M23.3264 77.6894H17.6736V83.3423H23.3264V77.6894Z" fill="#444444"/>
<path d="M28.8411 77.1748H22.1589V83.8569H28.8411V77.1748Z" fill="#444444"/>
<path d="M34.3203 76.6955H26.6797V84.3362H34.3203V76.6955Z" fill="#444444"/>
<path d="M39.7207 76.2952H31.2793V84.7365H39.7207V76.2952Z" fill="#444444"/>
<path d="M44.9998 76.016H36.0002V85.0157H44.9998V76.016Z" fill="#444444"/>
<path d="M50.2534 75.7624H40.7466V85.2693H50.2534V75.7624Z" fill="#444444"/>
<path d="M55.3909 75.6249H45.6091V85.4068H55.3909V75.6249Z" fill="#444444"/>
<path d="M60.4823 75.5336H50.5177V85.4981H60.4823V75.5336Z" fill="#444444"/>
<path d="M65.5051 75.5108H55.4949V85.5209H65.5051V75.5108Z" fill="#444444"/>
<path d="M70.5051 75.5108H60.4949V85.5209H70.5051V75.5108Z" fill="#444444"/>
<path d="M75.5051 75.5108H65.4949V85.5209H75.5051V75.5108Z" fill="#444444"/>
<path d="M80.5278 75.488H70.4722V85.5437H80.5278V75.488Z" fill="#444444"/>
<path d="M85.5051 75.5108H75.4949V85.5209H85.5051V75.5108Z" fill="#444444"/>
<path d="M90.5051 75.5108H80.4949V85.5209H90.5051V75.5108Z" fill="#444444"/>
<path d="M95.5278 75.488H85.4722V85.5437H95.5278V75.488Z" fill="#444444"/>
<path d="M100.528 75.488H90.4722V85.5437H100.528V75.488Z" fill="#444444"/>
<path d="M105.528 75.488H95.4722V85.5437H105.528V75.488Z" fill="#444444"/>
<path d="M110.505 75.5108H100.495V85.5209H110.505V75.5108Z" fill="#444444"/>
<path d="M115.505 75.5108H105.495V85.5209H115.505V75.5108Z" fill="#444444"/>
<path d="M120.505 75.5108H110.495V85.5209H120.505V75.5108Z" fill="#444444"/>
<path d="M125.505 75.5108H115.495V85.5209H125.505V75.5108Z" fill="#444444"/>
<path d="M130.505 75.5108H120.495V85.5209H130.505V75.5108Z" fill="#444444"/>
<path d="M135.505 75.5108H125.495V85.5209H135.505V75.5108Z" fill="#444444"/>
<path d="M140.505 75.5108H130.495V85.5209H140.505V75.5108Z" fill="#444444"/>
<path d="M145.528 75.488H135.472V85.5437H145.528V75.488Z" fill="#444444"/>
<path d="M150.505 75.5108H140.495V85.5209H150.505V75.5108Z" fill="#444444"/>
<path d="M155.528 75.488H145.472V85.5437H155.528V75.488Z" fill="#444444"/>
<path d="M160.505 75.5108H150.495V85.5209H160.505V75.5108Z" fill="#444444"/>
<path d="M165.505 75.5108H155.495V85.5209H165.505V75.5108Z" fill="#444444"/>
<path d="M170.528 75.488H160.472V85.5437H170.528V75.488Z" fill="#444444"/>
<path d="M175.505 75.5108H165.495V85.5209H175.505V75.5108Z" fill="#444444"/>
<path d="M180.505 75.5108H170.495V85.5209H180.505V75.5108Z" fill="#444444"/>
<path d="M185.528 75.488H175.472V85.5437H185.528V75.488Z" fill="#444444"/>
<path d="M190.528 75.488H180.472V85.5437H190.528V75.488Z" fill="#444444"/>
<path d="M195.505 75.5108H185.495V85.5209H195.505V75.5108Z" fill="#444444"/>
<path d="M200.528 75.488H190.472V85.5437H200.528V75.488Z" fill="#444444"/>
<path d="M205.482 75.5336H195.518V85.4981H205.482V75.5336Z" fill="#444444"/>
<path d="M210.414 75.6021H200.586V85.4296H210.414V75.6021Z" fill="#444444"/>
<path d="M215.253 75.7624H205.747V85.2693H215.253V75.7624Z" fill="#444444"/>
<path d="M220.023 75.9929H210.977V85.0388H220.023V75.9929Z" fill="#444444"/>
<path d="M224.721 76.2952H216.279V84.7365H224.721V76.2952Z" fill="#444444"/>
<path d="M229.344 76.6718H221.656V84.3599H229.344V76.6718Z" fill="#444444"/>
<path d="M233.865 77.1506H227.135V83.8811H233.865V77.1506Z" fill="#444444"/>
<path d="M238.302 77.7143H232.698V83.3174H238.302V77.7143Z" fill="#444444"/>
<path d="M242.669 78.3472H238.331V82.6845H242.669V78.3472Z" fill="#444444"/>
<path d="M246.979 79.0371H244.021V81.9946H246.979V79.0371Z" fill="#444444"/>
<path d="M251.294 79.7215H249.706V81.3102H251.294V79.7215Z" fill="#444444"/>
<path d="M256 80.0159H255V81.0159H256V80.0159Z" fill="#444444"/>
<path d="M1 85.0159H0V86.0159H1V85.0159Z" fill="#444444"/>
<path d="M6.20345 84.8124H4.79655V86.2193H6.20345V84.8124Z" fill="#444444"/>
<path d="M11.8687 84.1472H9.1313V86.8846H11.8687V84.1472Z" fill="#444444"/>
<path d="M17.5389 83.477H13.4611V87.5547H17.5389V83.477Z" fill="#444444"/>
<path d="M23.1518 82.864H17.8482V88.1677H23.1518V82.864Z" fill="#444444"/>
<path d="M28.6953 82.3205H22.3047V88.7112H28.6953V82.3205Z" fill="#444444"/>
<path d="M34.1298 81.8861H26.8702V89.1456H34.1298V81.8861Z" fill="#444444"/>
<path d="M39.5095 81.5064H31.4905V89.5253H39.5095V81.5064Z" fill="#444444"/>
<path d="M44.814 81.2019H36.186V89.8299H44.814V81.2019Z" fill="#444444"/>
<path d="M50.023 80.9929H40.977V90.0388H50.023V80.9929Z" fill="#444444"/>
<path d="M55.1615 80.8544H45.8385V90.1773H55.1615V80.8544Z" fill="#444444"/>
<path d="M60.2534 80.7624H50.7466V90.2693H60.2534V80.7624Z" fill="#444444"/>
<path d="M65.2764 80.7395H55.7236V90.2923H65.2764V80.7395Z" fill="#444444"/>
<path d="M70.2764 80.7395H60.7236V90.2923H70.2764V80.7395Z" fill="#444444"/>
<path d="M75.2534 80.7624H65.7466V90.2693H75.2534V80.7624Z" fill="#444444"/>
<path d="M80.2534 80.7624H70.7466V90.2693H80.2534V80.7624Z" fill="#444444"/>
<path d="M85.2764 80.7395H75.7236V90.2923H85.2764V80.7395Z" fill="#444444"/>
<path d="M90.2764 80.7395H80.7236V90.2923H90.2764V80.7395Z" fill="#444444"/>
<path d="M95.2764 80.7395H85.7236V90.2923H95.2764V80.7395Z" fill="#444444"/>
<path d="M100.276 80.7395H90.7236V90.2923H100.276V80.7395Z" fill="#444444"/>
<path d="M105.276 80.7395H95.7236V90.2923H105.276V80.7395Z" fill="#444444"/>
<path d="M110.276 80.7395H100.724V90.2923H110.276V80.7395Z" fill="#444444"/>
<path d="M115.276 80.7395H105.724V90.2923H115.276V80.7395Z" fill="#444444"/>
<path d="M120.276 80.7395H110.724V90.2923H120.276V80.7395Z" fill="#444444"/>
<path d="M125.276 80.7395H115.724V90.2923H125.276V80.7395Z" fill="#444444"/>
<path d="M130.276 80.7395H120.724V90.2923H130.276V80.7395Z" fill="#444444"/>
<path d="M135.276 80.7395H125.724V90.2923H135.276V80.7395Z" fill="#444444"/>
<path d="M140.276 80.7395H130.724V90.2923H140.276V80.7395Z" fill="#444444"/>
<path d="M145.253 80.7624H135.747V90.2693H145.253V80.7624Z" fill="#444444"/>
<path d="M150.276 80.7395H140.724V90.2923H150.276V80.7395Z" fill="#444444"/>
<path d="M155.253 80.7624H145.747V90.2693H155.253V80.7624Z" fill="#444444"/>
<path d="M160.276 80.7395H150.724V90.2923H160.276V80.7395Z" fill="#444444"/>
<path d="M165.276 80.7395H155.724V90.2923H165.276V80.7395Z" fill="#444444"/>
<path d="M170.276 80.7395H160.724V90.2923H170.276V80.7395Z" fill="#444444"/>
<path d="M175.253 80.7624H165.747V90.2693H175.253V80.7624Z" fill="#444444"/>
<path d="M180.253 80.7624H170.747V90.2693H180.253V80.7624Z" fill="#444444"/>
<path d="M185.276 80.7395H175.724V90.2923H185.276V80.7395Z" fill="#444444"/>
<path d="M190.276 80.7395H180.724V90.2923H190.276V80.7395Z" fill="#444444"/>
<path d="M195.276 80.7395H185.724V90.2923H195.276V80.7395Z" fill="#444444"/>
<path d="M200.276 80.7395H190.724V90.2923H200.276V80.7395Z" fill="#444444"/>
<path d="M205.276 80.7395H195.724V90.2923H205.276V80.7395Z" fill="#444444"/>
<path d="M210.161 80.8544H200.839V90.1773H210.161V80.8544Z" fill="#444444"/>
<path d="M215 81.016H206V90.0157H215V81.016Z" fill="#444444"/>
<path d="M219.791 81.2252H211.209V89.8066H219.791V81.2252Z" fill="#444444"/>
<path d="M224.509 81.5064H216.491V89.5253H224.509V81.5064Z" fill="#444444"/>
<path d="M229.106 81.91H221.894V89.1217H229.106V81.91Z" fill="#444444"/>
<path d="M233.671 82.3449H227.329V88.6868H233.671V82.3449Z" fill="#444444"/>
<path d="M238.152 82.864H232.848V88.1677H238.152V82.864Z" fill="#444444"/>
<path d="M242.539 83.477H238.461V87.5547H242.539V83.477Z" fill="#444444"/>
<path d="M246.869 84.1472H244.131V86.8846H246.869V84.1472Z" fill="#444444"/>
<path d="M251.203 84.8124H249.797V86.2193H251.203V84.8124Z" fill="#444444"/>
<path d="M6.07938 89.9365H4.92062V91.0952H6.07938V89.9365Z" fill="#444444"/>
<path d="M11.701 89.3148H9.29897V91.7169H11.701V89.3148Z" fill="#444444"/>
<path d="M17.3551 88.6608H13.6449V92.3709H17.3551V88.6608Z" fill="#444444"/>
<path d="M22.9247 88.0911H18.0753V92.9406H22.9247V88.0911Z" fill="#444444"/>
<path d="M28.4255 87.5904H22.5745V93.4413H28.4255V87.5904Z" fill="#444444"/>
<path d="M33.8653 87.1506H27.1347V93.8811H33.8653V87.1506Z" fill="#444444"/>
<path d="M39.2252 86.7906H31.7748V94.2411H39.2252V86.7906Z" fill="#444444"/>
<path d="M44.5095 86.5064H36.4905V94.5253H44.5095V86.5064Z" fill="#444444"/>
<path d="M49.7207 86.2952H41.2793V94.7365H49.7207V86.2952Z" fill="#444444"/>
<path d="M54.8606 86.1553H46.1394V94.8764H54.8606V86.1553Z" fill="#444444"/>
<path d="M59.9303 86.0856H51.0697V94.9461H59.9303V86.0856Z" fill="#444444"/>
<path d="M64.9535 86.0624H56.0465V94.9693H64.9535V86.0624Z" fill="#444444"/>
<path d="M69.9535 86.0624H61.0465V94.9693H69.9535V86.0624Z" fill="#444444"/>
<path d="M74.9535 86.0624H66.0465V94.9693H74.9535V86.0624Z" fill="#444444"/>
<path d="M79.9535 86.0624H71.0465V94.9693H79.9535V86.0624Z" fill="#444444"/>
<path d="M84.9535 86.0624H76.0465V94.9693H84.9535V86.0624Z" fill="#444444"/>
<path d="M89.9535 86.0624H81.0465V94.9693H89.9535V86.0624Z" fill="#444444"/>
<path d="M94.9303 86.0856H86.0697V94.9461H94.9303V86.0856Z" fill="#444444"/>
<path d="M99.9535 86.0624H91.0465V94.9693H99.9535V86.0624Z" fill="#444444"/>
<path d="M104.953 86.0624H96.0465V94.9693H104.953V86.0624Z" fill="#444444"/>
<path d="M109.953 86.0624H101.047V94.9693H109.953V86.0624Z" fill="#444444"/>
<path d="M114.953 86.0624H106.047V94.9693H114.953V86.0624Z" fill="#444444"/>
<path d="M119.953 86.0624H111.047V94.9693H119.953V86.0624Z" fill="#444444"/>
<path d="M124.953 86.0624H116.047V94.9693H124.953V86.0624Z" fill="#444444"/>
<path d="M129.953 86.0624H121.047V94.9693H129.953V86.0624Z" fill="#444444"/>
<path d="M134.953 86.0624H126.047V94.9693H134.953V86.0624Z" fill="#444444"/>
<path d="M139.953 86.0624H131.047V94.9693H139.953V86.0624Z" fill="#444444"/>
<path d="M144.953 86.0624H136.047V94.9693H144.953V86.0624Z" fill="#444444"/>
<path d="M149.953 86.0624H141.047V94.9693H149.953V86.0624Z" fill="#444444"/>
<path d="M154.953 86.0624H146.047V94.9693H154.953V86.0624Z" fill="#444444"/>
<path d="M159.953 86.0624H151.047V94.9693H159.953V86.0624Z" fill="#444444"/>
<path d="M164.953 86.0624H156.047V94.9693H164.953V86.0624Z" fill="#444444"/>
<path d="M169.953 86.0624H161.047V94.9693H169.953V86.0624Z" fill="#444444"/>
<path d="M174.953 86.0624H166.047V94.9693H174.953V86.0624Z" fill="#444444"/>
<path d="M179.953 86.0624H171.047V94.9693H179.953V86.0624Z" fill="#444444"/>
<path d="M184.953 86.0624H176.047V94.9693H184.953V86.0624Z" fill="#444444"/>
<path d="M189.953 86.0624H181.047V94.9693H189.953V86.0624Z" fill="#444444"/>
<path d="M194.953 86.0624H186.047V94.9693H194.953V86.0624Z" fill="#444444"/>
<path d="M199.953 86.0624H191.047V94.9693H199.953V86.0624Z" fill="#444444"/>
<path d="M204.953 86.0624H196.047V94.9693H204.953V86.0624Z" fill="#444444"/>
<path d="M209.861 86.1553H201.139V94.8764H209.861V86.1553Z" fill="#444444"/>
<path d="M214.721 86.2952H206.279V94.7365H214.721V86.2952Z" fill="#444444"/>
<path d="M219.486 86.53H211.514V94.5018H219.486V86.53Z" fill="#444444"/>
<path d="M224.225 86.7906H216.775V94.2411H224.225V86.7906Z" fill="#444444"/>
<path d="M228.865 87.1506H222.135V93.8811H228.865V87.1506Z" fill="#444444"/>
<path d="M233.45 87.5657H227.55V93.466H233.45V87.5657Z" fill="#444444"/>
<path d="M237.925 88.0911H233.075V92.9406H237.925V88.0911Z" fill="#444444"/>
<path d="M242.355 88.6608H238.645V92.3709H242.355V88.6608Z" fill="#444444"/>
<path d="M246.701 89.3148H244.299V91.7169H246.701V89.3148Z" fill="#444444"/>
<path d="M251.079 89.9365H249.921V91.0952H251.079V89.9365Z" fill="#444444"/>
<path d="M6 95.0159H5V96.0159H6V95.0159Z" fill="#444444"/>
<path d="M11.5008 94.515H9.49918V96.5167H11.5008V94.515Z" fill="#444444"/>
<path d="M17.0876 93.9282H13.9124V97.1035H17.0876V93.9282Z" fill="#444444"/>
<path d="M22.6686 93.3472H18.3314V97.6845H22.6686V93.3472Z" fill="#444444"/>
<path d="M28.1267 92.8891H22.8733V98.1426H28.1267V92.8891Z" fill="#444444"/>
<path d="M33.5486 92.4673H27.4514V98.5644H33.5486V92.4673Z" fill="#444444"/>
<path d="M38.8653 92.1506H32.1347V98.8811H38.8653V92.1506Z" fill="#444444"/>
<path d="M44.1298 91.8861H36.8702V99.1456H44.1298V91.8861Z" fill="#444444"/>
<path d="M49.3203 91.6955H41.6797V99.3362H49.3203V91.6955Z" fill="#444444"/>
<path d="M54.4623 91.5536H46.5377V99.4782H54.4623V91.5536Z" fill="#444444"/>
<path d="M59.5565 91.4593H51.4435V99.5724H59.5565V91.4593Z" fill="#444444"/>
<path d="M64.5565 91.4593H56.4435V99.5724H64.5565V91.4593Z" fill="#444444"/>
<path d="M69.533 91.4829H61.467V99.5489H69.533V91.4829Z" fill="#444444"/>
<path d="M74.5565 91.4593H66.4435V99.5724H74.5565V91.4593Z" fill="#444444"/>
<path d="M79.5565 91.4593H71.4435V99.5724H79.5565V91.4593Z" fill="#444444"/>
<path d="M84.5565 91.4593H76.4435V99.5724H84.5565V91.4593Z" fill="#444444"/>
<path d="M89.5565 91.4593H81.4435V99.5724H89.5565V91.4593Z" fill="#444444"/>
<path d="M94.533 91.4829H86.467V99.5489H94.533V91.4829Z" fill="#444444"/>
<path d="M99.5565 91.4593H91.4435V99.5724H99.5565V91.4593Z" fill="#444444"/>
<path d="M104.557 91.4593H96.4435V99.5724H104.557V91.4593Z" fill="#444444"/>
<path d="M109.557 91.4593H101.443V99.5724H109.557V91.4593Z" fill="#444444"/>
<path d="M114.557 91.4593H106.443V99.5724H114.557V91.4593Z" fill="#444444"/>
<path d="M119.557 91.4593H111.443V99.5724H119.557V91.4593Z" fill="#444444"/>
<path d="M124.557 91.4593H116.443V99.5724H124.557V91.4593Z" fill="#444444"/>
<path d="M129.557 91.4593H121.443V99.5724H129.557V91.4593Z" fill="#444444"/>
<path d="M134.557 91.4593H126.443V99.5724H134.557V91.4593Z" fill="#444444"/>
<path d="M139.557 91.4593H131.443V99.5724H139.557V91.4593Z" fill="#444444"/>
<path d="M144.557 91.4593H136.443V99.5724H144.557V91.4593Z" fill="#444444"/>
<path d="M149.557 91.4593H141.443V99.5724H149.557V91.4593Z" fill="#444444"/>
<path d="M154.557 91.4593H146.443V99.5724H154.557V91.4593Z" fill="#444444"/>
<path d="M159.557 91.4593H151.443V99.5724H159.557V91.4593Z" fill="#444444"/>
<path d="M164.557 91.4593H156.443V99.5724H164.557V91.4593Z" fill="#444444"/>
<path d="M169.557 91.4593H161.443V99.5724H169.557V91.4593Z" fill="#444444"/>
<path d="M174.557 91.4593H166.443V99.5724H174.557V91.4593Z" fill="#444444"/>
<path d="M179.533 91.4829H171.467V99.5489H179.533V91.4829Z" fill="#444444"/>
<path d="M184.557 91.4593H176.443V99.5724H184.557V91.4593Z" fill="#444444"/>
<path d="M189.557 91.4593H181.443V99.5724H189.557V91.4593Z" fill="#444444"/>
<path d="M194.557 91.4593H186.443V99.5724H194.557V91.4593Z" fill="#444444"/>
<path d="M199.557 91.4593H191.443V99.5724H199.557V91.4593Z" fill="#444444"/>
<path d="M204.557 91.4593H196.443V99.5724H204.557V91.4593Z" fill="#444444"/>
<path d="M209.462 91.5536H201.538V99.4782H209.462V91.5536Z" fill="#444444"/>
<path d="M214.32 91.6955H206.68V99.3362H214.32V91.6955Z" fill="#444444"/>
<path d="M219.13 91.8861H211.87V99.1456H219.13V91.8861Z" fill="#444444"/>
<path d="M223.865 92.1506H217.135V98.8811H223.865V92.1506Z" fill="#444444"/>
<path d="M228.549 92.4673H222.451V98.5644H228.549V92.4673Z" fill="#444444"/>
<path d="M233.152 92.864H227.848V98.1677H233.152V92.864Z" fill="#444444"/>
<path d="M237.669 93.3472H233.331V97.6845H237.669V93.3472Z" fill="#444444"/>
<path d="M242.088 93.9282H238.912V97.1035H242.088V93.9282Z" fill="#444444"/>
<path d="M246.501 94.515H244.499V96.5167H246.501V94.515Z" fill="#444444"/>
<path d="M251 95.0159H250V96.0159H251V95.0159Z" fill="#444444"/>
<path d="M6 100.016H5V101.016H6V100.016Z" fill="#444444"/>
<path d="M11.2339 99.7819H9.76607V101.25H11.2339V99.7819Z" fill="#444444"/>
<path d="M16.8132 99.2027H14.1868V101.829H16.8132V99.2027Z" fill="#444444"/>
<path d="M22.3286 98.6873H18.6714V102.344H22.3286V98.6873Z" fill="#444444"/>
<path d="M27.7716 98.2443H23.2284V102.787H27.7716V98.2443Z" fill="#444444"/>
<path d="M33.1518 97.864H27.8482V103.168H33.1518V97.864Z" fill="#444444"/>
<path d="M38.4255 97.5904H32.5745V103.441H38.4255V97.5904Z" fill="#444444"/>
<path d="M43.6953 97.3205H37.3047V103.711H43.6953V97.3205Z" fill="#444444"/>
<path d="M48.8894 97.1264H42.1106V103.905H48.8894V97.1264Z" fill="#444444"/>
<path d="M53.9859 97.03H47.0141V104.002H53.9859V97.03Z" fill="#444444"/>
<path d="M59.0579 96.9579H51.9421V104.074H59.0579V96.9579Z" fill="#444444"/>
<path d="M64.0579 96.9579H56.9421V104.074H64.0579V96.9579Z" fill="#444444"/>
<path d="M69.0579 96.9579H61.9421V104.074H69.0579V96.9579Z" fill="#444444"/>
<path d="M74.0819 96.934H66.9181V104.098H74.0819V96.934Z" fill="#444444"/>
<path d="M79.0819 96.934H71.9181V104.098H79.0819V96.934Z" fill="#444444"/>
<path d="M84.0579 96.9579H76.9421V104.074H84.0579V96.9579Z" fill="#444444"/>
<path d="M89.0819 96.934H81.9181V104.098H89.0819V96.934Z" fill="#444444"/>
<path d="M94.0579 96.9579H86.9421V104.074H94.0579V96.9579Z" fill="#444444"/>
<path d="M99.0819 96.934H91.9181V104.098H99.0819V96.934Z" fill="#444444"/>
<path d="M104.082 96.934H96.9181V104.098H104.082V96.934Z" fill="#444444"/>
<path d="M109.058 96.9579H101.942V104.074H109.058V96.9579Z" fill="#444444"/>
<path d="M114.058 96.9579H106.942V104.074H114.058V96.9579Z" fill="#444444"/>
<path d="M119.082 96.934H111.918V104.098H119.082V96.934Z" fill="#444444"/>
<path d="M124.058 96.9579H116.942V104.074H124.058V96.9579Z" fill="#444444"/>
<path d="M129.058 96.9579H121.942V104.074H129.058V96.9579Z" fill="#444444"/>
<path d="M134.082 96.934H126.918V104.098H134.082V96.934Z" fill="#444444"/>
<path d="M139.082 96.934H131.918V104.098H139.082V96.934Z" fill="#444444"/>
<path d="M144.058 96.9579H136.942V104.074H144.058V96.9579Z" fill="#444444"/>
<path d="M149.082 96.934H141.918V104.098H149.082V96.934Z" fill="#444444"/>
<path d="M154.082 96.934H146.918V104.098H154.082V96.934Z" fill="#444444"/>
<path d="M159.082 96.934H151.918V104.098H159.082V96.934Z" fill="#444444"/>
<path d="M164.058 96.9579H156.942V104.074H164.058V96.9579Z" fill="#444444"/>
<path d="M169.058 96.9579H161.942V104.074H169.058V96.9579Z" fill="#444444"/>
<path d="M174.082 96.934H166.918V104.098H174.082V96.934Z" fill="#444444"/>
<path d="M179.058 96.9579H171.942V104.074H179.058V96.9579Z" fill="#444444"/>
<path d="M184.082 96.934H176.918V104.098H184.082V96.934Z" fill="#444444"/>
<path d="M189.082 96.934H181.918V104.098H189.082V96.934Z" fill="#444444"/>
<path d="M194.058 96.9579H186.942V104.074H194.058V96.9579Z" fill="#444444"/>
<path d="M199.082 96.934H191.918V104.098H199.082V96.934Z" fill="#444444"/>
<path d="M204.058 96.9579H196.942V104.074H204.058V96.9579Z" fill="#444444"/>
<path d="M209.01 97.006H201.99V104.026H209.01V97.006Z" fill="#444444"/>
<path d="M213.865 97.1506H207.135V103.881H213.865V97.1506Z" fill="#444444"/>
<path d="M218.671 97.3449H212.329V103.687H218.671V97.3449Z" fill="#444444"/>
<path d="M223.45 97.5657H217.55V103.466H223.45V97.5657Z" fill="#444444"/>
<path d="M228.152 97.864H222.848V103.168H228.152V97.864Z" fill="#444444"/>
<path d="M232.746 98.27H228.254V102.762H232.746V98.27Z" fill="#444444"/>
<path d="M237.355 98.6608H233.645V102.371H237.355V98.6608Z" fill="#444444"/>
<path d="M241.813 99.2027H239.187V101.829H241.813V99.2027Z" fill="#444444"/>
<path d="M246.234 99.7819H244.766V101.25H246.234V99.7819Z" fill="#444444"/>
<path d="M251 100.016H250V101.016H251V100.016Z" fill="#444444"/>
<path d="M11 105.016H10V106.016H11V105.016Z" fill="#444444"/>
<path d="M16.4717 104.544H14.5283V106.488H16.4717V104.544Z" fill="#444444"/>
<path d="M21.9514 104.064H19.0486V106.967H21.9514V104.064Z" fill="#444444"/>
<path d="M27.3551 103.661H23.6449V107.371H27.3551V103.661Z" fill="#444444"/>
<path d="M32.6686 103.347H28.3314V107.684H32.6686V103.347Z" fill="#444444"/>
<path d="M37.9247 103.091H33.0753V107.941H37.9247V103.091Z" fill="#444444"/>
<path d="M43.1518 102.864H37.8482V108.168H43.1518V102.864Z" fill="#444444"/>
<path d="M48.3264 102.689H42.6736V108.342H48.3264V102.689Z" fill="#444444"/>
<path d="M53.4255 102.59H47.5745V108.441H53.4255V102.59Z" fill="#444444"/>
<path d="M58.4748 102.541H52.5252V108.491H58.4748V102.541Z" fill="#444444"/>
<path d="M63.4994 102.516H57.5006V108.515H63.4994V102.516Z" fill="#444444"/>
<path d="M68.4994 102.516H62.5006V108.515H68.4994V102.516Z" fill="#444444"/>
<path d="M73.4994 102.516H67.5006V108.515H73.4994V102.516Z" fill="#444444"/>
<path d="M78.4994 102.516H72.5006V108.515H78.4994V102.516Z" fill="#444444"/>
<path d="M83.4994 102.516H77.5006V108.515H83.4994V102.516Z" fill="#444444"/>
<path d="M88.4748 102.541H82.5252V108.491H88.4748V102.541Z" fill="#444444"/>
<path d="M93.4748 102.541H87.5252V108.491H93.4748V102.541Z" fill="#444444"/>
<path d="M98.4994 102.516H92.5006V108.515H98.4994V102.516Z" fill="#444444"/>
<path d="M103.499 102.516H97.5006V108.515H103.499V102.516Z" fill="#444444"/>
<path d="M108.475 102.541H102.525V108.491H108.475V102.541Z" fill="#444444"/>
<path d="M113.499 102.516H107.501V108.515H113.499V102.516Z" fill="#444444"/>
<path d="M118.499 102.516H112.501V108.515H118.499V102.516Z" fill="#444444"/>
<path d="M123.499 102.516H117.501V108.515H123.499V102.516Z" fill="#444444"/>
<path d="M128.499 102.516H122.501V108.515H128.499V102.516Z" fill="#444444"/>
<path d="M133.499 102.516H127.501V108.515H133.499V102.516Z" fill="#444444"/>
<path d="M138.499 102.516H132.501V108.515H138.499V102.516Z" fill="#444444"/>
<path d="M143.499 102.516H137.501V108.515H143.499V102.516Z" fill="#444444"/>
<path d="M148.499 102.516H142.501V108.515H148.499V102.516Z" fill="#444444"/>
<path d="M153.499 102.516H147.501V108.515H153.499V102.516Z" fill="#444444"/>
<path d="M158.499 102.516H152.501V108.515H158.499V102.516Z" fill="#444444"/>
<path d="M163.499 102.516H157.501V108.515H163.499V102.516Z" fill="#444444"/>
<path d="M168.499 102.516H162.501V108.515H168.499V102.516Z" fill="#444444"/>
<path d="M173.499 102.516H167.501V108.515H173.499V102.516Z" fill="#444444"/>
<path d="M178.475 102.541H172.525V108.491H178.475V102.541Z" fill="#444444"/>
<path d="M183.499 102.516H177.501V108.515H183.499V102.516Z" fill="#444444"/>
<path d="M188.499 102.516H182.501V108.515H188.499V102.516Z" fill="#444444"/>
<path d="M193.499 102.516H187.501V108.515H193.499V102.516Z" fill="#444444"/>
<path d="M198.499 102.516H192.501V108.515H198.499V102.516Z" fill="#444444"/>
<path d="M203.475 102.541H197.525V108.491H203.475V102.541Z" fill="#444444"/>
<path d="M208.425 102.59H202.575V108.441H208.425V102.59Z" fill="#444444"/>
<path d="M213.326 102.689H207.674V108.342H213.326V102.689Z" fill="#444444"/>
<path d="M218.152 102.864H212.848V108.168H218.152V102.864Z" fill="#444444"/>
<path d="M222.925 103.091H218.075V107.941H222.925V103.091Z" fill="#444444"/>
<path d="M227.669 103.347H223.331V107.684H227.669V103.347Z" fill="#444444"/>
<path d="M232.355 103.661H228.645V107.371H232.355V103.661Z" fill="#444444"/>
<path d="M236.924 104.092H234.076V106.94H236.924V104.092Z" fill="#444444"/>
<path d="M241.472 104.544H239.528V106.488H241.472V104.544Z" fill="#444444"/>
<path d="M246 105.016H245V106.016H246V105.016Z" fill="#444444"/>
<path d="M11 110.016H10V111.016H11V110.016Z" fill="#444444"/>
<path d="M16.0478 109.968H14.9522V111.064H16.0478V109.968Z" fill="#444444"/>
<path d="M21.4717 109.544H19.5283V111.488H21.4717V109.544Z" fill="#444444"/>
<path d="M26.8132 109.203H24.1868V111.829H26.8132V109.203Z" fill="#444444"/>
<path d="M32.0876 108.928H28.9124V112.103H32.0876V108.928Z" fill="#444444"/>
<path d="M37.3551 108.661H33.6449V112.371H37.3551V108.661Z" fill="#444444"/>
<path d="M42.5389 108.477H38.4611V112.555H42.5389V108.477Z" fill="#444444"/>
<path d="M47.6686 108.347H43.3314V112.684H47.6686V108.347Z" fill="#444444"/>
<path d="M52.7716 108.244H48.2284V112.787H52.7716V108.244Z" fill="#444444"/>
<path d="M57.7972 108.219H53.2028V112.813H57.7972V108.219Z" fill="#444444"/>
<path d="M62.8228 108.193H58.1772V112.839H62.8228V108.193Z" fill="#444444"/>
<path d="M67.8228 108.193H63.1772V112.839H67.8228V108.193Z" fill="#444444"/>
<path d="M72.7972 108.219H68.2028V112.813H72.7972V108.219Z" fill="#444444"/>
<path d="M77.8228 108.193H73.1772V112.839H77.8228V108.193Z" fill="#444444"/>
<path d="M82.8228 108.193H78.1772V112.839H82.8228V108.193Z" fill="#444444"/>
<path d="M87.8228 108.193H83.1772V112.839H87.8228V108.193Z" fill="#444444"/>
<path d="M92.8228 108.193H88.1772V112.839H92.8228V108.193Z" fill="#444444"/>
<path d="M97.8228 108.193H93.1772V112.839H97.8228V108.193Z" fill="#444444"/>
<path d="M102.823 108.193H98.1772V112.839H102.823V108.193Z" fill="#444444"/>
<path d="M107.797 108.219H103.203V112.813H107.797V108.219Z" fill="#444444"/>
<path d="M112.823 108.193H108.177V112.839H112.823V108.193Z" fill="#444444"/>
<path d="M117.823 108.193H113.177V112.839H117.823V108.193Z" fill="#444444"/>
<path d="M122.797 108.219H118.203V112.813H122.797V108.219Z" fill="#444444"/>
<path d="M127.823 108.193H123.177V112.839H127.823V108.193Z" fill="#444444"/>
<path d="M132.823 108.193H128.177V112.839H132.823V108.193Z" fill="#444444"/>
<path d="M137.823 108.193H133.177V112.839H137.823V108.193Z" fill="#444444"/>
<path d="M142.823 108.193H138.177V112.839H142.823V108.193Z" fill="#444444"/>
<path d="M147.823 108.193H143.177V112.839H147.823V108.193Z" fill="#444444"/>
<path d="M152.823 108.193H148.177V112.839H152.823V108.193Z" fill="#444444"/>
<path d="M157.797 108.219H153.203V112.813H157.797V108.219Z" fill="#444444"/>
<path d="M162.823 108.193H158.177V112.839H162.823V108.193Z" fill="#444444"/>
<path d="M167.823 108.193H163.177V112.839H167.823V108.193Z" fill="#444444"/>
<path d="M172.823 108.193H168.177V112.839H172.823V108.193Z" fill="#444444"/>
<path d="M177.797 108.219H173.203V112.813H177.797V108.219Z" fill="#444444"/>
<path d="M182.797 108.219H178.203V112.813H182.797V108.219Z" fill="#444444"/>
<path d="M187.823 108.193H183.177V112.839H187.823V108.193Z" fill="#444444"/>
<path d="M192.797 108.219H188.203V112.813H192.797V108.219Z" fill="#444444"/>
<path d="M197.823 108.193H193.177V112.839H197.823V108.193Z" fill="#444444"/>
<path d="M202.797 108.219H198.203V112.813H202.797V108.219Z" fill="#444444"/>
<path d="M207.772 108.244H203.228V112.787H207.772V108.244Z" fill="#444444"/>
<path d="M212.669 108.347H208.331V112.684H212.669V108.347Z" fill="#444444"/>
<path d="M217.539 108.477H213.461V112.555H217.539V108.477Z" fill="#444444"/>
<path d="M222.329 108.687H218.671V112.344H222.329V108.687Z" fill="#444444"/>
<path d="M227.088 108.928H223.912V112.103H227.088V108.928Z" fill="#444444"/>
<path d="M231.813 109.203H229.187V111.829H231.813V109.203Z" fill="#444444"/>
<path d="M236.472 109.544H234.528V111.488H236.472V109.544Z" fill="#444444"/>
<path d="M241.048 109.968H239.952V111.064H241.048V109.968Z" fill="#444444"/>
<path d="M246 110.016H245V111.016H246V110.016Z" fill="#444444"/>
<path d="M21 115.016H20V116.016H21V115.016Z" fill="#444444"/>
<path d="M26.2642 114.752H24.7358V116.28H26.2642V114.752Z" fill="#444444"/>
<path d="M31.4717 114.544H29.5283V116.488H31.4717V114.544Z" fill="#444444"/>
<path d="M36.701 114.315H34.299V116.717H36.701V114.315Z" fill="#444444"/>
<path d="M41.841 114.175H39.159V116.857H41.841V114.175Z" fill="#444444"/>
<path d="M46.9788 114.037H44.0212V116.995H46.9788V114.037Z" fill="#444444"/>
<path d="M52.0605 113.955H48.9395V117.076H52.0605V113.955Z" fill="#444444"/>
<path d="M57.0876 113.928H53.9124V117.103H57.0876V113.928Z" fill="#444444"/>
<path d="M62.0876 113.928H58.9124V117.103H62.0876V113.928Z" fill="#444444"/>
<path d="M67.0876 113.928H63.9124V117.103H67.0876V113.928Z" fill="#444444"/>
<path d="M72.0876 113.928H68.9124V117.103H72.0876V113.928Z" fill="#444444"/>
<path d="M77.0876 113.928H73.9124V117.103H77.0876V113.928Z" fill="#444444"/>
<path d="M82.0876 113.928H78.9124V117.103H82.0876V113.928Z" fill="#444444"/>
<path d="M87.0876 113.928H83.9124V117.103H87.0876V113.928Z" fill="#444444"/>
<path d="M92.0876 113.928H88.9124V117.103H92.0876V113.928Z" fill="#444444"/>
<path d="M97.0876 113.928H93.9124V117.103H97.0876V113.928Z" fill="#444444"/>
<path d="M102.088 113.928H98.9124V117.103H102.088V113.928Z" fill="#444444"/>
<path d="M107.088 113.928H103.912V117.103H107.088V113.928Z" fill="#444444"/>
<path d="M112.088 113.928H108.912V117.103H112.088V113.928Z" fill="#444444"/>
<path d="M117.088 113.928H113.912V117.103H117.088V113.928Z" fill="#444444"/>
<path d="M122.088 113.928H118.912V117.103H122.088V113.928Z" fill="#444444"/>
<path d="M127.088 113.928H123.912V117.103H127.088V113.928Z" fill="#444444"/>
<path d="M132.115 113.901H128.885V117.131H132.115V113.901Z" fill="#444444"/>
<path d="M137.088 113.928H133.912V117.103H137.088V113.928Z" fill="#444444"/>
<path d="M142.088 113.928H138.912V117.103H142.088V113.928Z" fill="#444444"/>
<path d="M147.088 113.928H143.912V117.103H147.088V113.928Z" fill="#444444"/>
<path d="M152.061 113.955H148.939V117.076H152.061V113.955Z" fill="#444444"/>
<path d="M157.088 113.928H153.912V117.103H157.088V113.928Z" fill="#444444"/>
<path d="M162.115 113.901H158.885V117.131H162.115V113.901Z" fill="#444444"/>
<path d="M167.088 113.928H163.912V117.103H167.088V113.928Z" fill="#444444"/>
<path d="M172.088 113.928H168.912V117.103H172.088V113.928Z" fill="#444444"/>
<path d="M177.088 113.928H173.912V117.103H177.088V113.928Z" fill="#444444"/>
<path d="M182.088 113.928H178.912V117.103H182.088V113.928Z" fill="#444444"/>
<path d="M187.115 113.901H183.885V117.131H187.115V113.901Z" fill="#444444"/>
<path d="M192.088 113.928H188.912V117.103H192.088V113.928Z" fill="#444444"/>
<path d="M197.088 113.928H193.912V117.103H197.088V113.928Z" fill="#444444"/>
<path d="M202.115 113.901H198.885V117.131H202.115V113.901Z" fill="#444444"/>
<path d="M207.061 113.955H203.939V117.076H207.061V113.955Z" fill="#444444"/>
<path d="M211.979 114.037H209.021V116.995H211.979V114.037Z" fill="#444444"/>
<path d="M216.841 114.175H214.159V116.857H216.841V114.175Z" fill="#444444"/>
<path d="M221.673 114.343H219.327V116.689H221.673V114.343Z" fill="#444444"/>
<path d="M226.472 114.544H224.528V116.488H226.472V114.544Z" fill="#444444"/>
<path d="M231.264 114.752H229.736V116.28H231.264V114.752Z" fill="#444444"/>
<path d="M236 115.016H235V116.016H236V115.016Z" fill="#444444"/>
<path d="M241 115.016H240V116.016H241V115.016Z" fill="#444444"/>
<path d="M26 120.016H25V121.016H26V120.016Z" fill="#444444"/>
<path d="M31 120.016H30V121.016H31V120.016Z" fill="#444444"/>
<path d="M36.0794 119.936H34.9206V121.095H36.0794V119.936Z" fill="#444444"/>
<path d="M41.2034 119.812H39.7966V121.219H41.2034V119.812Z" fill="#444444"/>
<path d="M46.2943 119.722H44.7057V121.31H46.2943V119.722Z" fill="#444444"/>
<path d="M51.3837 119.632H49.6163V121.4H51.3837V119.632Z" fill="#444444"/>
<path d="M56.4132 119.603H54.5868V121.429H56.4132V119.603Z" fill="#444444"/>
<path d="M61.4132 119.603H59.5868V121.429H61.4132V119.603Z" fill="#444444"/>
<path d="M66.4132 119.603H64.5868V121.429H66.4132V119.603Z" fill="#444444"/>
<path d="M71.4132 119.603H69.5868V121.429H71.4132V119.603Z" fill="#444444"/>
<path d="M76.4132 119.603H74.5868V121.429H76.4132V119.603Z" fill="#444444"/>
<path d="M81.3837 119.632H79.6163V121.4H81.3837V119.632Z" fill="#444444"/>
<path d="M86.4132 119.603H84.5868V121.429H86.4132V119.603Z" fill="#444444"/>
<path d="M91.4132 119.603H89.5868V121.429H91.4132V119.603Z" fill="#444444"/>
<path d="M96.4132 119.603H94.5868V121.429H96.4132V119.603Z" fill="#444444"/>
<path d="M101.413 119.603H99.5868V121.429H101.413V119.603Z" fill="#444444"/>
<path d="M106.413 119.603H104.587V121.429H106.413V119.603Z" fill="#444444"/>
<path d="M111.413 119.603H109.587V121.429H111.413V119.603Z" fill="#444444"/>
<path d="M116.413 119.603H114.587V121.429H116.413V119.603Z" fill="#444444"/>
<path d="M121.413 119.603H119.587V121.429H121.413V119.603Z" fill="#444444"/>
<path d="M126.413 119.603H124.587V121.429H126.413V119.603Z" fill="#444444"/>
<path d="M131.413 119.603H129.587V121.429H131.413V119.603Z" fill="#444444"/>
<path d="M136.413 119.603H134.587V121.429H136.413V119.603Z" fill="#444444"/>
<path d="M141.413 119.603H139.587V121.429H141.413V119.603Z" fill="#444444"/>
<path d="M146.413 119.603H144.587V121.429H146.413V119.603Z" fill="#444444"/>
<path d="M151.413 119.603H149.587V121.429H151.413V119.603Z" fill="#444444"/>
<path d="M156.413 119.603H154.587V121.429H156.413V119.603Z" fill="#444444"/>
<path d="M161.413 119.603H159.587V121.429H161.413V119.603Z" fill="#444444"/>
<path d="M166.413 119.603H164.587V121.429H166.413V119.603Z" fill="#444444"/>
<path d="M171.413 119.603H169.587V121.429H171.413V119.603Z" fill="#444444"/>
<path d="M176.413 119.603H174.587V121.429H176.413V119.603Z" fill="#444444"/>
<path d="M181.413 119.603H179.587V121.429H181.413V119.603Z" fill="#444444"/>
<path d="M186.413 119.603H184.587V121.429H186.413V119.603Z" fill="#444444"/>
<path d="M191.413 119.603H189.587V121.429H191.413V119.603Z" fill="#444444"/>
<path d="M196.413 119.603H194.587V121.429H196.413V119.603Z" fill="#444444"/>
<path d="M201.413 119.603H199.587V121.429H201.413V119.603Z" fill="#444444"/>
<path d="M206.354 119.662H204.646V121.37H206.354V119.662Z" fill="#444444"/>
<path d="M211.324 119.692H209.676V121.34H211.324V119.692Z" fill="#444444"/>
<path d="M216.203 119.812H214.797V121.219H216.203V119.812Z" fill="#444444"/>
<path d="M221.079 119.936H219.921V121.095H221.079V119.936Z" fill="#444444"/>
<path d="M226 120.016H225V121.016H226V120.016Z" fill="#444444"/>
<path d="M231 120.016H230V121.016H231V120.016Z" fill="#444444"/>
<path d="M41 125.016H40V126.016H41V125.016Z" fill="#444444"/>
<path d="M46 125.016H45V126.016H46V125.016Z" fill="#444444"/>
<path d="M51 125.016H50V126.016H51V125.016Z" fill="#444444"/>
<path d="M56 125.016H55V126.016H56V125.016Z" fill="#444444"/>
<path d="M61 125.016H60V126.016H61V125.016Z" fill="#444444"/>
<path d="M66 125.016H65V126.016H66V125.016Z" fill="#444444"/>
<path d="M71 125.016H70V126.016H71V125.016Z" fill="#444444"/>
<path d="M76 125.016H75V126.016H76V125.016Z" fill="#444444"/>
<path d="M81 125.016H80V126.016H81V125.016Z" fill="#444444"/>
<path d="M86 125.016H85V126.016H86V125.016Z" fill="#444444"/>
<path d="M91 125.016H90V126.016H91V125.016Z" fill="#444444"/>
<path d="M96 125.016H95V126.016H96V125.016Z" fill="#444444"/>
<path d="M101 125.016H100V126.016H101V125.016Z" fill="#444444"/>
<path d="M106 125.016H105V126.016H106V125.016Z" fill="#444444"/>
<path d="M111 125.016H110V126.016H111V125.016Z" fill="#444444"/>
<path d="M116 125.016H115V126.016H116V125.016Z" fill="#444444"/>
<path d="M121 125.016H120V126.016H121V125.016Z" fill="#444444"/>
<path d="M126 125.016H125V126.016H126V125.016Z" fill="#444444"/>
<path d="M131 125.016H130V126.016H131V125.016Z" fill="#444444"/>
<path d="M136 125.016H135V126.016H136V125.016Z" fill="#444444"/>
<path d="M141 125.016H140V126.016H141V125.016Z" fill="#444444"/>
<path d="M146 125.016H145V126.016H146V125.016Z" fill="#444444"/>
<path d="M151 125.016H150V126.016H151V125.016Z" fill="#444444"/>
<path d="M156 125.016H155V126.016H156V125.016Z" fill="#444444"/>
<path d="M161 125.016H160V126.016H161V125.016Z" fill="#444444"/>
<path d="M166 125.016H165V126.016H166V125.016Z" fill="#444444"/>
<path d="M171 125.016H170V126.016H171V125.016Z" fill="#444444"/>
<path d="M176 125.016H175V126.016H176V125.016Z" fill="#444444"/>
<path d="M181 125.016H180V126.016H181V125.016Z" fill="#444444"/>
<path d="M186 125.016H185V126.016H186V125.016Z" fill="#444444"/>
<path d="M191 125.016H190V126.016H191V125.016Z" fill="#444444"/>
<path d="M196 125.016H195V126.016H196V125.016Z" fill="#444444"/>
<path d="M201 125.016H200V126.016H201V125.016Z" fill="#444444"/>
<path d="M206 125.016H205V126.016H206V125.016Z" fill="#444444"/>
<path d="M211 125.016H210V126.016H211V125.016Z" fill="#444444"/>
<path d="M216 125.016H215V126.016H216V125.016Z" fill="#444444"/>
</svg>
