<svg width="112" height="73" viewBox="0 0 112 73" fill="none" xmlns="http://www.w3.org/2000/svg">
<path d="M3.64644 72.3536C3.8417 72.5488 4.15829 72.5488 4.35355 72.3536L7.53553 69.1716C7.73079 68.9763 7.73079 68.6597 7.53553 68.4645C7.34027 68.2692 7.02369 68.2692 6.82842 68.4645L4 71.2929L1.17157 68.4645C0.976307 68.2692 0.659724 68.2692 0.464462 68.4645C0.2692 68.6597 0.2692 68.9763 0.464462 69.1716L3.64644 72.3536ZM3.5 -1.63918e-08L3.5 1L4.5 1L4.5 1.63918e-08L3.5 -1.63918e-08ZM3.5 3L3.5 5L4.5 5L4.5 3L3.5 3ZM3.5 7L3.5 9L4.5 9L4.5 7L3.5 7ZM3.5 11L3.5 13L4.5 13L4.5 11L3.5 11ZM3.5 15L3.5 17L4.5 17L4.5 15L3.5 15ZM3.5 19L3.5 21L4.5 21L4.5 19L3.5 19ZM3.5 23L3.5 25L4.5 25L4.5 23L3.5 23ZM3.5 27L3.5 29L4.5 29L4.5 27L3.5 27ZM3.5 31L3.5 33L4.5 33L4.5 31L3.5 31ZM3.5 35L3.5 37L4.5 37L4.5 35L3.5 35ZM3.5 39L3.5 41L4.5 41L4.5 39L3.5 39ZM3.5 43L3.5 45L4.5 45L4.5 43L3.5 43ZM3.5 47L3.5 49L4.5 49L4.5 47L3.5 47ZM3.5 51L3.5 53L4.5 53L4.5 51L3.5 51ZM3.5 55L3.5 57L4.5 57L4.5 55L3.5 55ZM3.5 59L3.5 61L4.5 61L4.5 59L3.5 59ZM3.5 63L3.5 65L4.5 65L4.5 63L3.5 63ZM3.5 67L3.5 69L4.5 69L4.5 67L3.5 67ZM3.5 71L3.5 72L4.5 72L4.5 71L3.5 71Z" fill="#727272"/>
<path d="M29.6464 72.3536C29.8417 72.5488 30.1583 72.5488 30.3535 72.3536L33.5355 69.1716C33.7308 68.9763 33.7308 68.6597 33.5355 68.4645C33.3403 68.2692 33.0237 68.2692 32.8284 68.4645L30 71.2929L27.1716 68.4645C26.9763 68.2692 26.6597 68.2692 26.4645 68.4645C26.2692 68.6597 26.2692 68.9763 26.4645 69.1716L29.6464 72.3536ZM29.5 -1.63918e-08L29.5 1L30.5 1L30.5 1.63918e-08L29.5 -1.63918e-08ZM29.5 3L29.5 5L30.5 5L30.5 3L29.5 3ZM29.5 7L29.5 9L30.5 9L30.5 7L29.5 7ZM29.5 11L29.5 13L30.5 13L30.5 11L29.5 11ZM29.5 15L29.5 17L30.5 17L30.5 15L29.5 15ZM29.5 19L29.5 21L30.5 21L30.5 19L29.5 19ZM29.5 23L29.5 25L30.5 25L30.5 23L29.5 23ZM29.5 27L29.5 29L30.5 29L30.5 27L29.5 27ZM29.5 31L29.5 33L30.5 33L30.5 31L29.5 31ZM29.5 35L29.5 37L30.5 37L30.5 35L29.5 35ZM29.5 39L29.5 41L30.5 41L30.5 39L29.5 39ZM29.5 43L29.5 45L30.5 45L30.5 43L29.5 43ZM29.5 47L29.5 49L30.5 49L30.5 47L29.5 47ZM29.5 51L29.5 53L30.5 53L30.5 51L29.5 51ZM29.5 55L29.5 57L30.5 57L30.5 55L29.5 55ZM29.5 59L29.5 61L30.5 61L30.5 59L29.5 59ZM29.5 63L29.5 65L30.5 65L30.5 63L29.5 63ZM29.5 67L29.5 69L30.5 69L30.5 67L29.5 67ZM29.5 71L29.5 72L30.5 72L30.5 71L29.5 71Z" fill="#727272"/>
<path d="M55.6464 72.3536C55.8417 72.5488 56.1583 72.5488 56.3535 72.3536L59.5355 69.1716C59.7308 68.9763 59.7308 68.6597 59.5355 68.4645C59.3403 68.2692 59.0237 68.2692 58.8284 68.4645L56 71.2929L53.1716 68.4645C52.9763 68.2692 52.6597 68.2692 52.4645 68.4645C52.2692 68.6597 52.2692 68.9763 52.4645 69.1716L55.6464 72.3536ZM55.5 -1.63918e-08L55.5 1L56.5 1L56.5 1.63918e-08L55.5 -1.63918e-08ZM55.5 3L55.5 5L56.5 5L56.5 3L55.5 3ZM55.5 7L55.5 9L56.5 9L56.5 7L55.5 7ZM55.5 11L55.5 13L56.5 13L56.5 11L55.5 11ZM55.5 15L55.5 17L56.5 17L56.5 15L55.5 15ZM55.5 19L55.5 21L56.5 21L56.5 19L55.5 19ZM55.5 23L55.5 25L56.5 25L56.5 23L55.5 23ZM55.5 27L55.5 29L56.5 29L56.5 27L55.5 27ZM55.5 31L55.5 33L56.5 33L56.5 31L55.5 31ZM55.5 35L55.5 37L56.5 37L56.5 35L55.5 35ZM55.5 39L55.5 41L56.5 41L56.5 39L55.5 39ZM55.5 43L55.5 45L56.5 45L56.5 43L55.5 43ZM55.5 47L55.5 49L56.5 49L56.5 47L55.5 47ZM55.5 51L55.5 53L56.5 53L56.5 51L55.5 51ZM55.5 55L55.5 57L56.5 57L56.5 55L55.5 55ZM55.5 59L55.5 61L56.5 61L56.5 59L55.5 59ZM55.5 63L55.5 65L56.5 65L56.5 63L55.5 63ZM55.5 67L55.5 69L56.5 69L56.5 67L55.5 67ZM55.5 71L55.5 72L56.5 72L56.5 71L55.5 71Z" fill="#727272"/>
<path d="M81.6464 72.3536C81.8417 72.5488 82.1583 72.5488 82.3535 72.3536L85.5355 69.1716C85.7308 68.9763 85.7308 68.6597 85.5355 68.4645C85.3403 68.2692 85.0237 68.2692 84.8284 68.4645L82 71.2929L79.1716 68.4645C78.9763 68.2692 78.6597 68.2692 78.4645 68.4645C78.2692 68.6597 78.2692 68.9763 78.4645 69.1716L81.6464 72.3536ZM81.5 -1.63918e-08L81.5 1L82.5 1L82.5 1.63918e-08L81.5 -1.63918e-08ZM81.5 3L81.5 5L82.5 5L82.5 3L81.5 3ZM81.5 7L81.5 9L82.5 9L82.5 7L81.5 7ZM81.5 11L81.5 13L82.5 13L82.5 11L81.5 11ZM81.5 15L81.5 17L82.5 17L82.5 15L81.5 15ZM81.5 19L81.5 21L82.5 21L82.5 19L81.5 19ZM81.5 23L81.5 25L82.5 25L82.5 23L81.5 23ZM81.5 27L81.5 29L82.5 29L82.5 27L81.5 27ZM81.5 31L81.5 33L82.5 33L82.5 31L81.5 31ZM81.5 35L81.5 37L82.5 37L82.5 35L81.5 35ZM81.5 39L81.5 41L82.5 41L82.5 39L81.5 39ZM81.5 43L81.5 45L82.5 45L82.5 43L81.5 43ZM81.5 47L81.5 49L82.5 49L82.5 47L81.5 47ZM81.5 51L81.5 53L82.5 53L82.5 51L81.5 51ZM81.5 55L81.5 57L82.5 57L82.5 55L81.5 55ZM81.5 59L81.5 61L82.5 61L82.5 59L81.5 59ZM81.5 63L81.5 65L82.5 65L82.5 63L81.5 63ZM81.5 67L81.5 69L82.5 69L82.5 67L81.5 67ZM81.5 71L81.5 72L82.5 72L82.5 71L81.5 71Z" fill="#727272"/>
<path d="M107.646 72.3536C107.842 72.5488 108.158 72.5488 108.354 72.3536L111.536 69.1716C111.731 68.9763 111.731 68.6597 111.536 68.4645C111.34 68.2692 111.024 68.2692 110.828 68.4645L108 71.2929L105.172 68.4645C104.976 68.2692 104.66 68.2692 104.464 68.4645C104.269 68.6597 104.269 68.9763 104.464 69.1716L107.646 72.3536ZM107.5 -1.63918e-08L107.5 1L108.5 1L108.5 1.63918e-08L107.5 -1.63918e-08ZM107.5 3L107.5 5L108.5 5L108.5 3L107.5 3ZM107.5 7L107.5 9L108.5 9L108.5 7L107.5 7ZM107.5 11L107.5 13L108.5 13L108.5 11L107.5 11ZM107.5 15L107.5 17L108.5 17L108.5 15L107.5 15ZM107.5 19L107.5 21L108.5 21L108.5 19L107.5 19ZM107.5 23L107.5 25L108.5 25L108.5 23L107.5 23ZM107.5 27L107.5 29L108.5 29L108.5 27L107.5 27ZM107.5 31L107.5 33L108.5 33L108.5 31L107.5 31ZM107.5 35L107.5 37L108.5 37L108.5 35L107.5 35ZM107.5 39L107.5 41L108.5 41L108.5 39L107.5 39ZM107.5 43L107.5 45L108.5 45L108.5 43L107.5 43ZM107.5 47L107.5 49L108.5 49L108.5 47L107.5 47ZM107.5 51L107.5 53L108.5 53L108.5 51L107.5 51ZM107.5 55L107.5 57L108.5 57L108.5 55L107.5 55ZM107.5 59L107.5 61L108.5 61L108.5 59L107.5 59ZM107.5 63L107.5 65L108.5 65L108.5 63L107.5 63ZM107.5 67L107.5 69L108.5 69L108.5 67L107.5 67ZM107.5 71L107.5 72L108.5 72L108.5 71L107.5 71Z" fill="#727272"/>
</svg>
